SplineFontDB: 3.0
FontName: OxygenSans-Bold
FullName: OxygenSans Bold
FamilyName: OxygenSans
Weight: Bold
Copyright: Copyright 2009-2012 vernon adams.
Version: 1.001;PS (version unavailable);hotconv 1.0.57;makeotf.lib2.0.21895 DEVELOPMENT
ItalicAngle: 0
UnderlinePosition: 0
UnderlineWidth: 0
Ascent: 1638
Descent: 410
sfntRevision: 0x00010041
LayerCount: 2
Layer: 0 1 "Back"  1
Layer: 1 1 "Fore"  0
XUID: [1021 14 500265001 2162013]
FSType: 8
OS2Version: 1
OS2_WeightWidthSlopeOnly: 0
OS2_UseTypoMetrics: 1
CreationTime: 1353013679
ModificationTime: 1353013888
PfmFamily: 81
TTFWeight: 700
TTFWidth: 5
LineGap: 0
VLineGap: 0
Panose: 0 0 0 0 0 0 0 0 0 0
OS2TypoAscent: -90
OS2TypoAOffset: 1
OS2TypoDescent: 910
OS2TypoDOffset: 1
OS2TypoLinegap: 0
OS2WinAscent: -317
OS2WinAOffset: 1
OS2WinDescent: -136
OS2WinDOffset: 1
HheadAscent: 0
HheadAOffset: 1
HheadDescent: 0
HheadDOffset: 1
OS2SubXSize: 1331
OS2SubYSize: 1228
OS2SubXOff: 0
OS2SubYOff: 153
OS2SupXSize: 1331
OS2SupYSize: 1228
OS2SupXOff: 0
OS2SupYOff: 716
OS2StrikeYSize: 50
OS2StrikeYPos: 610
OS2Vendor: 'newt'
OS2CodePages: 2000019f.00000000
OS2UnicodeRanges: 0000008f.00000000.00000000.00000000
MarkAttachClasses: 1
DEI: 91125
ShortTable: maxp 16
  1
  0
  627
  273
  17
  2248
  152
  2
  0
  1
  1
  0
  64
  0
  26
  2
EndShort
LangName: 1033 "" "" "" "1.001;newt;OxygenSans-Bold" "" "Version 1.001;PS (version unavailable);hotconv 1.0.57;makeotf.lib2.0.21895 DEVELOPMENT" "" "" "" "Vernon Adams" "" "" "" "" "http://scripts.sil.org/OFL" 
GaspTable: 1 65535 2 0
Encoding: UnicodeBmp
UnicodeInterp: none
NameList: Adobe Glyph List
DisplaySize: -48
AntiAlias: 1
FitToEm: 1
WinInfo: 46 23 10
BeginChars: 65539 627

StartChar: .notdef
Encoding: 65536 -1 0
Width: 1024
Flags: W
LayerCount: 2
Fore
SplineSet
102 -500 m 1,0,-1
 102 1501 l 1,1,-1
 922 1501 l 1,2,-1
 922 -500 l 1,3,-1
 102 -500 l 1,0,-1
204 -398 m 1,4,-1
 820 -398 l 1,5,-1
 820 1399 l 1,6,-1
 204 1399 l 1,7,-1
 204 -398 l 1,4,-1
EndSplineSet
EndChar

StartChar: exclam
Encoding: 33 33 4
Width: 629
GlyphClass: 2
Flags: W
LayerCount: 2
Fore
SplineSet
442 1127 m 1,0,-1
 385 418 l 1,1,-1
 272 418 l 1,2,-1
 208 1127 l 1,3,-1
 208 1335 l 1,4,-1
 442 1335 l 1,5,-1
 442 1127 l 1,0,-1
321 -7 m 0,6,7
 259 -7 259 -7 216.5 36.5 c 128,-1,8
 174 80 174 80 174 139 c 0,9,10
 174 199 174 199 216.5 242.5 c 128,-1,11
 259 286 259 286 321 286 c 0,12,13
 382 286 382 286 424.5 242.5 c 128,-1,14
 467 199 467 199 467 139 c 0,15,16
 467 80 467 80 424.5 36.5 c 128,-1,17
 382 -7 382 -7 321 -7 c 0,6,7
EndSplineSet
EndChar

StartChar: quotedbl
Encoding: 34 34 5
Width: 762
GlyphClass: 2
Flags: W
LayerCount: 2
Fore
SplineSet
138 837 m 1,0,-1
 106 1336 l 1,1,-1
 327 1336 l 1,2,-1
 299 837 l 1,3,-1
 138 837 l 1,0,-1
516 837 m 1,4,-1
 484 1336 l 1,5,-1
 705 1336 l 1,6,-1
 677 837 l 1,7,-1
 516 837 l 1,4,-1
EndSplineSet
EndChar

StartChar: numbersign
Encoding: 35 35 6
Width: 1212
GlyphClass: 2
Flags: W
LayerCount: 2
Fore
SplineSet
350 547 m 1,0,-1
 395 808 l 1,1,-1
 209 808 l 1,2,-1
 216 990 l 1,3,-1
 427 990 l 1,4,-1
 497 1336 l 1,5,-1
 688 1336 l 1,6,-1
 622 990 l 1,7,-1
 770 990 l 1,8,-1
 835 1336 l 1,9,-1
 1023 1336 l 1,10,-1
 957 990 l 1,11,-1
 1118 990 l 1,12,-1
 1106 809 l 1,13,-1
 923 809 l 1,14,-1
 874 547 l 1,15,-1
 1047 547 l 1,16,-1
 1038 369 l 1,17,-1
 845 369 l 1,18,-1
 774 -13 l 1,19,-1
 583 -13 l 1,20,-1
 652 369 l 1,21,-1
 506 369 l 1,22,-1
 436 -13 l 1,23,-1
 249 -13 l 1,24,-1
 316 369 l 1,25,-1
 138 369 l 1,26,-1
 147 547 l 1,27,-1
 350 547 l 1,0,-1
538 547 m 1,28,-1
 688 547 l 1,29,-1
 736 809 l 1,30,-1
 588 809 l 1,31,-1
 538 547 l 1,28,-1
EndSplineSet
EndChar

StartChar: dollar
Encoding: 36 36 7
Width: 1174
GlyphClass: 2
Flags: W
LayerCount: 2
Fore
SplineSet
544 841 m 1,0,-1
 544 1123 l 1,1,2
 409 1101 409 1101 409 980 c 0,3,4
 409 885 409 885 507 853 c 2,5,-1
 544 841 l 1,0,-1
663 220 m 1,6,-1
 666 220 l 1,7,8
 782 251 782 251 782 385 c 0,9,10
 782 482 782 482 663 532 c 1,11,-1
 663 220 l 1,6,-1
663 -148 m 1,12,-1
 544 -148 l 1,13,-1
 544 -17 l 1,14,15
 293 -14 293 -14 125 82 c 1,16,-1
 190 300 l 1,17,18
 247 265 247 265 348 240 c 128,-1,19
 449 215 449 215 544 211 c 1,20,-1
 544 572 l 1,21,-1
 406 617 l 2,22,23
 280 658 280 658 210 747.5 c 128,-1,24
 140 837 140 837 140 975 c 0,25,26
 140 1144 140 1144 250.5 1242.5 c 128,-1,27
 361 1341 361 1341 544 1356 c 1,28,-1
 544 1480 l 1,29,-1
 663 1480 l 1,30,-1
 663 1356 l 1,31,32
 860 1346 860 1346 1020 1255 c 1,33,-1
 939 1048 l 1,34,35
 782 1117 782 1117 663 1126 c 1,36,-1
 663 801 l 1,37,-1
 715 783 l 1,38,39
 895 723 895 723 975 631.5 c 128,-1,40
 1055 540 1055 540 1055 381 c 0,41,42
 1055 213 1055 213 949.5 112 c 128,-1,43
 844 11 844 11 663 -11 c 1,44,-1
 663 -148 l 1,12,-1
EndSplineSet
EndChar

StartChar: ampersand
Encoding: 38 38 8
Width: 1331
GlyphClass: 2
Flags: W
LayerCount: 2
Fore
SplineSet
587 -1 m 0,0,1
 512 -1 512 -1 444.5 12.5 c 128,-1,2
 377 26 377 26 316 56.5 c 128,-1,3
 255 87 255 87 211 131.5 c 128,-1,4
 167 176 167 176 141 242 c 128,-1,5
 115 308 115 308 115 389 c 0,6,7
 115 459 115 459 138 518 c 128,-1,8
 161 577 161 577 206 623.5 c 128,-1,9
 251 670 251 670 297 703 c 128,-1,10
 343 736 343 736 409 772 c 1,11,12
 375 812 375 812 357 835 c 128,-1,13
 339 858 339 858 314.5 896 c 128,-1,14
 290 934 290 934 279 972.5 c 128,-1,15
 268 1011 268 1011 268 1052 c 0,16,17
 268 1129 268 1129 296.5 1189 c 128,-1,18
 325 1249 325 1249 373.5 1285.5 c 128,-1,19
 422 1322 422 1322 483 1340.5 c 128,-1,20
 544 1359 544 1359 614 1359 c 0,21,22
 680 1359 680 1359 741.5 1342 c 128,-1,23
 803 1325 803 1325 856 1291.5 c 128,-1,24
 909 1258 909 1258 941 1200 c 128,-1,25
 973 1142 973 1142 973 1068 c 0,26,27
 973 1007 973 1007 950 953.5 c 128,-1,28
 927 900 927 900 885.5 858 c 128,-1,29
 844 816 844 816 799 785 c 128,-1,30
 754 754 754 754 697 725 c 1,31,-1
 989 403 l 1,32,33
 1056 481 1056 481 1117 597 c 1,34,-1
 1286 488 l 1,35,36
 1219 355 1219 355 1130 256 c 1,37,-1
 1319 57 l 1,38,-1
 1111 4 l 1,39,-1
 987 134 l 1,40,41
 804 -1 804 -1 587 -1 c 0,0,1
592 178 m 0,42,43
 741 178 741 178 854 266 c 1,44,45
 833 289 833 289 690.5 445.5 c 128,-1,46
 548 602 548 602 522 630 c 1,47,48
 431 579 431 579 385.5 529.5 c 128,-1,49
 340 480 340 480 340 399 c 0,50,51
 340 290 340 290 410 234 c 128,-1,52
 480 178 480 178 592 178 c 0,42,43
581 863 m 1,53,54
 619 884 619 884 645.5 902 c 128,-1,55
 672 920 672 920 699 945 c 128,-1,56
 726 970 726 970 740 1001 c 128,-1,57
 754 1032 754 1032 754 1067 c 0,58,59
 754 1128 754 1128 718 1158.5 c 128,-1,60
 682 1189 682 1189 621 1189 c 0,61,62
 556 1189 556 1189 519.5 1157.5 c 128,-1,63
 483 1126 483 1126 483 1061 c 0,64,65
 483 1007 483 1007 508 960.5 c 128,-1,66
 533 914 533 914 581 863 c 1,53,54
EndSplineSet
EndChar

StartChar: quotesingle
Encoding: 39 39 9
Width: 514
GlyphClass: 2
Flags: W
LayerCount: 2
Fore
SplineSet
184 833 m 1,0,-1
 152 1341 l 1,1,-1
 362 1341 l 1,2,-1
 337 833 l 1,3,-1
 184 833 l 1,0,-1
EndSplineSet
EndChar

StartChar: parenleft
Encoding: 40 40 10
Width: 721
GlyphClass: 2
Flags: W
LayerCount: 2
Fore
SplineSet
658 -140 m 1,0,-1
 426 -140 l 1,1,2
 302 35 302 35 235.5 223 c 128,-1,3
 169 411 169 411 169 635 c 0,4,5
 169 862 169 862 240 1068.5 c 128,-1,6
 311 1275 311 1275 425 1427 c 1,7,-1
 659 1427 l 1,8,9
 565 1291 565 1291 487.5 1071.5 c 128,-1,10
 410 852 410 852 410 637 c 0,11,12
 410 432 410 432 475 246 c 128,-1,13
 540 60 540 60 658 -140 c 1,0,-1
EndSplineSet
EndChar

StartChar: parenright
Encoding: 41 41 11
Width: 732
GlyphClass: 2
Flags: W
LayerCount: 2
Fore
SplineSet
89 1427 m 1,0,-1
 321 1427 l 1,1,2
 445 1252 445 1252 511.5 1064 c 128,-1,3
 578 876 578 876 578 652 c 0,4,5
 578 425 578 425 507 218.5 c 128,-1,6
 436 12 436 12 322 -140 c 1,7,-1
 88 -140 l 1,8,9
 182 -4 182 -4 259.5 215.5 c 128,-1,10
 337 435 337 435 337 650 c 0,11,12
 337 855 337 855 272 1041 c 128,-1,13
 207 1227 207 1227 89 1427 c 1,0,-1
EndSplineSet
EndChar

StartChar: asterisk
Encoding: 42 42 12
Width: 1093
GlyphClass: 2
Flags: W
LayerCount: 2
Fore
SplineSet
167 1117 m 1,0,-1
 466 993 l 1,1,-1
 435 1336 l 1,2,-1
 656 1336 l 1,3,-1
 627 993 l 1,4,-1
 929 1117 l 1,5,-1
 990 904 l 1,6,-1
 683 836 l 1,7,-1
 896 568 l 1,8,-1
 700 456 l 1,9,-1
 545 741 l 1,10,-1
 397 458 l 1,11,-1
 196 568 l 1,12,-1
 409 836 l 1,13,-1
 103 904 l 1,14,-1
 167 1117 l 1,0,-1
EndSplineSet
EndChar

StartChar: plus
Encoding: 43 43 13
Width: 1035
GlyphClass: 2
Flags: W
LayerCount: 2
Fore
SplineSet
430 692 m 1,0,-1
 430 1065 l 1,1,-1
 623 1065 l 1,2,-1
 623 692 l 1,3,-1
 983 692 l 1,4,-1
 983 502 l 1,5,-1
 622 502 l 1,6,-1
 622 130 l 1,7,-1
 429 130 l 1,8,-1
 429 502 l 1,9,-1
 68 502 l 1,10,-1
 68 692 l 1,11,-1
 430 692 l 1,0,-1
EndSplineSet
EndChar

StartChar: comma
Encoding: 44 44 14
Width: 528
GlyphClass: 2
Flags: W
LayerCount: 2
Fore
SplineSet
310 -233 m 1,0,-1
 133 -233 l 1,1,-1
 221 245 l 1,2,-1
 458 245 l 1,3,-1
 453 190 l 1,4,-1
 310 -233 l 1,0,-1
EndSplineSet
EndChar

StartChar: hyphen
Encoding: 45 45 15
Width: 594
GlyphClass: 2
Flags: W
LayerCount: 2
Fore
SplineSet
57 406 m 1,0,-1
 57 606 l 1,1,-1
 553 606 l 1,2,-1
 553 406 l 1,3,-1
 57 406 l 1,0,-1
EndSplineSet
EndChar

StartChar: period
Encoding: 46 46 16
Width: 549
GlyphClass: 2
Flags: W
LayerCount: 2
Fore
SplineSet
281 3 m 0,0,1
 219 3 219 3 176 45.5 c 128,-1,2
 133 88 133 88 133 148 c 128,-1,3
 133 208 133 208 176 251.5 c 128,-1,4
 219 295 219 295 281 295 c 0,5,6
 342 295 342 295 384.5 251.5 c 128,-1,7
 427 208 427 208 427 148 c 0,8,9
 427 89 427 89 384.5 46 c 128,-1,10
 342 3 342 3 281 3 c 0,0,1
EndSplineSet
EndChar

StartChar: slash
Encoding: 47 47 17
Width: 881
GlyphClass: 2
Flags: W
LayerCount: 2
Fore
SplineSet
56 -167 m 1,0,-1
 609 1364 l 1,1,-1
 823 1364 l 1,2,-1
 267 -167 l 1,3,-1
 56 -167 l 1,0,-1
EndSplineSet
EndChar

StartChar: zero
Encoding: 48 48 18
Width: 1255
GlyphClass: 2
Flags: W
LayerCount: 2
Fore
SplineSet
627 187 m 128,-1,1
 694 187 694 187 741.5 227 c 128,-1,2
 789 267 789 267 814 338.5 c 128,-1,3
 839 410 839 410 850 492 c 128,-1,4
 861 574 861 574 861 674 c 0,5,6
 861 1153 861 1153 627 1153 c 0,7,8
 396 1153 396 1153 392 677 c 0,9,10
 392 576 392 576 403 493.5 c 128,-1,11
 414 411 414 411 439.5 339.5 c 128,-1,12
 465 268 465 268 512.5 227.5 c 128,-1,0
 560 187 560 187 627 187 c 128,-1,1
627 -18 m 128,-1,14
 520 -18 520 -18 434.5 19.5 c 128,-1,15
 349 57 349 57 293.5 121 c 128,-1,16
 238 185 238 185 201 274 c 128,-1,17
 164 363 164 363 148 460 c 128,-1,18
 132 557 132 557 132 667 c 0,19,20
 132 779 132 779 148 877.5 c 128,-1,21
 164 976 164 976 201.5 1065.5 c 128,-1,22
 239 1155 239 1155 295 1218.5 c 128,-1,23
 351 1282 351 1282 436 1319.5 c 128,-1,24
 521 1357 521 1357 627 1357 c 0,25,26
 734 1357 734 1357 819 1319.5 c 128,-1,27
 904 1282 904 1282 960 1217.5 c 128,-1,28
 1016 1153 1016 1153 1053.5 1064 c 128,-1,29
 1091 975 1091 975 1107 876.5 c 128,-1,30
 1123 778 1123 778 1123 667 c 0,31,32
 1123 557 1123 557 1107 460 c 128,-1,33
 1091 363 1091 363 1054 274 c 128,-1,34
 1017 185 1017 185 961 121 c 128,-1,35
 905 57 905 57 819.5 19.5 c 128,-1,13
 734 -18 734 -18 627 -18 c 128,-1,14
EndSplineSet
EndChar

StartChar: one
Encoding: 49 49 19
Width: 1117
GlyphClass: 2
Flags: W
LayerCount: 2
Fore
SplineSet
997 0 m 1,0,-1
 196 0 l 1,1,-1
 196 200 l 1,2,-1
 484 200 l 1,3,-1
 484 1096 l 1,4,5
 448 1071 448 1071 369.5 1042.5 c 128,-1,6
 291 1014 291 1014 196 999 c 1,7,-1
 196 1200 l 1,8,9
 412 1259 412 1259 519 1336 c 1,10,-1
 740 1336 l 1,11,-1
 740 200 l 1,12,-1
 997 200 l 1,13,-1
 997 0 l 1,0,-1
EndSplineSet
EndChar

StartChar: two
Encoding: 50 50 20
Width: 1141
GlyphClass: 2
Flags: W
LayerCount: 2
Fore
SplineSet
167 0 m 1,0,-1
 161 207 l 1,1,-1
 578 674 l 2,2,3
 640 742 640 742 679.5 822 c 128,-1,4
 719 902 719 902 719 964 c 0,5,6
 719 1044 719 1044 664.5 1098 c 128,-1,7
 610 1152 610 1152 528 1152 c 0,8,9
 448 1152 448 1152 369.5 1114.5 c 128,-1,10
 291 1077 291 1077 244 1040 c 1,11,-1
 169 1226 l 1,12,13
 233 1282 233 1282 330 1319.5 c 128,-1,14
 427 1357 427 1357 541 1357 c 0,15,16
 732 1357 732 1357 855 1252 c 128,-1,17
 978 1147 978 1147 978 966 c 0,18,19
 978 857 978 857 903 724.5 c 128,-1,20
 828 592 828 592 729 488 c 1,21,-1
 464 200 l 1,22,-1
 970 200 l 1,23,-1
 953 0 l 1,24,-1
 167 0 l 1,0,-1
EndSplineSet
EndChar

StartChar: three
Encoding: 51 51 21
Width: 1188
GlyphClass: 2
Flags: W
LayerCount: 2
Fore
SplineSet
755 379 m 0,0,1
 755 432 755 432 739.5 470 c 128,-1,2
 724 508 724 508 697 532 c 128,-1,3
 670 556 670 556 625.5 570.5 c 128,-1,4
 581 585 581 585 532 591 c 128,-1,5
 483 597 483 597 415 599 c 1,6,-1
 355 599 l 1,7,-1
 355 799 l 1,8,-1
 415 799 l 2,9,10
 492 799 492 799 544.5 806 c 128,-1,11
 597 813 597 813 642 831.5 c 128,-1,12
 687 850 687 850 709 885.5 c 128,-1,13
 731 921 731 921 731 975 c 0,14,15
 731 1048 731 1048 678 1100.5 c 128,-1,16
 625 1153 625 1153 528 1153 c 0,17,18
 364 1153 364 1153 238 1071 c 1,19,-1
 164 1258 l 1,20,21
 324 1357 324 1357 550 1357 c 0,22,23
 736 1357 736 1357 856.5 1255.5 c 128,-1,24
 977 1154 977 1154 977 994 c 0,25,26
 977 788 977 788 786 707 c 1,27,28
 893 675 893 675 953 581 c 128,-1,29
 1013 487 1013 487 1013 367 c 0,30,31
 1013 246 1013 246 948 157 c 128,-1,32
 883 68 883 68 778 25 c 128,-1,33
 673 -18 673 -18 543 -18 c 0,34,35
 428 -18 428 -18 325.5 12 c 128,-1,36
 223 42 223 42 162 94 c 1,37,-1
 239 278 l 1,38,39
 287 238 287 238 372 212.5 c 128,-1,40
 457 187 457 187 544 187 c 0,41,42
 640 187 640 187 697.5 240.5 c 128,-1,43
 755 294 755 294 755 379 c 0,0,1
EndSplineSet
EndChar

StartChar: four
Encoding: 52 52 22
Width: 1246
GlyphClass: 2
Flags: W
LayerCount: 2
Fore
SplineSet
666 1336 m 1,0,-1
 976 1336 l 1,1,-1
 976 498 l 1,2,-1
 1137 498 l 1,3,-1
 1123 296 l 1,4,-1
 976 296 l 1,5,-1
 976 0 l 1,6,-1
 722 0 l 1,7,-1
 722 296 l 1,8,-1
 138 296 l 1,9,-1
 138 473 l 1,10,-1
 666 1336 l 1,0,-1
722 494 m 1,11,-1
 722 1055 l 1,12,-1
 397 494 l 1,13,-1
 722 494 l 1,11,-1
EndSplineSet
EndChar

StartChar: five
Encoding: 53 53 23
Width: 1222
GlyphClass: 2
Flags: W
LayerCount: 2
Fore
SplineSet
589 -18 m 0,0,1
 496 -18 496 -18 395.5 11.5 c 128,-1,2
 295 41 295 41 242 68 c 128,-1,3
 189 95 189 95 172 110 c 1,4,-1
 261 292 l 1,5,6
 280 278 280 278 313 259 c 128,-1,7
 346 240 346 240 420.5 214.5 c 128,-1,8
 495 189 495 189 563 189 c 0,9,10
 688 189 688 189 751 255 c 128,-1,11
 814 321 814 321 814 430 c 0,12,13
 814 533 814 533 757 593.5 c 128,-1,14
 700 654 700 654 609 654 c 0,15,16
 498 654 498 654 411 561 c 1,17,-1
 227 590 l 1,18,-1
 264 1336 l 1,19,-1
 1028 1336 l 1,20,-1
 1011 1129 l 1,21,-1
 502 1129 l 1,22,23
 501 1109 501 1109 490 971.5 c 128,-1,24
 479 834 479 834 478 799 c 1,25,26
 600 855 600 855 648 855 c 0,27,28
 839 855 839 855 958.5 736 c 128,-1,29
 1078 617 1078 617 1078 428 c 0,30,31
 1078 227 1078 227 948.5 104.5 c 128,-1,32
 819 -18 819 -18 589 -18 c 0,0,1
EndSplineSet
EndChar

StartChar: six
Encoding: 54 54 24
Width: 1256
GlyphClass: 2
Flags: W
LayerCount: 2
Fore
SplineSet
628 -18 m 0,0,1
 409 -18 409 -18 270.5 103 c 128,-1,2
 132 224 132 224 132 422 c 0,3,4
 132 541 132 541 178 637.5 c 128,-1,5
 224 734 224 734 314 853 c 1,6,-1
 666 1336 l 1,7,-1
 982 1336 l 1,8,-1
 592 826 l 1,9,10
 636 838 636 838 669 838 c 0,11,12
 863 838 863 838 990.5 720.5 c 128,-1,13
 1118 603 1118 603 1118 417 c 0,14,15
 1118 223 1118 223 979 102.5 c 128,-1,16
 840 -18 840 -18 628 -18 c 0,0,1
618 180 m 0,17,18
 730 180 730 180 792 243.5 c 128,-1,19
 854 307 854 307 854 413 c 0,20,21
 854 525 854 525 796 587.5 c 128,-1,22
 738 650 738 650 621 650 c 0,23,24
 503 650 503 650 448 586.5 c 128,-1,25
 393 523 393 523 393 411 c 0,26,27
 393 304 393 304 451 242 c 128,-1,28
 509 180 509 180 618 180 c 0,17,18
EndSplineSet
EndChar

StartChar: seven
Encoding: 55 55 25
Width: 1057
GlyphClass: 2
Flags: W
LayerCount: 2
Fore
SplineSet
949 1336 m 1,0,-1
 949 1172 l 1,1,-1
 523 0 l 1,2,-1
 241 0 l 1,3,-1
 660 1132 l 1,4,-1
 100 1132 l 1,5,-1
 112 1336 l 1,6,-1
 949 1336 l 1,0,-1
EndSplineSet
EndChar

StartChar: eight
Encoding: 56 56 26
Width: 1261
GlyphClass: 2
Flags: W
LayerCount: 2
Fore
SplineSet
633 -18 m 0,0,1
 506 -18 506 -18 402 24.5 c 128,-1,2
 298 67 298 67 233 155 c 128,-1,3
 168 243 168 243 168 362 c 128,-1,4
 168 481 168 481 226 568 c 128,-1,5
 284 655 284 655 385 705 c 1,6,7
 193 807 193 807 193 1011 c 0,8,9
 193 1123 193 1123 254 1203 c 128,-1,10
 315 1283 315 1283 412.5 1320 c 128,-1,11
 510 1357 510 1357 632 1357 c 0,12,13
 755 1357 755 1357 852 1320 c 128,-1,14
 949 1283 949 1283 1009 1203 c 128,-1,15
 1069 1123 1069 1123 1069 1011 c 0,16,17
 1069 808 1069 808 890 705 c 1,18,19
 985 654 985 654 1039 567 c 128,-1,20
 1093 480 1093 480 1093 361 c 0,21,22
 1093 271 1093 271 1056 198 c 128,-1,23
 1019 125 1019 125 955.5 78.5 c 128,-1,24
 892 32 892 32 809.5 7 c 128,-1,25
 727 -18 727 -18 633 -18 c 0,0,1
633 154 m 0,26,27
 740 154 740 154 798.5 207.5 c 128,-1,28
 857 261 857 261 857 356 c 128,-1,29
 857 451 857 451 795.5 515.5 c 128,-1,30
 734 580 734 580 633 608 c 1,31,32
 530 580 530 580 468.5 515.5 c 128,-1,33
 407 451 407 451 407 355 c 0,34,35
 407 261 407 261 467 207.5 c 128,-1,36
 527 154 527 154 633 154 c 0,26,27
633 775 m 1,37,38
 734 799 734 799 789.5 858.5 c 128,-1,39
 845 918 845 918 845 1010 c 0,40,41
 845 1086 845 1086 785.5 1132 c 128,-1,42
 726 1178 726 1178 633 1178 c 0,43,44
 539 1178 539 1178 478.5 1131.5 c 128,-1,45
 418 1085 418 1085 418 1010 c 0,46,47
 418 918 418 918 474.5 858.5 c 128,-1,48
 531 799 531 799 633 775 c 1,37,38
EndSplineSet
EndChar

StartChar: nine
Encoding: 57 57 27
Width: 1221
GlyphClass: 2
Flags: W
LayerCount: 2
Fore
SplineSet
570 0 m 1,0,-1
 257 0 l 1,1,-1
 648 509 l 1,2,3
 605 496 605 496 571 496 c 0,4,5
 377 496 377 496 250 613 c 128,-1,6
 123 730 123 730 123 918 c 0,7,8
 123 1115 123 1115 262 1236 c 128,-1,9
 401 1357 401 1357 613 1357 c 0,10,11
 832 1357 832 1357 970.5 1236 c 128,-1,12
 1109 1115 1109 1115 1109 916 c 0,13,14
 1109 800 1109 800 1065.5 706 c 128,-1,15
 1022 612 1022 612 939 497 c 1,16,-1
 570 0 l 1,0,-1
621 681 m 0,17,18
 739 681 739 681 794 747 c 128,-1,19
 849 813 849 813 849 928 c 0,20,21
 849 1035 849 1035 791.5 1097.5 c 128,-1,22
 734 1160 734 1160 625 1160 c 0,23,24
 513 1160 513 1160 449.5 1095.5 c 128,-1,25
 386 1031 386 1031 386 924 c 0,26,27
 386 810 386 810 445 745.5 c 128,-1,28
 504 681 504 681 621 681 c 0,17,18
EndSplineSet
EndChar

StartChar: colon
Encoding: 58 58 28
Width: 638
GlyphClass: 2
Flags: W
LayerCount: 2
Fore
SplineSet
191 0 m 1,0,-1
 191 266 l 1,1,-1
 447 266 l 1,2,-1
 447 0 l 1,3,-1
 191 0 l 1,0,-1
191 761 m 1,4,-1
 191 1016 l 1,5,-1
 447 1016 l 1,6,-1
 447 761 l 1,7,-1
 191 761 l 1,4,-1
EndSplineSet
EndChar

StartChar: semicolon
Encoding: 59 59 29
Width: 636
GlyphClass: 2
Flags: W
LayerCount: 2
Fore
SplineSet
191 -287 m 1,0,-1
 241 248 l 1,1,-1
 465 248 l 1,2,-1
 349 -287 l 1,3,-1
 191 -287 l 1,0,-1
207 767 m 1,4,-1
 207 1022 l 1,5,-1
 462 1022 l 1,6,-1
 462 767 l 1,7,-1
 207 767 l 1,4,-1
EndSplineSet
EndChar

StartChar: less
Encoding: 60 60 30
Width: 1105
GlyphClass: 2
Flags: W
LayerCount: 2
Fore
SplineSet
969 952 m 1,0,-1
 364 654 l 1,1,-1
 967 384 l 1,2,-1
 969 169 l 1,3,-1
 96 588 l 1,4,-1
 96 710 l 1,5,-1
 969 1157 l 1,6,-1
 969 952 l 1,0,-1
EndSplineSet
EndChar

StartChar: equal
Encoding: 61 61 31
Width: 1179
GlyphClass: 2
Flags: W
LayerCount: 2
Fore
SplineSet
130 326 m 1,0,-1
 130 518 l 1,1,-1
 1049 518 l 1,2,-1
 1049 326 l 1,3,-1
 130 326 l 1,0,-1
130 680 m 1,4,-1
 130 881 l 1,5,-1
 1049 881 l 1,6,-1
 1049 680 l 1,7,-1
 130 680 l 1,4,-1
EndSplineSet
EndChar

StartChar: greater
Encoding: 62 62 32
Width: 1105
GlyphClass: 2
Flags: W
LayerCount: 2
Fore
SplineSet
136 1158 m 1,0,-1
 1009 709 l 1,1,-1
 1009 588 l 1,2,-1
 136 171 l 1,3,-1
 136 386 l 1,4,-1
 740 654 l 1,5,-1
 136 953 l 1,6,-1
 136 1158 l 1,0,-1
EndSplineSet
EndChar

StartChar: question
Encoding: 63 63 33
Width: 969
GlyphClass: 2
Flags: W
LayerCount: 2
Fore
SplineSet
515 423 m 1,0,-1
 403 429 l 1,1,2
 412 500 412 500 440.5 573 c 128,-1,3
 469 646 469 646 503 704 c 128,-1,4
 537 762 537 762 570 816.5 c 128,-1,5
 603 871 603 871 625 923.5 c 128,-1,6
 647 976 647 976 647 1019 c 0,7,8
 646 1092 646 1092 601.5 1134.5 c 128,-1,9
 557 1177 557 1177 477 1177 c 0,10,11
 424 1177 424 1177 374 1164 c 128,-1,12
 324 1151 324 1151 298 1137.5 c 128,-1,13
 272 1124 272 1124 237 1103 c 1,14,-1
 165 1267 l 1,15,16
 309 1363 309 1363 501 1363 c 0,17,18
 551 1363 551 1363 600 1351.5 c 128,-1,19
 649 1340 649 1340 694.5 1314.5 c 128,-1,20
 740 1289 740 1289 775 1253 c 128,-1,21
 810 1217 810 1217 831 1164.5 c 128,-1,22
 852 1112 852 1112 852 1050 c 128,-1,23
 852 988 852 988 830.5 927.5 c 128,-1,24
 809 867 809 867 771 809.5 c 128,-1,25
 733 752 733 752 692 697.5 c 128,-1,26
 651 643 651 643 600.5 568.5 c 128,-1,27
 550 494 550 494 515 423 c 1,0,-1
458 -7 m 0,28,29
 398 -7 398 -7 354.5 36.5 c 128,-1,30
 311 80 311 80 311 139 c 0,31,32
 311 199 311 199 354 242.5 c 128,-1,33
 397 286 397 286 458 286 c 0,34,35
 517 286 517 286 557.5 242.5 c 128,-1,36
 598 199 598 199 598 139 c 0,37,38
 598 80 598 80 557.5 36.5 c 128,-1,39
 517 -7 517 -7 458 -7 c 0,28,29
EndSplineSet
EndChar

StartChar: at
Encoding: 64 64 34
Width: 1742
GlyphClass: 2
Flags: W
LayerCount: 2
Fore
SplineSet
855 -119 m 0,0,1
 645 -119 645 -119 481.5 -32.5 c 128,-1,2
 318 54 318 54 225 217 c 128,-1,3
 132 380 132 380 132 596 c 128,-1,4
 132 812 132 812 233.5 986.5 c 128,-1,5
 335 1161 335 1161 514 1259.5 c 128,-1,6
 693 1358 693 1358 915 1358 c 0,7,8
 1060 1358 1060 1358 1187.5 1312 c 128,-1,9
 1315 1266 1315 1266 1408.5 1183.5 c 128,-1,10
 1502 1101 1502 1101 1556 979 c 128,-1,11
 1610 857 1610 857 1610 713 c 0,12,13
 1610 622 1610 622 1589 544 c 128,-1,14
 1568 466 1568 466 1533 412 c 128,-1,15
 1498 358 1498 358 1453 319 c 128,-1,16
 1408 280 1408 280 1360 261.5 c 128,-1,17
 1312 243 1312 243 1265 243 c 0,18,19
 1186 243 1186 243 1127 294 c 128,-1,20
 1068 345 1068 345 1051 440 c 1,21,22
 1033 370 1033 370 956.5 307 c 128,-1,23
 880 244 880 244 796 244 c 0,24,25
 726 244 726 244 671 269 c 128,-1,26
 616 294 616 294 582.5 337.5 c 128,-1,27
 549 381 549 381 531.5 436 c 128,-1,28
 514 491 514 491 514 554 c 128,-1,29
 514 617 514 617 531 680.5 c 128,-1,30
 548 744 548 744 582.5 801.5 c 128,-1,31
 617 859 617 859 664 903 c 128,-1,32
 711 947 711 947 777 973.5 c 128,-1,33
 843 1000 843 1000 918 1000 c 0,34,35
 988 1000 988 1000 1077.5 981 c 128,-1,36
 1167 962 1167 962 1221 930 c 1,37,38
 1213 874 1213 874 1196 766.5 c 128,-1,39
 1179 659 1179 659 1170.5 592 c 128,-1,40
 1162 525 1162 525 1162 476 c 0,41,42
 1162 428 1162 428 1192 398 c 128,-1,43
 1222 368 1222 368 1266 368 c 0,44,45
 1300 368 1300 368 1333 388 c 128,-1,46
 1366 408 1366 408 1395 448 c 128,-1,47
 1424 488 1424 488 1442.5 558.5 c 128,-1,48
 1461 629 1461 629 1461 721 c 0,49,50
 1461 795 1461 795 1443 865 c 128,-1,51
 1425 935 1425 935 1383 1001.5 c 128,-1,52
 1341 1068 1341 1068 1279 1117 c 128,-1,53
 1217 1166 1217 1166 1121.5 1195.5 c 128,-1,54
 1026 1225 1026 1225 907 1225 c 0,55,56
 791 1225 791 1225 691 1189 c 128,-1,57
 591 1153 591 1153 520 1091.5 c 128,-1,58
 449 1030 449 1030 398.5 948.5 c 128,-1,59
 348 867 348 867 324 776 c 128,-1,60
 300 685 300 685 300 590 c 0,61,62
 300 501 300 501 321.5 418 c 128,-1,63
 343 335 343 335 388 261.5 c 128,-1,64
 433 188 433 188 497.5 133.5 c 128,-1,65
 562 79 562 79 654.5 47 c 128,-1,66
 747 15 747 15 856 15 c 0,67,68
 969 15 969 15 1082.5 41.5 c 128,-1,69
 1196 68 1196 68 1283 118 c 1,70,-1
 1325 -3 l 1,71,72
 1241 -59 1241 -59 1114.5 -89 c 128,-1,73
 988 -119 988 -119 855 -119 c 0,0,1
813 360 m 0,74,75
 862 360 862 360 898.5 381.5 c 128,-1,76
 935 403 935 403 957.5 446 c 128,-1,77
 980 489 980 489 993.5 540.5 c 128,-1,78
 1007 592 1007 592 1016 664 c 0,79,80
 1028 758 1028 758 1040 872 c 1,81,82
 989 890 989 890 942 890 c 0,83,84
 862 890 862 890 800 840.5 c 128,-1,85
 738 791 738 791 706.5 714 c 128,-1,86
 675 637 675 637 675 549 c 0,87,88
 675 466 675 466 710 413 c 128,-1,89
 745 360 745 360 813 360 c 0,74,75
EndSplineSet
EndChar

StartChar: A
Encoding: 65 65 35
Width: 1427
GlyphClass: 2
Flags: W
LayerCount: 2
Fore
SplineSet
556 555 m 1,0,-1
 868 555 l 1,1,-1
 718 1093 l 1,2,-1
 556 555 l 1,0,-1
90 0 m 1,3,-1
 545 1336 l 1,4,-1
 883 1336 l 1,5,-1
 1337 0 l 1,6,-1
 1051 0 l 1,7,-1
 924 365 l 1,8,-1
 498 365 l 1,9,-1
 378 0 l 1,10,-1
 90 0 l 1,3,-1
EndSplineSet
EndChar

StartChar: B
Encoding: 66 66 36
Width: 1366
GlyphClass: 2
Flags: W
LayerCount: 2
Fore
SplineSet
202 0 m 1,0,-1
 202 1336 l 1,1,-1
 669 1336 l 2,2,3
 929 1336 929 1336 1058.5 1259.5 c 128,-1,4
 1188 1183 1188 1183 1188 1000 c 0,5,6
 1188 967 1188 967 1178.5 930.5 c 128,-1,7
 1169 894 1169 894 1149 853.5 c 128,-1,8
 1129 813 1129 813 1090.5 776 c 128,-1,9
 1052 739 1052 739 1001 715 c 1,10,11
 1110 677 1110 677 1173 593 c 128,-1,12
 1236 509 1236 509 1236 393 c 0,13,14
 1236 202 1236 202 1102.5 101 c 128,-1,15
 969 0 969 0 738 0 c 2,16,-1
 202 0 l 1,0,-1
490 216 m 1,17,-1
 686 216 l 2,18,19
 821 216 821 216 884.5 261.5 c 128,-1,20
 948 307 948 307 948 412 c 128,-1,21
 948 517 948 517 884.5 560.5 c 128,-1,22
 821 604 821 604 680 604 c 2,23,-1
 490 604 l 1,24,-1
 490 216 l 1,17,-1
490 793 m 1,25,-1
 683 793 l 2,26,27
 800 793 800 793 854 830 c 128,-1,28
 908 867 908 867 908 956 c 0,29,30
 908 1055 908 1055 845 1090.5 c 128,-1,31
 782 1126 782 1126 635 1126 c 2,32,-1
 490 1126 l 1,33,-1
 490 793 l 1,25,-1
EndSplineSet
EndChar

StartChar: C
Encoding: 67 67 37
Width: 1253
GlyphClass: 2
Flags: W
LayerCount: 2
Fore
SplineSet
788 -18 m 0,0,1
 645 -18 645 -18 524.5 29 c 128,-1,2
 404 76 404 76 317 163.5 c 128,-1,3
 230 251 230 251 181 383 c 128,-1,4
 132 515 132 515 132 677 c 0,5,6
 132 838 132 838 180.5 967 c 128,-1,7
 229 1096 229 1096 315 1181 c 128,-1,8
 401 1266 401 1266 519.5 1311.5 c 128,-1,9
 638 1357 638 1357 779 1357 c 0,10,11
 986 1357 986 1357 1175 1247 c 1,12,-1
 1092 1033 l 1,13,14
 915 1134 915 1134 765 1123 c 0,15,16
 700 1118 700 1118 640 1087 c 128,-1,17
 580 1056 580 1056 530 1002 c 128,-1,18
 480 948 480 948 450 862 c 128,-1,19
 420 776 420 776 420 671 c 0,20,21
 420 456 420 456 522 337 c 128,-1,22
 624 218 624 218 803 213 c 0,23,24
 946 209 946 209 1094 293 c 1,25,-1
 1149 75 l 1,26,27
 1050 25 1050 25 970.5 3.5 c 128,-1,28
 891 -18 891 -18 788 -18 c 0,0,1
EndSplineSet
EndChar

StartChar: D
Encoding: 68 68 38
Width: 1486
GlyphClass: 2
Flags: W
LayerCount: 2
Fore
SplineSet
490 1126 m 1,0,-1
 490 216 l 1,1,-1
 637 216 l 2,2,3
 852 216 852 216 959.5 332 c 128,-1,4
 1067 448 1067 448 1067 671 c 0,5,6
 1067 909 1067 909 956 1017.5 c 128,-1,7
 845 1126 845 1126 611 1126 c 2,8,-1
 490 1126 l 1,0,-1
202 0 m 1,9,-1
 202 1336 l 1,10,-1
 600 1336 l 2,11,12
 771 1336 771 1336 907.5 1296 c 128,-1,13
 1044 1256 1044 1256 1144.5 1176.5 c 128,-1,14
 1245 1097 1245 1097 1299.5 970 c 128,-1,15
 1354 843 1354 843 1354 676 c 0,16,17
 1354 353 1354 353 1157.5 176.5 c 128,-1,18
 961 0 961 0 623 0 c 2,19,-1
 202 0 l 1,9,-1
EndSplineSet
EndChar

StartChar: E
Encoding: 69 69 39
Width: 1164
GlyphClass: 2
Flags: W
LayerCount: 2
Fore
SplineSet
490 1126 m 1,0,-1
 490 805 l 1,1,-1
 994 805 l 1,2,-1
 994 595 l 1,3,-1
 490 595 l 1,4,-1
 490 216 l 1,5,-1
 1042 216 l 1,6,-1
 1025 0 l 1,7,-1
 202 0 l 1,8,-1
 202 1336 l 1,9,-1
 1032 1336 l 1,10,-1
 1021 1126 l 1,11,-1
 490 1126 l 1,0,-1
EndSplineSet
EndChar

StartChar: F
Encoding: 70 70 40
Width: 1147
GlyphClass: 2
Flags: W
LayerCount: 2
Fore
SplineSet
490 1116 m 1,0,-1
 490 765 l 1,1,-1
 986 765 l 1,2,-1
 986 556 l 1,3,-1
 490 556 l 1,4,-1
 490 0 l 1,5,-1
 202 0 l 1,6,-1
 202 1336 l 1,7,-1
 1031 1336 l 1,8,-1
 1019 1116 l 1,9,-1
 490 1116 l 1,0,-1
EndSplineSet
EndChar

StartChar: G
Encoding: 71 71 41
Width: 1391
GlyphClass: 2
Flags: W
LayerCount: 2
Fore
SplineSet
778 -18 m 0,0,1
 479 -18 479 -18 305.5 167.5 c 128,-1,2
 132 353 132 353 132 672 c 0,3,4
 132 996 132 996 309.5 1176.5 c 128,-1,5
 487 1357 487 1357 804 1357 c 0,6,7
 1015 1357 1015 1357 1223 1253 c 1,8,-1
 1134 1042 l 1,9,10
 971 1122 971 1122 809 1129 c 1,11,12
 616 1136 616 1136 518 1015.5 c 128,-1,13
 420 895 420 895 420 670 c 0,14,15
 420 449 420 449 511 331 c 128,-1,16
 602 213 602 213 789 213 c 0,17,18
 906 213 906 213 994 245 c 1,19,-1
 994 519 l 1,20,-1
 725 519 l 1,21,-1
 725 727 l 1,22,-1
 1241 727 l 1,23,-1
 1241 82 l 1,24,25
 1124 31 1124 31 1017 6.5 c 128,-1,26
 910 -18 910 -18 778 -18 c 0,0,1
EndSplineSet
EndChar

StartChar: H
Encoding: 72 72 42
Width: 1547
GlyphClass: 2
Flags: W
LayerCount: 2
Fore
SplineSet
490 793 m 1,0,-1
 1057 793 l 1,1,-1
 1057 1336 l 1,2,-1
 1345 1336 l 1,3,-1
 1345 0 l 1,4,-1
 1057 0 l 1,5,-1
 1057 578 l 1,6,-1
 490 578 l 1,7,-1
 490 0 l 1,8,-1
 202 0 l 1,9,-1
 202 1336 l 1,10,-1
 490 1336 l 1,11,-1
 490 793 l 1,0,-1
EndSplineSet
EndChar

StartChar: I
Encoding: 73 73 43
Width: 692
GlyphClass: 2
Flags: W
LayerCount: 2
Fore
SplineSet
202 0 m 1,0,-1
 202 1336 l 1,1,-1
 490 1336 l 1,2,-1
 490 0 l 1,3,-1
 202 0 l 1,0,-1
EndSplineSet
EndChar

StartChar: J
Encoding: 74 74 44
Width: 780
GlyphClass: 2
Flags: W
LayerCount: 2
Fore
SplineSet
40 -285 m 1,0,-1
 28 -75 l 1,1,2
 167 -70 167 -70 228.5 -25.5 c 128,-1,3
 290 19 290 19 290 126 c 2,4,-1
 290 1336 l 1,5,-1
 578 1336 l 1,6,-1
 578 144 l 2,7,8
 578 -76 578 -76 446 -179.5 c 128,-1,9
 314 -283 314 -283 40 -285 c 1,0,-1
EndSplineSet
EndChar

StartChar: K
Encoding: 75 75 45
Width: 1361
GlyphClass: 2
Flags: W
LayerCount: 2
Fore
SplineSet
958 1336 m 1,0,-1
 1290 1336 l 1,1,-1
 798 732 l 1,2,-1
 1300 0 l 1,3,-1
 974 0 l 1,4,-1
 561 611 l 1,5,-1
 490 537 l 1,6,-1
 490 0 l 1,7,-1
 202 0 l 1,8,-1
 202 1336 l 1,9,-1
 490 1336 l 1,10,-1
 490 775 l 1,11,-1
 958 1336 l 1,0,-1
EndSplineSet
EndChar

StartChar: L
Encoding: 76 76 46
Width: 1103
GlyphClass: 2
Flags: W
LayerCount: 2
Fore
SplineSet
1023 216 m 1,0,-1
 1009 0 l 1,1,-1
 202 0 l 1,2,-1
 202 1336 l 1,3,-1
 490 1336 l 1,4,-1
 490 216 l 1,5,-1
 1023 216 l 1,0,-1
EndSplineSet
EndChar

StartChar: M
Encoding: 77 77 47
Width: 1748
GlyphClass: 2
Flags: W
LayerCount: 2
Fore
SplineSet
1265 1336 m 1,0,-1
 1546 1336 l 1,1,-1
 1546 0 l 1,2,-1
 1280 0 l 1,3,-1
 1280 487 l 1,4,-1
 1295 880 l 1,5,-1
 970 136 l 1,6,-1
 769 136 l 1,7,-1
 453 886 l 1,8,-1
 468 484 l 1,9,-1
 468 0 l 1,10,-1
 202 0 l 1,11,-1
 202 1336 l 1,12,-1
 488 1336 l 1,13,-1
 874 421 l 1,14,-1
 1265 1336 l 1,0,-1
EndSplineSet
EndChar

StartChar: N
Encoding: 78 78 48
Width: 1541
GlyphClass: 2
Flags: W
LayerCount: 2
Fore
SplineSet
1087 350 m 1,0,1
 1068 787 1068 787 1068 795 c 2,2,-1
 1068 1336 l 1,3,-1
 1339 1336 l 1,4,-1
 1339 0 l 1,5,-1
 1036 0 l 1,6,-1
 451 961 l 1,7,8
 479 430 479 430 479 409 c 2,9,-1
 479 0 l 1,10,-1
 202 0 l 1,11,-1
 202 1336 l 1,12,-1
 494 1336 l 1,13,-1
 1087 350 l 1,0,1
EndSplineSet
EndChar

StartChar: O
Encoding: 79 79 49
Width: 1566
GlyphClass: 2
Flags: W
LayerCount: 2
Fore
SplineSet
784 -18 m 128,-1,1
 486 -18 486 -18 309 165 c 128,-1,2
 132 348 132 348 132 669 c 0,3,4
 132 992 132 992 309.5 1174.5 c 128,-1,5
 487 1357 487 1357 784 1357 c 128,-1,6
 1081 1357 1081 1357 1257.5 1174.5 c 128,-1,7
 1434 992 1434 992 1434 669 c 0,8,9
 1434 348 1434 348 1258 165 c 128,-1,0
 1082 -18 1082 -18 784 -18 c 128,-1,1
784 1127 m 128,-1,11
 615 1127 615 1127 517.5 1002.5 c 128,-1,12
 420 878 420 878 420 667 c 0,13,14
 420 459 420 459 517.5 334.5 c 128,-1,15
 615 210 615 210 784 210 c 128,-1,16
 953 210 953 210 1049.5 334.5 c 128,-1,17
 1146 459 1146 459 1146 667 c 0,18,19
 1146 878 1146 878 1049.5 1002.5 c 128,-1,10
 953 1127 953 1127 784 1127 c 128,-1,11
EndSplineSet
EndChar

StartChar: P
Encoding: 80 80 50
Width: 1277
GlyphClass: 2
Flags: W
LayerCount: 2
Fore
SplineSet
202 0 m 1,0,-1
 202 1336 l 1,1,-1
 673 1336 l 2,2,3
 908 1336 908 1336 1051 1230.5 c 128,-1,4
 1194 1125 1194 1125 1194 919 c 0,5,6
 1194 824 1194 824 1166.5 748 c 128,-1,7
 1139 672 1139 672 1080 610.5 c 128,-1,8
 1021 549 1021 549 917.5 515.5 c 128,-1,9
 814 482 814 482 673 482 c 0,10,11
 568 482 568 482 490 489 c 1,12,-1
 490 0 l 1,13,-1
 202 0 l 1,0,-1
647 677 m 0,14,15
 706 677 706 677 751 686 c 128,-1,16
 796 695 796 695 823.5 713 c 128,-1,17
 851 731 851 731 868.5 751 c 128,-1,18
 886 771 886 771 893.5 801 c 128,-1,19
 901 831 901 831 903.5 854 c 128,-1,20
 906 877 906 877 906 911 c 0,21,22
 906 1019 906 1019 849.5 1072.5 c 128,-1,23
 793 1126 793 1126 674 1126 c 2,24,-1
 490 1126 l 1,25,-1
 490 678 l 1,26,27
 518 677 518 677 647 677 c 0,14,15
EndSplineSet
EndChar

StartChar: Q
Encoding: 81 81 51
Width: 1562
GlyphClass: 2
Flags: W
LayerCount: 2
Fore
SplineSet
1329 -313 m 1,0,-1
 1160 -460 l 1,1,2
 1028 -366 1028 -366 838 -16 c 1,3,4
 800 -18 800 -18 779 -18 c 0,5,6
 482 -18 482 -18 307 165.5 c 128,-1,7
 132 349 132 349 132 671 c 0,8,9
 132 994 132 994 307.5 1175.5 c 128,-1,10
 483 1357 483 1357 780 1357 c 128,-1,11
 1077 1357 1077 1357 1253.5 1175 c 128,-1,12
 1430 993 1430 993 1430 671 c 0,13,14
 1430 443 1430 443 1337 281 c 128,-1,15
 1244 119 1244 119 1077 43 c 1,16,17
 1078 41 1078 41 1098.5 6.5 c 128,-1,18
 1119 -28 1119 -28 1128 -42.5 c 128,-1,19
 1137 -57 1137 -57 1159.5 -92.5 c 128,-1,20
 1182 -128 1182 -128 1198.5 -151 c 128,-1,21
 1215 -174 1215 -174 1237.5 -205.5 c 128,-1,22
 1260 -237 1260 -237 1283 -263.5 c 128,-1,23
 1306 -290 1306 -290 1329 -313 c 1,0,-1
780 213 m 0,24,25
 961 213 961 213 1051.5 334 c 128,-1,26
 1142 455 1142 455 1142 669 c 0,27,28
 1142 885 1142 885 1051.5 1007 c 128,-1,29
 961 1129 961 1129 781 1129 c 128,-1,30
 601 1129 601 1129 510.5 1006.5 c 128,-1,31
 420 884 420 884 420 669 c 0,32,33
 420 456 420 456 510 334.5 c 128,-1,34
 600 213 600 213 780 213 c 0,24,25
EndSplineSet
EndChar

StartChar: R
Encoding: 82 82 52
Width: 1406
GlyphClass: 2
Flags: W
LayerCount: 2
Fore
SplineSet
724 742 m 2,0,1
 858 742 858 742 914 789.5 c 128,-1,2
 970 837 970 837 970 943 c 0,3,4
 970 1035 970 1035 913 1080.5 c 128,-1,5
 856 1126 856 1126 734 1126 c 2,6,-1
 490 1126 l 1,7,-1
 490 742 l 1,8,-1
 724 742 l 2,0,1
202 0 m 1,9,-1
 202 1336 l 1,10,-1
 721 1336 l 2,11,12
 818 1336 818 1336 895 1325.5 c 128,-1,13
 972 1315 972 1315 1041.5 1288.5 c 128,-1,14
 1111 1262 1111 1262 1157.5 1218.5 c 128,-1,15
 1204 1175 1204 1175 1231 1106.5 c 128,-1,16
 1258 1038 1258 1038 1258 947 c 0,17,18
 1258 820 1258 820 1187.5 727 c 128,-1,19
 1117 634 1117 634 1001 587 c 1,20,21
 1041 535 1041 535 1111 391 c 1,22,-1
 1308 0 l 1,23,-1
 1005 0 l 1,24,-1
 842 331 l 1,25,26
 814 391 814 391 742 530 c 1,27,28
 725 531 725 531 670 531 c 2,29,-1
 490 531 l 1,30,-1
 490 0 l 1,31,-1
 202 0 l 1,9,-1
EndSplineSet
EndChar

StartChar: S
Encoding: 83 83 53
Width: 1182
GlyphClass: 2
Flags: W
LayerCount: 2
Fore
SplineSet
570 -18 m 0,0,1
 310 -18 310 -18 125 87 c 1,2,-1
 208 303 l 1,3,4
 267 265 267 265 375 237.5 c 128,-1,5
 483 210 483 210 580 210 c 0,6,7
 687 210 687 210 738.5 252 c 128,-1,8
 790 294 790 294 790 385 c 0,9,10
 790 494 790 494 638 544 c 2,11,-1
 414 617 l 2,12,13
 288 658 288 658 218 747.5 c 128,-1,14
 148 837 148 837 148 975 c 0,15,16
 148 1159 148 1159 276.5 1258.5 c 128,-1,17
 405 1358 405 1358 613 1358 c 0,18,19
 856 1358 856 1358 1044 1251 c 1,20,-1
 962 1035 l 1,21,22
 748 1128 748 1128 624 1128 c 0,23,24
 521 1128 521 1128 469 1093 c 128,-1,25
 417 1058 417 1058 417 980 c 0,26,27
 417 885 417 885 515 853 c 2,28,-1
 723 783 l 2,29,30
 903 723 903 723 983 631.5 c 128,-1,31
 1063 540 1063 540 1063 381 c 0,32,33
 1063 189 1063 189 928 85.5 c 128,-1,34
 793 -18 793 -18 570 -18 c 0,0,1
EndSplineSet
EndChar

StartChar: T
Encoding: 84 84 54
Width: 1164
GlyphClass: 2
Flags: W
LayerCount: 2
Fore
SplineSet
1099 1336 m 1,0,-1
 1099 1126 l 1,1,-1
 728 1126 l 1,2,-1
 728 0 l 1,3,-1
 440 0 l 1,4,-1
 440 1126 l 1,5,-1
 65 1126 l 1,6,-1
 65 1336 l 1,7,-1
 1099 1336 l 1,0,-1
EndSplineSet
EndChar

StartChar: U
Encoding: 85 85 55
Width: 1440
GlyphClass: 2
Flags: W
LayerCount: 2
Fore
SplineSet
720 -18 m 0,0,1
 460 -18 460 -18 314.5 115 c 128,-1,2
 169 248 169 248 169 485 c 2,3,-1
 169 1336 l 1,4,-1
 457 1336 l 1,5,-1
 457 504 l 2,6,7
 457 213 457 213 720 213 c 0,8,9
 855 213 855 213 919 285 c 128,-1,10
 983 357 983 357 983 505 c 2,11,-1
 983 1336 l 1,12,-1
 1271 1336 l 1,13,-1
 1271 484 l 2,14,15
 1271 249 1271 249 1125 115.5 c 128,-1,16
 979 -18 979 -18 720 -18 c 0,0,1
EndSplineSet
EndChar

StartChar: V
Encoding: 86 86 56
Width: 1292
GlyphClass: 2
Flags: W
LayerCount: 2
Fore
SplineSet
814 0 m 1,0,-1
 486 0 l 1,1,-1
 43 1336 l 1,2,-1
 351 1336 l 1,3,-1
 572 607 l 1,4,-1
 654 328 l 1,5,-1
 734 608 l 1,6,-1
 951 1336 l 1,7,-1
 1257 1336 l 1,8,-1
 814 0 l 1,0,-1
EndSplineSet
EndChar

StartChar: W
Encoding: 87 87 57
Width: 1956
GlyphClass: 2
Flags: W
LayerCount: 2
Fore
SplineSet
851 1330 m 1,0,-1
 1110 1330 l 1,1,-1
 1376 373 l 1,2,-1
 1620 1336 l 1,3,-1
 1901 1336 l 1,4,-1
 1518 0 l 1,5,-1
 1246 0 l 1,6,-1
 981 963 l 1,7,-1
 695 0 l 1,8,-1
 425 0 l 1,9,-1
 59 1336 l 1,10,-1
 341 1336 l 1,11,-1
 572 376 l 1,12,-1
 851 1330 l 1,0,-1
EndSplineSet
EndChar

StartChar: X
Encoding: 88 88 58
Width: 1256
GlyphClass: 2
Flags: W
LayerCount: 2
Fore
SplineSet
788 682 m 1,0,-1
 1246 0 l 1,1,-1
 934 0 l 1,2,-1
 624 456 l 1,3,-1
 306 0 l 1,4,-1
 10 0 l 1,5,-1
 469 687 l 1,6,-1
 42 1336 l 1,7,-1
 347 1336 l 1,8,-1
 636 880 l 1,9,-1
 933 1336 l 1,10,-1
 1224 1336 l 1,11,-1
 788 682 l 1,0,-1
EndSplineSet
EndChar

StartChar: Y
Encoding: 89 89 59
Width: 1231
GlyphClass: 2
Flags: W
LayerCount: 2
Fore
SplineSet
623 749 m 1,0,-1
 910 1336 l 1,1,-1
 1208 1336 l 1,2,-1
 764 499 l 1,3,-1
 764 0 l 1,4,-1
 482 0 l 1,5,-1
 482 495 l 1,6,-1
 39 1336 l 1,7,-1
 342 1336 l 1,8,-1
 623 749 l 1,0,-1
EndSplineSet
EndChar

StartChar: Z
Encoding: 90 90 60
Width: 1202
GlyphClass: 2
Flags: W
LayerCount: 2
Fore
SplineSet
140 1336 m 1,0,-1
 1062 1336 l 1,1,-1
 1062 1150 l 1,2,-1
 503 216 l 1,3,-1
 1071 216 l 1,4,-1
 1071 0 l 1,5,-1
 133 0 l 1,6,-1
 133 172 l 1,7,-1
 722 1126 l 1,8,-1
 140 1126 l 1,9,-1
 140 1336 l 1,0,-1
EndSplineSet
EndChar

StartChar: bracketleft
Encoding: 91 91 61
Width: 756
GlyphClass: 2
Flags: W
LayerCount: 2
Fore
SplineSet
443 1254 m 1,0,-1
 443 73 l 1,1,-1
 630 73 l 1,2,-1
 630 -108 l 1,3,-1
 198 -108 l 1,4,-1
 198 1434 l 1,5,-1
 630 1434 l 1,6,-1
 630 1254 l 1,7,-1
 443 1254 l 1,0,-1
EndSplineSet
EndChar

StartChar: backslash
Encoding: 92 92 62
Width: 843
GlyphClass: 2
Flags: W
LayerCount: 2
Fore
SplineSet
539 0 m 1,0,-1
 98 1336 l 1,1,-1
 329 1336 l 1,2,-1
 765 0 l 1,3,-1
 539 0 l 1,0,-1
EndSplineSet
EndChar

StartChar: bracketright
Encoding: 93 93 63
Width: 756
GlyphClass: 2
Flags: W
LayerCount: 2
Fore
SplineSet
313 72 m 1,0,-1
 313 1253 l 1,1,-1
 126 1253 l 1,2,-1
 126 1434 l 1,3,-1
 558 1434 l 1,4,-1
 558 -108 l 1,5,-1
 126 -108 l 1,6,-1
 126 72 l 1,7,-1
 313 72 l 1,0,-1
EndSplineSet
EndChar

StartChar: asciicircum
Encoding: 94 94 64
Width: 1081
GlyphClass: 2
Flags: W
LayerCount: 2
Fore
SplineSet
46 491 m 1,0,-1
 465 1347 l 1,1,-1
 590 1347 l 1,2,-1
 1035 491 l 1,3,-1
 826 491 l 1,4,-1
 529 1075 l 1,5,-1
 255 491 l 1,6,-1
 46 491 l 1,0,-1
EndSplineSet
EndChar

StartChar: underscore
Encoding: 95 95 65
Width: 1012
GlyphClass: 2
Flags: W
LayerCount: 2
Fore
SplineSet
49 -175 m 1,0,-1
 49 0 l 1,1,-1
 963 0 l 1,2,-1
 963 -175 l 1,3,-1
 49 -175 l 1,0,-1
EndSplineSet
EndChar

StartChar: grave
Encoding: 96 96 66
Width: 447
GlyphClass: 2
Flags: W
LayerCount: 2
Fore
SplineSet
291 1081 m 1,0,-1
 -20 1442 l 1,1,-1
 279 1442 l 1,2,-1
 456 1081 l 1,3,-1
 291 1081 l 1,0,-1
EndSplineSet
EndChar

StartChar: a
Encoding: 97 97 67
Width: 1137
GlyphClass: 2
Flags: W
LayerCount: 2
Fore
SplineSet
464 -18 m 0,0,1
 324 -18 324 -18 234.5 59 c 128,-1,2
 145 136 145 136 145 284 c 0,3,4
 145 445 145 445 248.5 522.5 c 128,-1,5
 352 600 352 600 553 621 c 1,6,7
 697 638 697 638 723 641 c 1,8,-1
 723 689 l 2,9,10
 723 776 723 776 686.5 814 c 128,-1,11
 650 852 650 852 572 852 c 0,12,13
 509 852 509 852 415 830 c 128,-1,14
 321 808 321 808 243 776 c 1,15,16
 241 780 241 780 227 823 c 128,-1,17
 213 866 213 866 199.5 906.5 c 128,-1,18
 186 947 186 947 183 953 c 1,19,20
 392 1041 392 1041 598 1041 c 0,21,22
 797 1041 797 1041 887.5 950.5 c 128,-1,23
 978 860 978 860 978 660 c 2,24,-1
 978 0 l 1,25,-1
 788 0 l 1,26,27
 788 2 788 2 773 67 c 128,-1,28
 758 132 758 132 753 153 c 1,29,30
 699 73 699 73 631 27.5 c 128,-1,31
 563 -18 563 -18 464 -18 c 0,0,1
524 162 m 0,32,33
 596 162 596 162 650.5 202 c 128,-1,34
 705 242 705 242 722 281 c 1,35,-1
 722 482 l 1,36,37
 702 480 702 480 643 473 c 1,38,39
 514 462 514 462 457.5 418.5 c 128,-1,40
 401 375 401 375 401 287 c 0,41,42
 401 162 401 162 524 162 c 0,32,33
EndSplineSet
EndChar

StartChar: b
Encoding: 98 98 68
Width: 1218
GlyphClass: 2
Flags: W
LayerCount: 2
Fore
SplineSet
689 -18 m 0,0,1
 595 -18 595 -18 519.5 23 c 128,-1,2
 444 64 444 64 400 127 c 1,3,-1
 380 1 l 1,4,-1
 159 1 l 1,5,-1
 159 1376 l 1,6,-1
 415 1393 l 1,7,-1
 415 1079 l 2,8,9
 415 1050 415 1050 412.5 989.5 c 128,-1,10
 410 929 410 929 409 908 c 1,11,12
 520 1041 520 1041 693 1041 c 0,13,14
 883 1041 883 1041 991.5 895.5 c 128,-1,15
 1100 750 1100 750 1100 519 c 0,16,17
 1100 279 1100 279 988.5 130.5 c 128,-1,18
 877 -18 877 -18 689 -18 c 0,0,1
632 179 m 0,19,20
 729 179 729 179 786.5 265 c 128,-1,21
 844 351 844 351 844 516 c 128,-1,22
 844 681 844 681 788.5 763 c 128,-1,23
 733 845 733 845 635 845 c 0,24,25
 413 845 413 845 410 527 c 1,26,27
 410 345 410 345 466 262 c 128,-1,28
 522 179 522 179 632 179 c 0,19,20
EndSplineSet
EndChar

StartChar: c
Encoding: 99 99 69
Width: 993
GlyphClass: 2
Flags: W
LayerCount: 2
Fore
SplineSet
601 -18 m 0,0,1
 377 -18 377 -18 248 121 c 128,-1,2
 119 260 119 260 119 516 c 0,3,4
 119 764 119 764 254 902.5 c 128,-1,5
 389 1041 389 1041 604 1041 c 0,6,7
 774 1041 774 1041 905 959 c 1,8,-1
 845 781 l 1,9,10
 837 784 837 784 815 796.5 c 128,-1,11
 793 809 793 809 775 817 c 128,-1,12
 757 825 757 825 719 832.5 c 128,-1,13
 681 840 681 840 634 840 c 1,14,15
 518 834 518 834 446.5 752.5 c 128,-1,16
 375 671 375 671 375 513 c 0,17,18
 375 354 375 354 443.5 271.5 c 128,-1,19
 512 189 512 189 627 183 c 0,20,21
 738 177 738 177 862 247 c 1,22,-1
 895 64 l 1,23,24
 891 62 891 62 870 48.5 c 128,-1,25
 849 35 849 35 829.5 26 c 128,-1,26
 810 17 810 17 777.5 5.5 c 128,-1,27
 745 -6 745 -6 700 -12 c 128,-1,28
 655 -18 655 -18 601 -18 c 0,0,1
EndSplineSet
EndChar

StartChar: d
Encoding: 100 100 70
Width: 1218
GlyphClass: 2
Flags: W
LayerCount: 2
Fore
SplineSet
534 -17 m 0,0,1
 341 -17 341 -17 229.5 129.5 c 128,-1,2
 118 276 118 276 118 517 c 0,3,4
 118 753 118 753 229 897 c 128,-1,5
 340 1041 340 1041 534 1041 c 0,6,7
 719 1041 719 1041 811 920 c 1,8,9
 803 1006 803 1006 803 1052 c 2,10,-1
 803 1376 l 1,11,-1
 1059 1393 l 1,12,-1
 1059 0 l 1,13,-1
 839 0 l 1,14,-1
 815 117 l 1,15,16
 729 -17 729 -17 534 -17 c 0,0,1
590 179 m 0,17,18
 698 179 698 179 755.5 254.5 c 128,-1,19
 813 330 813 330 814 497 c 1,20,21
 814 680 814 680 757 761.5 c 128,-1,22
 700 843 700 843 588 843 c 0,23,24
 490 843 490 843 432 760.5 c 128,-1,25
 374 678 374 678 374 512 c 0,26,27
 374 347 374 347 432 263 c 128,-1,28
 490 179 490 179 590 179 c 0,17,18
EndSplineSet
EndChar

StartChar: e
Encoding: 101 101 71
Width: 1119
GlyphClass: 2
Flags: W
LayerCount: 2
Fore
SplineSet
384 613 m 1,0,-1
 778 613 l 1,1,2
 775 724 775 724 724.5 789 c 128,-1,3
 674 854 674 854 587 854 c 0,4,5
 507 854 507 854 452.5 792 c 128,-1,6
 398 730 398 730 384 613 c 1,0,-1
623 -18 m 0,7,8
 387 -18 387 -18 253 123.5 c 128,-1,9
 119 265 119 265 119 512 c 0,10,11
 119 752 119 752 245 896 c 128,-1,12
 371 1040 371 1040 586 1041 c 0,13,14
 791 1041 791 1041 904.5 908 c 128,-1,15
 1018 775 1018 775 1018 558 c 0,16,17
 1018 543 1018 543 1011 448 c 1,18,-1
 378 448 l 1,19,20
 398 174 398 174 647 174 c 0,21,22
 677 174 677 174 705.5 176.5 c 128,-1,23
 734 179 734 179 756 182 c 128,-1,24
 778 185 778 185 802 191 c 128,-1,25
 826 197 826 197 840.5 201 c 128,-1,26
 855 205 855 205 875 213 c 128,-1,27
 895 221 895 221 902 224 c 128,-1,28
 909 227 909 227 926 235 c 128,-1,29
 943 243 943 243 944 243 c 2,30,-1
 979 63 l 1,31,32
 909 18 909 18 826 0 c 128,-1,33
 743 -18 743 -18 623 -18 c 0,7,8
EndSplineSet
EndChar

StartChar: f
Encoding: 102 102 72
Width: 794
GlyphClass: 2
Flags: W
LayerCount: 2
Fore
SplineSet
223 0 m 1,0,-1
 223 839 l 1,1,-1
 77 839 l 1,2,-1
 82 998 l 1,3,-1
 223 1015 l 1,4,-1
 223 1061 l 2,5,6
 223 1166 223 1166 248 1238.5 c 128,-1,7
 273 1311 273 1311 321 1349.5 c 128,-1,8
 369 1388 369 1388 427.5 1404 c 128,-1,9
 486 1420 486 1420 564 1420 c 0,10,11
 654 1420 654 1420 752 1401 c 1,12,-1
 729 1208 l 1,13,14
 663 1219 663 1219 610 1219 c 0,15,16
 541 1219 541 1219 510 1191 c 128,-1,17
 479 1163 479 1163 479 1074 c 2,18,-1
 479 1016 l 1,19,-1
 707 1016 l 1,20,-1
 707 839 l 1,21,-1
 479 839 l 1,22,-1
 479 0 l 1,23,-1
 223 0 l 1,0,-1
EndSplineSet
EndChar

StartChar: g
Encoding: 103 103 73
Width: 1212
GlyphClass: 2
Flags: W
LayerCount: 2
Fore
SplineSet
598 195 m 0,0,1
 660 195 660 195 702.5 217 c 128,-1,2
 745 239 745 239 768 283 c 128,-1,3
 791 327 791 327 800.5 380.5 c 128,-1,4
 810 434 810 434 811 508 c 1,5,-1
 811 536 l 2,6,7
 811 688 811 688 763.5 765 c 128,-1,8
 716 842 716 842 611 843 c 1,9,10
 491 843 491 843 433 759 c 128,-1,11
 375 675 375 675 375 526 c 0,12,13
 375 382 375 382 433 288.5 c 128,-1,14
 491 195 491 195 598 195 c 0,0,1
525 -439 m 0,15,16
 372 -439 372 -439 273 -402 c 1,17,-1
 289 -207 l 1,18,19
 307 -209 307 -209 342.5 -217.5 c 128,-1,20
 378 -226 378 -226 416.5 -231.5 c 128,-1,21
 455 -237 455 -237 500 -237 c 0,22,23
 654 -237 654 -237 731 -145 c 128,-1,24
 808 -53 808 -53 808 87 c 0,25,26
 808 131 808 131 805 156 c 1,27,28
 775 87 775 87 705.5 43.5 c 128,-1,29
 636 0 636 0 537 0 c 0,30,31
 344 0 344 0 231.5 143 c 128,-1,32
 119 286 119 286 119 519 c 0,33,34
 119 762 119 762 241 901.5 c 128,-1,35
 363 1041 363 1041 546 1041 c 0,36,37
 648 1041 648 1041 711.5 1008 c 128,-1,38
 775 975 775 975 816 893 c 1,39,-1
 829 1017 l 1,40,-1
 1056 1017 l 1,41,-1
 1056 185 l 2,42,43
 1056 77 1056 77 1037.5 -15 c 128,-1,44
 1019 -107 1019 -107 978 -186 c 128,-1,45
 937 -265 937 -265 876 -320.5 c 128,-1,46
 815 -376 815 -376 725.5 -407.5 c 128,-1,47
 636 -439 636 -439 525 -439 c 0,15,16
EndSplineSet
EndChar

StartChar: h
Encoding: 104 104 74
Width: 1200
GlyphClass: 2
Flags: W
LayerCount: 2
Fore
SplineSet
159 1376 m 1,0,-1
 415 1393 l 1,1,-1
 415 1102 l 2,2,3
 415 1100 415 1100 408 918 c 1,4,5
 525 1041 525 1041 704 1041 c 0,6,7
 870 1041 870 1041 963.5 942 c 128,-1,8
 1057 843 1057 843 1057 641 c 2,9,-1
 1057 0 l 1,10,-1
 801 0 l 1,11,-1
 801 618 l 2,12,13
 801 738 801 738 767 791 c 128,-1,14
 733 844 733 844 648 844 c 0,15,16
 593 844 593 844 551.5 827 c 128,-1,17
 510 810 510 810 483.5 780 c 128,-1,18
 457 750 457 750 441 704.5 c 128,-1,19
 425 659 425 659 418.5 608 c 128,-1,20
 412 557 412 557 412 491 c 2,21,-1
 412 0 l 1,22,-1
 159 0 l 1,23,-1
 159 1376 l 1,0,-1
EndSplineSet
EndChar

StartChar: i
Encoding: 105 105 75
Width: 574
GlyphClass: 2
Flags: W
LayerCount: 2
Fore
SplineSet
159 0 m 1,0,-1
 159 1016 l 1,1,-1
 415 1016 l 1,2,-1
 415 0 l 1,3,-1
 159 0 l 1,0,-1
159 1157 m 1,4,-1
 159 1375 l 1,5,-1
 415 1375 l 1,6,-1
 415 1157 l 1,7,-1
 159 1157 l 1,4,-1
EndSplineSet
EndChar

StartChar: j
Encoding: 106 106 76
Width: 629
GlyphClass: 2
Flags: W
LayerCount: 2
Fore
SplineSet
217 1157 m 1,0,-1
 217 1375 l 1,1,-1
 470 1375 l 1,2,-1
 470 1157 l 1,3,-1
 217 1157 l 1,0,-1
30 -379 m 1,4,-1
 1 -187 l 1,5,-1
 63 -187 l 2,6,7
 106 -187 106 -187 133 -181.5 c 128,-1,8
 160 -176 160 -176 177.5 -165 c 128,-1,9
 195 -154 195 -154 203.5 -130.5 c 128,-1,10
 212 -107 212 -107 214.5 -79.5 c 128,-1,11
 217 -52 217 -52 217 -4 c 2,12,-1
 217 1017 l 1,13,-1
 470 1017 l 1,14,-1
 470 40 l 2,15,16
 470 -49 470 -49 461 -111.5 c 128,-1,17
 452 -174 452 -174 428 -227.5 c 128,-1,18
 404 -281 404 -281 361.5 -312.5 c 128,-1,19
 319 -344 319 -344 252 -361.5 c 128,-1,20
 185 -379 185 -379 90 -379 c 2,21,-1
 30 -379 l 1,4,-1
EndSplineSet
EndChar

StartChar: k
Encoding: 107 107 77
Width: 1158
GlyphClass: 2
Flags: W
LayerCount: 2
Fore
SplineSet
159 1376 m 1,0,-1
 415 1392 l 1,1,-1
 415 785 l 1,2,-1
 410 582 l 1,3,-1
 772 1016 l 1,4,-1
 1095 1016 l 1,5,-1
 706 555 l 1,6,-1
 1119 0 l 1,7,-1
 818 0 l 1,8,-1
 499 432 l 1,9,-1
 415 354 l 1,10,-1
 415 0 l 1,11,-1
 159 0 l 1,12,-1
 159 1376 l 1,0,-1
EndSplineSet
EndChar

StartChar: l
Encoding: 108 108 78
Width: 729
GlyphClass: 2
Flags: W
LayerCount: 2
Fore
SplineSet
499 -13 m 0,0,1
 416 -13 416 -13 357 4 c 128,-1,2
 298 21 298 21 259.5 52.5 c 128,-1,3
 221 84 221 84 199 136 c 128,-1,4
 177 188 177 188 168 251 c 128,-1,5
 159 314 159 314 159 401 c 2,6,-1
 159 1376 l 1,7,-1
 415 1393 l 1,8,-1
 415 404 l 2,9,10
 415 306 415 306 428.5 256.5 c 128,-1,11
 442 207 442 207 465.5 192.5 c 128,-1,12
 489 178 489 178 535 178 c 0,13,14
 548 178 548 178 563.5 179.5 c 128,-1,15
 579 181 579 181 595.5 183.5 c 128,-1,16
 612 186 612 186 618 187 c 1,17,-1
 649 7 l 1,18,19
 644 5 644 5 624.5 0.5 c 128,-1,20
 605 -4 605 -4 569 -8.5 c 128,-1,21
 533 -13 533 -13 499 -13 c 0,0,1
EndSplineSet
EndChar

StartChar: m
Encoding: 109 109 79
Width: 1806
GlyphClass: 2
Flags: W
LayerCount: 2
Fore
SplineSet
415 494 m 2,0,-1
 415 0 l 1,1,-1
 159 0 l 1,2,-1
 159 1016 l 1,3,-1
 367 1016 l 1,4,-1
 391 903 l 1,5,6
 508 1041 508 1041 709 1041 c 0,7,8
 820 1041 820 1041 889.5 998 c 128,-1,9
 959 955 959 955 993 892 c 1,10,11
 1048 963 1048 963 1129.5 1002 c 128,-1,12
 1211 1041 1211 1041 1310 1041 c 0,13,14
 1484 1041 1484 1041 1573.5 938.5 c 128,-1,15
 1663 836 1663 836 1663 646 c 2,16,-1
 1663 0 l 1,17,-1
 1407 0 l 1,18,-1
 1407 579 l 2,19,20
 1407 718 1407 718 1371 781 c 128,-1,21
 1335 844 1335 844 1250 844 c 0,22,23
 1066 844 1066 844 1037 596 c 1,24,-1
 1037 0 l 1,25,-1
 781 0 l 1,26,-1
 781 590 l 2,27,28
 781 720 781 720 748.5 782 c 128,-1,29
 716 844 716 844 632 844 c 0,30,31
 578 844 578 844 538.5 826 c 128,-1,32
 499 808 499 808 475.5 779 c 128,-1,33
 452 750 452 750 438 703.5 c 128,-1,34
 424 657 424 657 419.5 608 c 128,-1,35
 415 559 415 559 415 494 c 2,0,-1
EndSplineSet
EndChar

StartChar: n
Encoding: 110 110 80
Width: 1203
GlyphClass: 2
Flags: W
LayerCount: 2
Fore
SplineSet
159 0 m 1,0,-1
 159 1016 l 1,1,-1
 367 1016 l 1,2,-1
 391 902 l 1,3,4
 535 1041 535 1041 712 1041 c 0,5,6
 885 1041 885 1041 972.5 936.5 c 128,-1,7
 1060 832 1060 832 1060 640 c 2,8,-1
 1060 0 l 1,9,-1
 804 0 l 1,10,-1
 804 612 l 1,11,12
 803 732 803 732 770 788 c 128,-1,13
 737 844 737 844 647 844 c 0,14,15
 576 844 576 844 529 820.5 c 128,-1,16
 482 797 482 797 457.5 748.5 c 128,-1,17
 433 700 433 700 424 641 c 128,-1,18
 415 582 415 582 415 496 c 2,19,-1
 415 0 l 1,20,-1
 159 0 l 1,0,-1
EndSplineSet
EndChar

StartChar: o
Encoding: 111 111 81
Width: 1198
GlyphClass: 2
Flags: W
LayerCount: 2
Fore
SplineSet
599 -18 m 0,0,1
 378 -18 378 -18 248.5 126 c 128,-1,2
 119 270 119 270 119 512 c 0,3,4
 119 762 119 762 244 901.5 c 128,-1,5
 369 1041 369 1041 599 1041 c 0,6,7
 821 1041 821 1041 950 898 c 128,-1,8
 1079 755 1079 755 1079 512 c 0,9,10
 1079 264 1079 264 953.5 123 c 128,-1,11
 828 -18 828 -18 599 -18 c 0,0,1
599 178 m 128,-1,13
 823 178 823 178 823 512 c 0,14,15
 823 844 823 844 599 844 c 128,-1,16
 375 844 375 844 375 511 c 128,-1,12
 375 178 375 178 599 178 c 128,-1,13
EndSplineSet
EndChar

StartChar: p
Encoding: 112 112 82
Width: 1222
GlyphClass: 2
Flags: W
LayerCount: 2
Fore
SplineSet
159 1016 m 1,0,-1
 380 1016 l 1,1,-1
 402 906 l 1,2,3
 449 962 449 962 532.5 1001.5 c 128,-1,4
 616 1041 616 1041 707 1041 c 0,5,6
 828 1041 828 1041 919 970 c 128,-1,7
 1010 899 1010 899 1057 779.5 c 128,-1,8
 1104 660 1104 660 1104 513 c 0,9,10
 1104 360 1104 360 1054.5 240 c 128,-1,11
 1005 120 1005 120 909 51 c 128,-1,12
 813 -18 813 -18 686 -18 c 0,13,14
 520 -18 520 -18 410 99 c 1,15,16
 415 24 415 24 415 -15 c 2,17,-1
 415 -395 l 1,18,-1
 159 -408 l 1,19,-1
 159 1016 l 1,0,-1
638 179 m 0,20,21
 735 179 735 179 791.5 265 c 128,-1,22
 848 351 848 351 848 515 c 0,23,24
 848 682 848 682 791 763 c 128,-1,25
 734 844 734 844 634 844 c 0,26,27
 416 844 416 844 413 530 c 1,28,29
 413 345 413 345 469.5 262 c 128,-1,30
 526 179 526 179 638 179 c 0,20,21
EndSplineSet
EndChar

StartChar: q
Encoding: 113 113 83
Width: 1223
GlyphClass: 2
Flags: W
LayerCount: 2
Fore
SplineSet
1064 1016 m 1,0,-1
 1064 -393 l 1,1,-1
 808 -408 l 1,2,-1
 808 16 l 2,3,4
 808 53 808 53 811 107 c 1,5,6
 721 -18 721 -18 549 -18 c 0,7,8
 356 -18 356 -18 237 130 c 128,-1,9
 118 278 118 278 118 513 c 0,10,11
 118 747 118 747 232 894 c 128,-1,12
 346 1041 346 1041 545 1041 c 0,13,14
 721 1041 721 1041 823 907 c 1,15,-1
 839 1016 l 1,16,-1
 1064 1016 l 1,0,-1
595 177 m 0,17,18
 703 177 703 177 759.5 252 c 128,-1,19
 816 327 816 327 818 495 c 1,20,21
 818 678 818 678 761 760.5 c 128,-1,22
 704 843 704 843 592 843 c 0,23,24
 492 843 492 843 433 761 c 128,-1,25
 374 679 374 679 374 511 c 0,26,27
 374 345 374 345 433 261 c 128,-1,28
 492 177 492 177 595 177 c 0,17,18
EndSplineSet
EndChar

StartChar: r
Encoding: 114 114 84
Width: 796
GlyphClass: 2
Flags: W
LayerCount: 2
Fore
SplineSet
159 1016 m 1,0,-1
 375 1016 l 1,1,-1
 403 860 l 1,2,3
 453 931 453 931 527.5 976 c 128,-1,4
 602 1021 602 1021 687 1021 c 0,5,6
 731 1021 731 1021 758 1015 c 1,7,-1
 754 799 l 1,8,9
 710 807 710 807 670 807 c 0,10,11
 544 807 544 807 479.5 739 c 128,-1,12
 415 671 415 671 415 551 c 2,13,-1
 415 0 l 1,14,-1
 159 0 l 1,15,-1
 159 1016 l 1,0,-1
EndSplineSet
EndChar

StartChar: s
Encoding: 115 115 85
Width: 1005
GlyphClass: 2
Flags: W
LayerCount: 2
Fore
SplineSet
518 -17 m 0,0,1
 449 -17 449 -17 381.5 -2 c 128,-1,2
 314 13 314 13 266.5 35.5 c 128,-1,3
 219 58 219 58 192 73.5 c 128,-1,4
 165 89 165 89 152 99 c 1,5,-1
 198 277 l 1,6,7
 263 234 263 234 355.5 199.5 c 128,-1,8
 448 165 448 165 518 167 c 0,9,10
 590 169 590 169 621 195 c 128,-1,11
 652 221 652 221 654 275 c 0,12,13
 654 289 654 289 651 300 c 128,-1,14
 648 311 648 311 637.5 322 c 128,-1,15
 627 333 627 333 619 340.5 c 128,-1,16
 611 348 611 348 590.5 359.5 c 128,-1,17
 570 371 570 371 557.5 377 c 128,-1,18
 545 383 545 383 514 398 c 128,-1,19
 483 413 483 413 466 421 c 2,20,-1
 413 447 l 1,21,22
 274 511 274 511 218.5 572 c 128,-1,23
 163 633 163 633 162 748 c 1,24,25
 162 890 162 890 258 965.5 c 128,-1,26
 354 1041 354 1041 527 1041 c 0,27,28
 690 1041 690 1041 868 953 c 1,29,-1
 809 781 l 1,30,31
 659 854 659 854 536 854 c 0,32,33
 393 854 393 854 393 768 c 0,34,35
 393 731 393 731 420.5 710.5 c 128,-1,36
 448 690 448 690 535 652 c 0,37,38
 557 642 557 642 569 637 c 2,39,-1
 625 612 l 2,40,41
 696 581 696 581 741.5 554 c 128,-1,42
 787 527 787 527 825.5 491 c 128,-1,43
 864 455 864 455 882 410 c 128,-1,44
 900 365 900 365 900 306 c 0,45,46
 900 151 900 151 800.5 67 c 128,-1,47
 701 -17 701 -17 518 -17 c 0,0,1
EndSplineSet
EndChar

StartChar: t
Encoding: 116 116 86
Width: 816
GlyphClass: 2
Flags: W
LayerCount: 2
Fore
SplineSet
565 -13 m 0,0,1
 370 -13 370 -13 286 86.5 c 128,-1,2
 202 186 202 186 201 392 c 1,3,-1
 201 853 l 1,4,-1
 40 853 l 1,5,-1
 54 1004 l 1,6,-1
 217 1016 l 1,7,-1
 275 1268 l 1,8,-1
 457 1268 l 1,9,-1
 457 1016 l 1,10,-1
 732 1016 l 1,11,-1
 732 852 l 1,12,-1
 457 852 l 1,13,-1
 457 386 l 2,14,15
 457 269 457 269 498 220.5 c 128,-1,16
 539 172 539 172 618 172 c 0,17,18
 645 172 645 172 674.5 176 c 128,-1,19
 704 180 704 180 721 184.5 c 128,-1,20
 738 189 738 189 741 191 c 1,21,-1
 774 20 l 1,22,23
 765 16 765 16 740 9.5 c 128,-1,24
 715 3 715 3 663.5 -5 c 128,-1,25
 612 -13 612 -13 565 -13 c 0,0,1
EndSplineSet
EndChar

StartChar: u
Encoding: 117 117 87
Width: 1198
GlyphClass: 2
Flags: W
LayerCount: 2
Fore
SplineSet
1039 1016 m 1,0,-1
 1039 0 l 1,1,-1
 835 0 l 1,2,-1
 811 125 l 1,3,4
 678 -24 678 -24 491 -24 c 0,5,6
 318 -24 318 -24 230.5 80.5 c 128,-1,7
 143 185 143 185 143 377 c 2,8,-1
 143 1016 l 1,9,-1
 399 1016 l 1,10,-1
 399 404 l 2,11,12
 399 283 399 283 432.5 227.5 c 128,-1,13
 466 172 466 172 556 172 c 0,14,15
 614 172 614 172 655 188.5 c 128,-1,16
 696 205 696 205 721 232 c 128,-1,17
 746 259 746 259 760 305.5 c 128,-1,18
 774 352 774 352 778.5 401 c 128,-1,19
 783 450 783 450 783 520 c 2,20,-1
 783 1016 l 1,21,-1
 1039 1016 l 1,0,-1
EndSplineSet
EndChar

StartChar: v
Encoding: 118 118 88
Width: 1072
GlyphClass: 2
Flags: W
LayerCount: 2
Fore
SplineSet
425 0 m 1,0,-1
 28 1016 l 1,1,-1
 299 1016 l 1,2,-1
 489 472 l 2,3,4
 507 422 507 422 551 275 c 1,5,6
 596 457 596 457 602 471 c 1,7,-1
 778 1016 l 1,8,-1
 1046 1016 l 1,9,-1
 671 0 l 1,10,-1
 425 0 l 1,0,-1
EndSplineSet
EndChar

StartChar: w
Encoding: 119 119 89
Width: 1608
GlyphClass: 2
Flags: W
LayerCount: 2
Fore
SplineSet
57 1016 m 1,0,-1
 306 1016 l 1,1,-1
 485 298 l 1,2,-1
 684 1016 l 1,3,-1
 938 1016 l 1,4,5
 938 1008 938 1008 1013.5 722.5 c 128,-1,6
 1089 437 1089 437 1127 300 c 1,7,-1
 1312 1016 l 1,8,-1
 1558 1016 l 1,9,-1
 1255 0 l 1,10,-1
 1009 0 l 1,11,12
 924 332 924 332 807 749 c 1,13,-1
 592 0 l 1,14,-1
 348 0 l 1,15,-1
 57 1016 l 1,0,-1
EndSplineSet
EndChar

StartChar: x
Encoding: 120 120 90
Width: 1133
GlyphClass: 2
Flags: W
LayerCount: 2
Fore
SplineSet
569 688 m 1,0,-1
 785 1017 l 1,1,-1
 1069 1017 l 1,2,-1
 730 521 l 1,3,-1
 1080 0 l 1,4,-1
 789 0 l 1,5,-1
 569 355 l 1,6,-1
 344 0 l 1,7,-1
 57 0 l 1,8,-1
 410 520 l 1,9,-1
 74 1017 l 1,10,-1
 362 1017 l 1,11,-1
 569 688 l 1,0,-1
EndSplineSet
EndChar

StartChar: y
Encoding: 121 121 91
Width: 1103
GlyphClass: 2
Flags: W
LayerCount: 2
Fore
SplineSet
123 -392 m 1,0,-1
 111 -201 l 1,1,2
 171 -209 171 -209 223 -209 c 0,3,4
 298 -209 298 -209 336.5 -179.5 c 128,-1,5
 375 -150 375 -150 406 -68 c 0,6,7
 410 -58 410 -58 424.5 -26 c 128,-1,8
 439 6 439 6 446 28 c 1,9,-1
 60 1016 l 1,10,-1
 325 1016 l 1,11,-1
 566 297 l 1,12,-1
 780 1016 l 1,13,-1
 1046 1016 l 1,14,15
 1043 1006 1043 1006 843.5 457 c 128,-1,16
 644 -92 644 -92 641 -99 c 0,17,18
 578 -266 578 -266 489.5 -335 c 128,-1,19
 401 -404 401 -404 252 -404 c 0,20,21
 217 -404 217 -404 123 -392 c 1,0,-1
EndSplineSet
EndChar

StartChar: z
Encoding: 122 122 92
Width: 995
GlyphClass: 2
Flags: W
LayerCount: 2
Fore
SplineSet
134 1016 m 1,0,-1
 866 1016 l 1,1,-1
 866 840 l 1,2,-1
 424 192 l 1,3,-1
 882 192 l 1,4,-1
 882 0 l 1,5,-1
 112 0 l 1,6,-1
 112 158 l 1,7,-1
 579 832 l 1,8,-1
 134 832 l 1,9,-1
 134 1016 l 1,0,-1
EndSplineSet
EndChar

StartChar: braceleft
Encoding: 123 123 93
Width: 691
GlyphClass: 2
Flags: W
LayerCount: 2
Fore
SplineSet
240 277 m 2,0,1
 240 381 240 381 201.5 419.5 c 128,-1,2
 163 458 163 458 49 458 c 2,3,-1
 39 458 l 1,4,-1
 39 671 l 1,5,-1
 49 671 l 1,6,7
 168 672 168 672 204 707.5 c 128,-1,8
 240 743 240 743 240 849 c 2,9,-1
 240 1112 l 2,10,11
 240 1265 240 1265 334.5 1324 c 128,-1,12
 429 1383 429 1383 630 1383 c 2,13,-1
 640 1383 l 1,14,-1
 640 1183 l 1,15,-1
 630 1183 l 1,16,17
 538 1182 538 1182 511.5 1153 c 128,-1,18
 485 1124 485 1124 485 1037 c 2,19,-1
 485 796 l 1,20,21
 484 708 484 708 444.5 654.5 c 128,-1,22
 405 601 405 601 318 564 c 1,23,24
 485 515 485 515 485 340 c 2,25,-1
 485 97 l 2,26,27
 485 10 485 10 511 -18 c 128,-1,28
 537 -46 537 -46 630 -47 c 1,29,-1
 640 -47 l 1,30,-1
 640 -245 l 1,31,-1
 630 -245 l 2,32,33
 427 -245 427 -245 333.5 -185.5 c 128,-1,34
 240 -126 240 -126 240 30 c 2,35,-1
 240 277 l 2,0,1
EndSplineSet
EndChar

StartChar: bar
Encoding: 124 124 94
Width: 605
GlyphClass: 2
Flags: W
LayerCount: 2
Fore
SplineSet
213 -256 m 1,0,-1
 213 1456 l 1,1,-1
 414 1456 l 1,2,-1
 414 -256 l 1,3,-1
 213 -256 l 1,0,-1
EndSplineSet
EndChar

StartChar: braceright
Encoding: 125 125 95
Width: 691
GlyphClass: 2
Flags: W
LayerCount: 2
Fore
SplineSet
80 -245 m 1,0,-1
 80 -47 l 1,1,2
 172 -46 172 -46 198 -18.5 c 128,-1,3
 224 9 224 9 224 97 c 2,4,-1
 224 340 l 2,5,6
 224 429 224 429 265.5 481.5 c 128,-1,7
 307 534 307 534 392 564 c 1,8,9
 308 595 308 595 266.5 650.5 c 128,-1,10
 225 706 225 706 224 796 c 1,11,-1
 224 1037 l 2,12,13
 224 1125 224 1125 198.5 1153.5 c 128,-1,14
 173 1182 173 1182 80 1183 c 1,15,-1
 80 1383 l 1,16,17
 181 1383 181 1383 249.5 1370.5 c 128,-1,18
 318 1358 318 1358 369.5 1327 c 128,-1,19
 421 1296 421 1296 445 1241 c 128,-1,20
 469 1186 469 1186 469 1104 c 2,21,-1
 469 848 l 2,22,23
 469 744 469 744 506 708 c 128,-1,24
 543 672 543 672 661 671 c 1,25,-1
 661 458 l 1,26,27
 546 458 546 458 507.5 420.5 c 128,-1,28
 469 383 469 383 469 277 c 2,29,-1
 469 22 l 2,30,31
 469 -130 469 -130 376.5 -187.5 c 128,-1,32
 284 -245 284 -245 80 -245 c 1,0,-1
EndSplineSet
EndChar

StartChar: asciitilde
Encoding: 126 126 96
Width: 1139
GlyphClass: 2
Flags: W
LayerCount: 2
Fore
SplineSet
196 433 m 1,0,-1
 112 571 l 1,1,2
 200 750 200 750 375 750 c 0,3,4
 474 750 474 750 610 691 c 1,5,6
 736 635 736 635 797 635 c 0,7,8
 894 635 894 635 999 753 c 1,9,-1
 1077 620 l 1,10,11
 1038 547 1038 547 957.5 495 c 128,-1,12
 877 443 877 443 783 443 c 0,13,14
 724 443 724 443 674 458.5 c 128,-1,15
 624 474 624 474 547 508 c 1,16,17
 489 536 489 536 450 548.5 c 128,-1,18
 411 561 411 561 367 561 c 0,19,20
 265 561 265 561 196 433 c 1,0,-1
EndSplineSet
EndChar

StartChar: exclamdown
Encoding: 161 161 98
Width: 386
GlyphClass: 2
Flags: W
LayerCount: 2
Fore
SplineSet
324 203 m 1,0,-1
 324 -4 l 1,1,-1
 89 -4 l 1,2,-1
 89 203 l 1,3,-1
 152 913 l 1,4,-1
 266 913 l 1,5,-1
 324 203 l 1,0,-1
202 1046 m 0,6,7
 140 1046 140 1046 97.5 1089.5 c 128,-1,8
 55 1133 55 1133 55 1193 c 128,-1,9
 55 1253 55 1253 97.5 1295.5 c 128,-1,10
 140 1338 140 1338 202 1338 c 128,-1,11
 264 1338 264 1338 306 1295.5 c 128,-1,12
 348 1253 348 1253 348 1193 c 128,-1,13
 348 1133 348 1133 305.5 1089.5 c 128,-1,14
 263 1046 263 1046 202 1046 c 0,6,7
EndSplineSet
EndChar

StartChar: cent
Encoding: 162 162 99
Width: 945
GlyphClass: 2
Flags: W
LayerCount: 2
Fore
SplineSet
500 -183 m 1,0,-1
 500 47 l 1,1,2
 303 65 303 65 185 203.5 c 128,-1,3
 67 342 67 342 67 574 c 1,4,5
 68 795 68 795 190.5 925 c 128,-1,6
 313 1055 313 1055 500 1070 c 1,7,-1
 500 1266 l 1,8,-1
 605 1266 l 1,9,-1
 605 1068 l 1,10,11
 740 1055 740 1055 833 985 c 1,12,-1
 781 815 l 1,13,14
 710 865 710 865 605 880 c 1,15,-1
 605 235 l 1,16,17
 703 246 703 246 784 304 c 1,18,-1
 842 132 l 1,19,20
 737 58 737 58 605 47 c 1,21,-1
 605 -183 l 1,22,-1
 500 -183 l 1,0,-1
500 250 m 1,23,-1
 500 885 l 1,24,25
 412 866 412 866 359.5 789 c 128,-1,26
 307 712 307 712 307 576 c 0,27,28
 307 436 307 436 357.5 354.5 c 128,-1,29
 408 273 408 273 500 250 c 1,23,-1
EndSplineSet
EndChar

StartChar: sterling
Encoding: 163 163 100
Width: 1006
GlyphClass: 2
Flags: W
LayerCount: 2
Fore
SplineSet
71 19 m 1,0,-1
 62 208 l 1,1,2
 150 245 150 245 184 295.5 c 128,-1,3
 218 346 218 346 218 446 c 2,4,-1
 218 605 l 1,5,-1
 53 605 l 1,6,-1
 53 785 l 1,7,-1
 218 785 l 1,8,-1
 218 869 l 2,9,10
 218 979 218 979 240.5 1066.5 c 128,-1,11
 263 1154 263 1154 310 1221 c 128,-1,12
 357 1288 357 1288 436.5 1324.5 c 128,-1,13
 516 1361 516 1361 623 1361 c 0,14,15
 821 1361 821 1361 971 1234 c 1,16,-1
 867 1069 l 1,17,18
 742 1155 742 1155 633 1155 c 0,19,20
 541 1155 541 1155 499 1099 c 128,-1,21
 457 1043 457 1043 457 934 c 2,22,-1
 457 785 l 1,23,-1
 800 785 l 1,24,-1
 800 606 l 1,25,-1
 457 606 l 1,26,-1
 457 481 l 2,27,28
 457 315 457 315 374 229 c 1,29,30
 384 229 384 229 400 229.5 c 128,-1,31
 416 230 416 230 428.5 230 c 128,-1,32
 441 230 441 230 442 230 c 2,33,-1
 989 230 l 1,34,-1
 983 19 l 1,35,-1
 71 19 l 1,0,-1
EndSplineSet
EndChar

StartChar: currency
Encoding: 164 164 101
Width: 1017
GlyphClass: 2
Flags: W
LayerCount: 2
Fore
SplineSet
999 308 m 1,0,-1
 906 210 l 1,1,-1
 739 366 l 1,2,3
 638 291 638 291 519 291 c 0,4,5
 393 291 393 291 296 365 c 1,6,-1
 136 211 l 1,7,-1
 38 306 l 1,8,-1
 203 464 l 1,9,10
 139 564 139 564 139 675 c 128,-1,11
 139 786 139 786 203 887 c 1,12,-1
 37 1046 l 1,13,-1
 136 1142 l 1,14,-1
 298 987 l 1,15,16
 397 1060 397 1060 519 1060 c 128,-1,17
 641 1060 641 1060 739 985 c 1,18,-1
 906 1142 l 1,19,-1
 1000 1045 l 1,20,-1
 835 887 l 1,21,22
 899 787 899 787 899 675 c 0,23,24
 899 562 899 562 836 464 c 1,25,-1
 999 308 l 1,0,-1
519 434 m 0,26,27
 618 434 618 434 687.5 504.5 c 128,-1,28
 757 575 757 575 757 675 c 128,-1,29
 757 775 757 775 687 846 c 128,-1,30
 617 917 617 917 519 917 c 0,31,32
 422 917 422 917 352.5 846 c 128,-1,33
 283 775 283 775 283 675 c 128,-1,34
 283 575 283 575 352 504.5 c 128,-1,35
 421 434 421 434 519 434 c 0,26,27
EndSplineSet
EndChar

StartChar: yen
Encoding: 165 165 102
Width: 1046
GlyphClass: 2
Flags: W
LayerCount: 2
Fore
SplineSet
413 422 m 1,0,-1
 413 527 l 1,1,-1
 108 527 l 1,2,-1
 108 683 l 1,3,-1
 337 683 l 1,4,-1
 -51 1336 l 1,5,-1
 226 1336 l 1,6,-1
 537 784 l 1,7,-1
 847 1336 l 1,8,-1
 1119 1336 l 1,9,-1
 738 683 l 1,10,-1
 975 683 l 1,11,-1
 975 527 l 1,12,-1
 666 527 l 1,13,-1
 666 422 l 1,14,-1
 975 422 l 1,15,-1
 975 257 l 1,16,-1
 666 257 l 1,17,-1
 666 0 l 1,18,-1
 413 0 l 1,19,-1
 413 257 l 1,20,-1
 108 257 l 1,21,-1
 108 422 l 1,22,-1
 413 422 l 1,0,-1
EndSplineSet
EndChar

StartChar: brokenbar
Encoding: 166 166 103
Width: 718
GlyphClass: 2
Flags: W
LayerCount: 2
Fore
SplineSet
266 -337 m 1,0,-1
 266 331 l 1,1,-1
 467 331 l 1,2,-1
 467 -337 l 1,3,-1
 266 -337 l 1,0,-1
266 739 m 1,4,-1
 266 1406 l 1,5,-1
 467 1406 l 1,6,-1
 467 739 l 1,7,-1
 266 739 l 1,4,-1
EndSplineSet
EndChar

StartChar: dieresis
Encoding: 168 168 104
Width: 679
GlyphClass: 2
Flags: W
LayerCount: 2
Fore
SplineSet
63 1119 m 1,0,-1
 63 1364 l 1,1,-1
 257 1364 l 1,2,-1
 257 1119 l 1,3,-1
 63 1119 l 1,0,-1
439 1119 m 1,4,-1
 439 1364 l 1,5,-1
 632 1364 l 1,6,-1
 632 1119 l 1,7,-1
 439 1119 l 1,4,-1
EndSplineSet
EndChar

StartChar: copyright
Encoding: 169 169 105
Width: 1533
GlyphClass: 2
Flags: W
LayerCount: 2
Fore
SplineSet
759 236 m 0,0,1
 579 236 579 236 460.5 361.5 c 128,-1,2
 342 487 342 487 342 679 c 0,3,4
 342 870 342 870 459 999.5 c 128,-1,5
 576 1129 576 1129 758 1129 c 0,6,7
 923 1129 923 1129 1034 1054 c 1,8,-1
 981 946 l 1,9,10
 885 1003 885 1003 769 1003 c 0,11,12
 642 1003 642 1003 566.5 914.5 c 128,-1,13
 491 826 491 826 491 679 c 0,14,15
 491 535 491 535 567 448 c 128,-1,16
 643 361 643 361 772 361 c 0,17,18
 890 361 890 361 986 419 c 1,19,-1
 1035 310 l 1,20,21
 922 236 922 236 759 236 c 0,0,1
771 108 m 0,22,23
 936 108 936 108 1069 186 c 128,-1,24
 1202 264 1202 264 1276 396 c 128,-1,25
 1350 528 1350 528 1350 687 c 128,-1,26
 1350 846 1350 846 1276 978.5 c 128,-1,27
 1202 1111 1202 1111 1068 1189.5 c 128,-1,28
 934 1268 934 1268 770 1268 c 0,29,30
 608 1268 608 1268 475.5 1190 c 128,-1,31
 343 1112 343 1112 269 979 c 128,-1,32
 195 846 195 846 195 688 c 0,33,34
 195 529 195 529 269 396.5 c 128,-1,35
 343 264 343 264 475.5 186 c 128,-1,36
 608 108 608 108 771 108 c 0,22,23
771 0 m 0,37,38
 632 0 632 0 504 51.5 c 128,-1,39
 376 103 376 103 280.5 192.5 c 128,-1,40
 185 282 185 282 128.5 411 c 128,-1,41
 72 540 72 540 72 688 c 128,-1,42
 72 836 72 836 128.5 965.5 c 128,-1,43
 185 1095 185 1095 280 1184.5 c 128,-1,44
 375 1274 375 1274 503 1325.5 c 128,-1,45
 631 1377 631 1377 770 1377 c 0,46,47
 910 1377 910 1377 1038.5 1325.5 c 128,-1,48
 1167 1274 1167 1274 1263 1184 c 128,-1,49
 1359 1094 1359 1094 1415.5 964.5 c 128,-1,50
 1472 835 1472 835 1472 688 c 0,51,52
 1472 492 1472 492 1376 333 c 128,-1,53
 1280 174 1280 174 1120 87 c 128,-1,54
 960 0 960 0 771 0 c 0,37,38
EndSplineSet
EndChar

StartChar: ordfeminine
Encoding: 170 170 106
Width: 664
GlyphClass: 2
Flags: W
LayerCount: 2
Fore
SplineSet
269 686 m 0,0,1
 180 686 180 686 120 738.5 c 128,-1,2
 60 791 60 791 60 885 c 0,3,4
 60 1026 60 1026 221 1077 c 0,5,6
 284 1096 284 1096 443 1114 c 1,7,-1
 443 1134 l 1,8,9
 442 1199 442 1199 419 1224.5 c 128,-1,10
 396 1250 396 1250 343 1250 c 0,11,12
 247 1250 247 1250 125 1200 c 1,13,-1
 79 1315 l 1,14,15
 211 1384 211 1384 358 1384 c 0,16,17
 469 1384 469 1384 539 1329.5 c 128,-1,18
 609 1275 609 1275 609 1156 c 2,19,-1
 609 813 l 2,20,21
 609 810 609 810 611 698 c 1,22,-1
 472 698 l 1,23,-1
 459 762 l 1,24,25
 428 729 428 729 374 707.5 c 128,-1,26
 320 686 320 686 269 686 c 0,0,1
94 486 m 1,27,-1
 94 611 l 1,28,-1
 613 611 l 1,29,-1
 613 486 l 1,30,-1
 94 486 l 1,27,-1
286 813 m 0,31,32
 376 813 376 813 443 909 c 1,33,-1
 443 996 l 1,34,35
 323 980 323 980 271 957.5 c 128,-1,36
 219 935 219 935 219 883 c 0,37,38
 219 848 219 848 237.5 830.5 c 128,-1,39
 256 813 256 813 286 813 c 0,31,32
EndSplineSet
EndChar

StartChar: guillemotleft
Encoding: 171 171 107
Width: 948
GlyphClass: 2
Flags: W
LayerCount: 2
Fore
SplineSet
547 866 m 1,0,-1
 299 519 l 1,1,-1
 544 173 l 1,2,-1
 344 120 l 1,3,-1
 59 504 l 1,4,-1
 70 547 l 1,5,-1
 347 918 l 1,6,-1
 547 866 l 1,0,-1
669 519 m 1,7,-1
 914 173 l 1,8,-1
 715 120 l 1,9,-1
 424 516 l 1,10,-1
 717 918 l 1,11,-1
 918 866 l 1,12,-1
 669 519 l 1,7,-1
EndSplineSet
EndChar

StartChar: logicalnot
Encoding: 172 172 108
Width: 1129
GlyphClass: 2
Flags: W
LayerCount: 2
Fore
SplineSet
1031 771 m 1,0,-1
 1031 229 l 1,1,-1
 841 229 l 1,2,-1
 841 580 l 1,3,-1
 112 580 l 1,4,-1
 112 771 l 1,5,-1
 1031 771 l 1,0,-1
EndSplineSet
EndChar

StartChar: uni00AD
Encoding: 173 173 109
Width: 652
GlyphClass: 2
Flags: W
LayerCount: 2
Fore
SplineSet
61 349 m 1,0,-1
 61 551 l 1,1,-1
 608 551 l 1,2,-1
 608 349 l 1,3,-1
 61 349 l 1,0,-1
EndSplineSet
EndChar

StartChar: registered
Encoding: 174 174 110
Width: 1526
GlyphClass: 2
Flags: W
LayerCount: 2
Fore
SplineSet
487 251 m 1,0,-1
 487 1119 l 1,1,-1
 774 1119 l 2,2,3
 920 1119 920 1119 1003 1061 c 128,-1,4
 1086 1003 1086 1003 1086 877 c 0,5,6
 1086 779 1086 779 1044 722.5 c 128,-1,7
 1002 666 1002 666 904 641 c 1,8,9
 958 569 958 569 1128 251 c 1,10,-1
 959 251 l 1,11,-1
 916 336 l 2,12,13
 872 422 872 422 821.5 514.5 c 128,-1,14
 771 607 771 607 758 620 c 1,15,-1
 637 620 l 1,16,-1
 637 251 l 1,17,-1
 487 251 l 1,0,-1
636 988 m 1,18,-1
 636 752 l 1,19,-1
 744 752 l 2,20,21
 846 752 846 752 890.5 776 c 128,-1,22
 935 800 935 800 935 875 c 0,23,24
 935 907 935 907 926.5 928.5 c 128,-1,25
 918 950 918 950 905.5 962 c 128,-1,26
 893 974 893 974 864.5 979.5 c 128,-1,27
 836 985 836 985 810.5 986.5 c 128,-1,28
 785 988 785 988 736 988 c 2,29,-1
 636 988 l 1,18,-1
770 108 m 0,30,31
 934 108 934 108 1066.5 186 c 128,-1,32
 1199 264 1199 264 1272.5 396 c 128,-1,33
 1346 528 1346 528 1346 687 c 128,-1,34
 1346 846 1346 846 1272.5 978.5 c 128,-1,35
 1199 1111 1199 1111 1066 1189.5 c 128,-1,36
 933 1268 933 1268 769 1268 c 0,37,38
 647 1268 647 1268 540 1222 c 128,-1,39
 433 1176 433 1176 357.5 1098 c 128,-1,40
 282 1020 282 1020 238.5 913 c 128,-1,41
 195 806 195 806 195 688 c 0,42,43
 195 529 195 529 269 396 c 128,-1,44
 343 263 343 263 475.5 185.5 c 128,-1,45
 608 108 608 108 770 108 c 0,30,31
770 0 m 0,46,47
 631 0 631 0 503 51.5 c 128,-1,48
 375 103 375 103 280 192.5 c 128,-1,49
 185 282 185 282 128.5 411 c 128,-1,50
 72 540 72 540 72 688 c 128,-1,51
 72 836 72 836 128.5 965.5 c 128,-1,52
 185 1095 185 1095 280 1184.5 c 128,-1,53
 375 1274 375 1274 502.5 1325.5 c 128,-1,54
 630 1377 630 1377 769 1377 c 0,55,56
 909 1377 909 1377 1037 1325.5 c 128,-1,57
 1165 1274 1165 1274 1260.5 1184 c 128,-1,58
 1356 1094 1356 1094 1412.5 964.5 c 128,-1,59
 1469 835 1469 835 1469 688 c 0,60,61
 1469 492 1469 492 1373 333 c 128,-1,62
 1277 174 1277 174 1117.5 87 c 128,-1,63
 958 0 958 0 770 0 c 0,46,47
EndSplineSet
EndChar

StartChar: macron
Encoding: 175 175 111
Width: 801
GlyphClass: 2
Flags: W
LayerCount: 2
Fore
SplineSet
89 1239 m 1,0,-1
 89 1398 l 1,1,-1
 738 1398 l 1,2,-1
 738 1239 l 1,3,-1
 89 1239 l 1,0,-1
EndSplineSet
EndChar

StartChar: degree
Encoding: 176 176 112
Width: 748
GlyphClass: 2
Flags: W
LayerCount: 2
Fore
SplineSet
384 908 m 0,0,1
 439 908 439 908 479 947.5 c 128,-1,2
 519 987 519 987 519 1052 c 0,3,4
 519 1116 519 1116 479.5 1153.5 c 128,-1,5
 440 1191 440 1191 385 1191 c 0,6,7
 329 1191 329 1191 288 1153.5 c 128,-1,8
 247 1116 247 1116 247 1052 c 0,9,10
 247 987 247 987 287.5 947.5 c 128,-1,11
 328 908 328 908 384 908 c 0,0,1
384 774 m 0,12,13
 250 774 250 774 171.5 858 c 128,-1,14
 93 942 93 942 93 1057 c 128,-1,15
 93 1172 93 1172 172 1252 c 128,-1,16
 251 1332 251 1332 384 1332 c 0,17,18
 515 1332 515 1332 594 1252 c 128,-1,19
 673 1172 673 1172 673 1057 c 0,20,21
 673 943 673 943 595 858.5 c 128,-1,22
 517 774 517 774 384 774 c 0,12,13
EndSplineSet
EndChar

StartChar: plusminus
Encoding: 177 177 113
Width: 1131
GlyphClass: 2
Flags: W
LayerCount: 2
Fore
SplineSet
477 775 m 1,0,-1
 477 1101 l 1,1,-1
 670 1101 l 1,2,-1
 670 775 l 1,3,-1
 1006 775 l 1,4,-1
 1006 575 l 1,5,-1
 671 575 l 1,6,-1
 671 241 l 1,7,-1
 477 241 l 1,8,-1
 477 575 l 1,9,-1
 142 575 l 1,10,-1
 142 775 l 1,11,-1
 477 775 l 1,0,-1
142 0 m 1,12,-1
 142 177 l 1,13,-1
 1006 177 l 1,14,-1
 1006 0 l 1,15,-1
 142 0 l 1,12,-1
EndSplineSet
EndChar

StartChar: uni00B3
Encoding: 179 179 114
Width: 704
GlyphClass: 2
Flags: W
LayerCount: 2
Fore
SplineSet
155 747 m 1,0,-1
 165 738 l 1,1,2
 193 711 193 711 245.5 694 c 128,-1,3
 298 677 298 677 342 677 c 0,4,5
 399 677 399 677 431 705 c 128,-1,6
 463 733 463 733 463 789 c 0,7,8
 463 841 463 841 422 867.5 c 128,-1,9
 381 894 381 894 305 894 c 2,10,-1
 226 893 l 1,11,-1
 226 1033 l 1,12,-1
 307 1033 l 2,13,14
 436 1033 436 1033 436 1120 c 0,15,16
 436 1158 436 1158 413.5 1181 c 128,-1,17
 391 1204 391 1204 344 1204 c 0,18,19
 299 1204 299 1204 249 1188 c 128,-1,20
 199 1172 199 1172 170 1151 c 1,21,-1
 161 1143 l 1,22,-1
 110 1259 l 1,23,-1
 115 1264 l 1,24,25
 216 1346 216 1346 353 1346 c 0,26,27
 460 1346 460 1346 533 1289.5 c 128,-1,28
 606 1233 606 1233 606 1122 c 1,29,30
 603 1016 603 1016 508 971 c 1,31,32
 557 944 557 944 590 895.5 c 128,-1,33
 623 847 623 847 623 788 c 0,34,35
 623 669 623 669 542 602.5 c 128,-1,36
 461 536 461 536 343 536 c 0,37,38
 214 536 214 536 110 611 c 1,39,-1
 104 615 l 1,40,-1
 155 747 l 1,0,-1
EndSplineSet
EndChar

StartChar: acute
Encoding: 180 180 115
Width: 541
GlyphClass: 2
Flags: W
LayerCount: 2
Fore
SplineSet
163 1081 m 1,0,-1
 323 1442 l 1,1,-1
 615 1442 l 1,2,-1
 320 1081 l 1,3,-1
 163 1081 l 1,0,-1
EndSplineSet
EndChar

StartChar: paragraph
Encoding: 182 182 116
Width: 1054
GlyphClass: 2
Flags: W
LayerCount: 2
Fore
SplineSet
555 -134 m 1,0,-1
 367 -134 l 1,1,-1
 367 705 l 1,2,3
 232 719 232 719 148 811.5 c 128,-1,4
 64 904 64 904 64 1036 c 0,5,6
 64 1123 64 1123 101 1187.5 c 128,-1,7
 138 1252 138 1252 204.5 1288.5 c 128,-1,8
 271 1325 271 1325 354.5 1342.5 c 128,-1,9
 438 1360 438 1360 541 1360 c 2,10,-1
 920 1360 l 1,11,-1
 920 1188 l 1,12,-1
 847 1188 l 1,13,-1
 847 -134 l 1,14,-1
 679 -134 l 1,15,-1
 679 1188 l 1,16,-1
 555 1188 l 1,17,-1
 555 -134 l 1,0,-1
EndSplineSet
EndChar

StartChar: cedilla
Encoding: 184 184 117
Width: 514
GlyphClass: 2
Flags: W
LayerCount: 2
Fore
SplineSet
46 -297 m 1,0,-1
 162 60 l 1,1,-1
 309 60 l 1,2,-1
 255 -297 l 1,3,-1
 46 -297 l 1,0,-1
EndSplineSet
EndChar

StartChar: uni00B9
Encoding: 185 185 118
Width: 655
GlyphClass: 2
Flags: W
LayerCount: 2
Fore
SplineSet
129 534 m 1,0,-1
 129 686 l 1,1,-1
 255 686 l 1,2,-1
 255 1163 l 1,3,4
 136 1107 136 1107 126 1102 c 2,5,-1
 112 1095 l 1,6,-1
 112 1257 l 1,7,-1
 117 1260 l 1,8,9
 132 1267 132 1267 210.5 1307 c 128,-1,10
 289 1347 289 1347 299 1354 c 1,11,-1
 302 1359 l 1,12,-1
 445 1358 l 1,13,-1
 445 686 l 1,14,-1
 570 686 l 1,15,-1
 570 534 l 1,16,-1
 129 534 l 1,0,-1
EndSplineSet
EndChar

StartChar: guillemotright
Encoding: 187 187 119
Width: 1025
GlyphClass: 2
Flags: W
LayerCount: 2
Fore
SplineSet
292 918 m 1,0,-1
 584 522 l 1,1,-1
 291 120 l 1,2,-1
 91 173 l 1,3,-1
 340 519 l 1,4,-1
 93 866 l 1,5,-1
 292 918 l 1,0,-1
674 918 m 1,6,-1
 966 522 l 1,7,-1
 671 120 l 1,8,-1
 473 173 l 1,9,-1
 719 519 l 1,10,-1
 477 866 l 1,11,-1
 674 918 l 1,6,-1
EndSplineSet
EndChar

StartChar: onequarter
Encoding: 188 188 120
Width: 1525
GlyphClass: 2
Flags: W
LayerCount: 2
Fore
SplineSet
87 544 m 1,0,-1
 87 696 l 1,1,-1
 214 696 l 1,2,-1
 214 1171 l 1,3,4
 200 1164 200 1164 168.5 1149.5 c 128,-1,5
 137 1135 137 1135 112 1123.5 c 128,-1,6
 87 1112 87 1112 85 1111 c 2,7,-1
 70 1103 l 1,8,-1
 70 1257 l 1,9,-1
 75 1260 l 2,10,11
 77 1261 77 1261 162.5 1304 c 128,-1,12
 248 1347 248 1347 258 1354 c 1,13,-1
 261 1359 l 1,14,-1
 402 1358 l 1,15,-1
 402 696 l 1,16,-1
 527 696 l 1,17,-1
 527 544 l 1,18,-1
 87 544 l 1,0,-1
459 0 m 1,19,-1
 258 0 l 1,20,-1
 1174 1347 l 1,21,-1
 1370 1347 l 1,22,-1
 459 0 l 1,19,-1
1382 9 m 1,23,-1
 1223 9 l 1,24,-1
 1223 161 l 1,25,-1
 866 161 l 1,26,-1
 866 305 l 1,27,-1
 1213 798 l 1,28,-1
 1384 798 l 1,29,-1
 1384 301 l 1,30,-1
 1485 301 l 1,31,-1
 1488 161 l 1,32,-1
 1383 161 l 1,33,-1
 1382 9 l 1,23,-1
1064 301 m 1,34,-1
 1221 301 l 1,35,-1
 1221 560 l 1,36,-1
 1064 301 l 1,34,-1
EndSplineSet
EndChar

StartChar: onehalf
Encoding: 189 189 121
Width: 1593
GlyphClass: 2
Flags: W
LayerCount: 2
Fore
SplineSet
232 1186 m 1,0,1
 108 1115 108 1115 102 1112 c 2,2,-1
 89 1105 l 1,3,-1
 89 1258 l 1,4,-1
 94 1261 l 1,5,6
 105 1266 105 1266 177.5 1309 c 128,-1,7
 250 1352 250 1352 254 1356 c 2,8,-1
 257 1359 l 1,9,-1
 421 1358 l 1,10,-1
 421 691 l 1,11,-1
 545 691 l 1,12,-1
 545 553 l 1,13,-1
 106 553 l 1,14,-1
 106 691 l 1,15,-1
 232 691 l 1,16,-1
 232 1186 l 1,0,1
464 19 m 1,17,-1
 262 19 l 1,18,-1
 1178 1347 l 1,19,-1
 1378 1347 l 1,20,-1
 464 19 l 1,17,-1
1514 -26 m 1,21,-1
 1002 -26 l 1,22,-1
 1003 113 l 1,23,-1
 1006 115 l 1,24,25
 1039 143 1039 143 1108 200.5 c 128,-1,26
 1177 258 1177 258 1209.5 287.5 c 128,-1,27
 1242 317 1242 317 1283.5 360 c 128,-1,28
 1325 403 1325 403 1342.5 439 c 128,-1,29
 1360 475 1360 475 1360 510 c 0,30,31
 1360 559 1360 559 1325.5 588.5 c 128,-1,32
 1291 618 1291 618 1246 618 c 0,33,34
 1196 618 1196 618 1146.5 596.5 c 128,-1,35
 1097 575 1097 575 1068 535 c 2,36,-1
 1059 523 l 1,37,-1
 991 646 l 1,38,-1
 994 651 l 1,39,40
 1077 772 1077 772 1265 772 c 0,41,42
 1374 772 1374 772 1452.5 702 c 128,-1,43
 1531 632 1531 632 1531 515 c 0,44,45
 1531 455 1531 455 1512.5 404 c 128,-1,46
 1494 353 1494 353 1455.5 306.5 c 128,-1,47
 1417 260 1417 260 1375 221.5 c 128,-1,48
 1333 183 1333 183 1270 130 c 0,49,50
 1257 119 1257 119 1250 114 c 1,51,-1
 1531 114 l 1,52,-1
 1514 -26 l 1,21,-1
EndSplineSet
EndChar

StartChar: threequarters
Encoding: 190 190 122
Width: 1482
GlyphClass: 2
Flags: W
LayerCount: 2
Fore
SplineSet
310 562 m 0,0,1
 178 562 178 562 77 636 c 1,2,-1
 133 759 l 1,3,4
 160 735 160 735 209 720.5 c 128,-1,5
 258 706 258 706 303 706 c 0,6,7
 423 706 423 706 423 810 c 0,8,9
 423 903 423 903 272 903 c 1,10,-1
 193 902 l 1,11,-1
 193 1043 l 1,12,-1
 273 1043 l 2,13,14
 402 1043 402 1043 402 1126 c 0,15,16
 402 1201 402 1201 308 1201 c 0,17,18
 262 1201 262 1201 213 1186 c 128,-1,19
 164 1171 164 1171 136 1151 c 1,20,-1
 69 1261 l 1,21,22
 116 1301 116 1301 183.5 1323.5 c 128,-1,23
 251 1346 251 1346 321 1346 c 0,24,25
 426 1346 426 1346 501 1291 c 128,-1,26
 576 1236 576 1236 576 1132 c 0,27,28
 576 1116 576 1116 571.5 1094.5 c 128,-1,29
 567 1073 567 1073 544 1038.5 c 128,-1,30
 521 1004 521 1004 483 986 c 1,31,32
 531 960 531 960 562.5 913 c 128,-1,33
 594 866 594 866 594 808 c 0,34,35
 594 729 594 729 553 672 c 128,-1,36
 512 615 512 615 448.5 588.5 c 128,-1,37
 385 562 385 562 310 562 c 0,0,1
1179 19 m 1,38,-1
 1179 179 l 1,39,-1
 823 179 l 1,40,-1
 823 317 l 1,41,-1
 1169 820 l 1,42,-1
 1340 820 l 1,43,-1
 1340 318 l 1,44,-1
 1442 318 l 1,45,-1
 1444 179 l 1,46,-1
 1339 179 l 1,47,-1
 1338 19 l 1,48,-1
 1179 19 l 1,38,-1
235 19 m 1,49,-1
 1149 1347 l 1,50,-1
 1347 1347 l 1,51,-1
 439 19 l 1,52,-1
 235 19 l 1,49,-1
1019 318 m 1,53,-1
 1177 318 l 1,54,-1
 1177 575 l 1,55,-1
 1019 318 l 1,53,-1
EndSplineSet
EndChar

StartChar: questiondown
Encoding: 191 191 123
Width: 901
GlyphClass: 2
Flags: W
LayerCount: 2
Fore
SplineSet
370 1177 m 0,0,1
 370 1236 370 1236 410.5 1279.5 c 128,-1,2
 451 1323 451 1323 510 1323 c 0,3,4
 570 1323 570 1323 613.5 1279.5 c 128,-1,5
 657 1236 657 1236 657 1177 c 0,6,7
 657 1117 657 1117 614 1073.5 c 128,-1,8
 571 1030 571 1030 510 1030 c 0,9,10
 451 1030 451 1030 410.5 1073.5 c 128,-1,11
 370 1117 370 1117 370 1177 c 0,0,1
491 139 m 0,12,13
 544 139 544 139 594 152 c 128,-1,14
 644 165 644 165 670 178.5 c 128,-1,15
 696 192 696 192 731 213 c 1,16,-1
 740 218 l 1,17,-1
 810 53 l 1,18,-1
 803 49 l 1,19,20
 659 -47 659 -47 467 -47 c 0,21,22
 417 -47 417 -47 368 -35.5 c 128,-1,23
 319 -24 319 -24 273.5 1.5 c 128,-1,24
 228 27 228 27 193 63 c 128,-1,25
 158 99 158 99 137 151.5 c 128,-1,26
 116 204 116 204 116 266 c 128,-1,27
 116 328 116 328 137.5 388.5 c 128,-1,28
 159 449 159 449 197 506.5 c 128,-1,29
 235 564 235 564 276 618.5 c 128,-1,30
 317 673 317 673 367.5 747.5 c 128,-1,31
 418 822 418 822 453 893 c 1,32,-1
 456 898 l 1,33,-1
 567 898 l 1,34,-1
 565 887 l 1,35,36
 556 816 556 816 527.5 743 c 128,-1,37
 499 670 499 670 465 612 c 128,-1,38
 431 554 431 554 398 499.5 c 128,-1,39
 365 445 365 445 343 392.5 c 128,-1,40
 321 340 321 340 321 297 c 0,41,42
 322 224 322 224 366.5 181.5 c 128,-1,43
 411 139 411 139 491 139 c 0,12,13
EndSplineSet
EndChar

StartChar: AE
Encoding: 198 198 130
Width: 1781
GlyphClass: 2
Flags: W
LayerCount: 2
Fore
SplineSet
1141 1161 m 1,0,-1
 1168 785 l 1,1,-1
 1655 785 l 1,2,-1
 1655 592 l 1,3,-1
 1188 592 l 1,4,-1
 1221 194 l 1,5,-1
 1723 194 l 1,6,-1
 1709 0 l 1,7,-1
 971 0 l 1,8,-1
 944 334 l 1,9,-1
 495 334 l 1,10,-1
 316 0 l 1,11,-1
 23 0 l 1,12,-1
 781 1355 l 1,13,-1
 1692 1355 l 1,14,-1
 1676 1161 l 1,15,-1
 1141 1161 l 1,0,-1
928 538 m 1,16,-1
 887 1087 l 1,17,-1
 589 538 l 1,18,-1
 928 538 l 1,16,-1
EndSplineSet
EndChar

StartChar: Eth
Encoding: 208 208 140
Width: 1340
GlyphClass: 2
Flags: W
LayerCount: 2
Fore
SplineSet
367 590 m 1,0,-1
 367 211 l 1,1,-1
 565 211 l 2,2,3
 788 211 788 211 907.5 329 c 128,-1,4
 1027 447 1027 447 1027 669 c 0,5,6
 1027 801 1027 801 993.5 891.5 c 128,-1,7
 960 982 960 982 889 1035.5 c 128,-1,8
 818 1089 818 1089 720.5 1112 c 128,-1,9
 623 1135 623 1135 484 1135 c 2,10,-1
 367 1135 l 1,11,-1
 367 772 l 1,12,-1
 542 772 l 1,13,-1
 542 590 l 1,14,-1
 367 590 l 1,0,-1
110 768 m 1,15,-1
 110 1340 l 1,16,-1
 467 1340 l 2,17,18
 615 1340 615 1340 737.5 1318 c 128,-1,19
 860 1296 860 1296 963.5 1246 c 128,-1,20
 1067 1196 1067 1196 1138 1119 c 128,-1,21
 1209 1042 1209 1042 1248.5 928 c 128,-1,22
 1288 814 1288 814 1288 668 c 0,23,24
 1288 454 1288 454 1193.5 302 c 128,-1,25
 1099 150 1099 150 934 75.5 c 128,-1,26
 769 1 769 1 549 1 c 2,27,-1
 110 1 l 1,28,-1
 110 586 l 1,29,-1
 -1 586 l 1,30,-1
 -1 768 l 1,31,-1
 110 768 l 1,15,-1
EndSplineSet
EndChar

StartChar: multiply
Encoding: 215 215 147
Width: 1230
GlyphClass: 2
Flags: W
LayerCount: 2
Fore
SplineSet
499 538 m 1,0,-1
 241 810 l 1,1,-1
 373 947 l 1,2,-1
 639 678 l 1,3,-1
 902 947 l 1,4,-1
 1038 809 l 1,5,-1
 777 538 l 1,6,-1
 1038 272 l 1,7,-1
 903 130 l 1,8,-1
 639 397 l 1,9,-1
 373 130 l 1,10,-1
 241 271 l 1,11,-1
 499 538 l 1,0,-1
EndSplineSet
EndChar

StartChar: Oslash
Encoding: 216 216 148
Width: 1435
GlyphClass: 2
Flags: W
LayerCount: 2
Fore
SplineSet
429 -179 m 1,0,-1
 324 -134 l 1,1,-1
 405 54 l 1,2,3
 245 136 245 136 155 297.5 c 128,-1,4
 65 459 65 459 65 678 c 0,5,6
 65 839 65 839 114.5 971 c 128,-1,7
 164 1103 164 1103 252 1192 c 128,-1,8
 340 1281 340 1281 462 1329 c 128,-1,9
 584 1377 584 1377 729 1377 c 0,10,11
 847 1377 847 1377 954 1344 c 1,12,-1
 1034 1530 l 1,13,-1
 1145 1486 l 1,14,-1
 1065 1296 l 1,15,16
 1218 1212 1218 1212 1303 1053 c 128,-1,17
 1388 894 1388 894 1388 676 c 0,18,19
 1388 358 1388 358 1205 170 c 128,-1,20
 1022 -18 1022 -18 725 -18 c 0,21,22
 611 -18 611 -18 512 10 c 1,23,-1
 429 -179 l 1,0,-1
496 278 m 1,24,-1
 866 1137 l 1,25,26
 805 1158 805 1158 728 1158 c 0,27,28
 534 1158 534 1158 431.5 1028 c 128,-1,29
 329 898 329 898 329 682 c 0,30,31
 329 399 329 399 496 278 c 1,24,-1
728 194 m 0,32,33
 923 194 923 194 1025.5 321.5 c 128,-1,34
 1128 449 1128 449 1128 666 c 0,35,36
 1128 942 1128 942 971 1065 c 1,37,-1
 601 212 l 1,38,39
 658 194 658 194 728 194 c 0,32,33
EndSplineSet
EndChar

StartChar: Thorn
Encoding: 222 222 154
Width: 1164
GlyphClass: 2
Flags: W
LayerCount: 2
Fore
SplineSet
370 1326 m 1,0,-1
 370 1126 l 1,1,-1
 613 1126 l 2,2,3
 704 1126 704 1126 781.5 1112.5 c 128,-1,4
 859 1099 859 1099 926 1068 c 128,-1,5
 993 1037 993 1037 1040 991 c 128,-1,6
 1087 945 1087 945 1113.5 876 c 128,-1,7
 1140 807 1140 807 1140 720 c 0,8,9
 1140 527 1140 527 1001 418.5 c 128,-1,10
 862 310 862 310 645 310 c 2,11,-1
 621 310 l 2,12,13
 597 310 597 310 562 310 c 128,-1,14
 527 310 527 310 489.5 310.5 c 128,-1,15
 452 311 452 311 418.5 311 c 128,-1,16
 385 311 385 311 370 311 c 1,17,-1
 370 16 l 1,18,-1
 153 16 l 1,19,-1
 153 1326 l 1,20,-1
 370 1326 l 1,0,-1
370 946 m 1,21,-1
 371 505 l 1,22,-1
 657 505 l 2,23,24
 784 505 784 505 852.5 562.5 c 128,-1,25
 921 620 921 620 921 725 c 0,26,27
 921 841 921 841 849.5 893.5 c 128,-1,28
 778 946 778 946 632 946 c 2,29,-1
 370 946 l 1,21,-1
EndSplineSet
EndChar

StartChar: germandbls
Encoding: 223 223 155
Width: 1104
GlyphClass: 2
Flags: W
LayerCount: 2
Fore
SplineSet
462 172 m 1,0,-1
 463 180 l 1,1,-1
 680 180 l 2,2,3
 750 180 750 180 787.5 217 c 128,-1,4
 825 254 825 254 825 320 c 0,5,6
 825 360 825 360 807 393.5 c 128,-1,7
 789 427 789 427 753 456 c 128,-1,8
 717 485 717 485 684.5 505 c 128,-1,9
 652 525 652 525 600 553.5 c 128,-1,10
 548 582 548 582 520 600 c 0,11,12
 438 651 438 651 438 722 c 0,13,14
 438 780 438 780 505 835 c 1,15,16
 520 846 520 846 555 870.5 c 128,-1,17
 590 895 590 895 607 909 c 128,-1,18
 624 923 624 923 646 946 c 128,-1,19
 668 969 668 969 677.5 993 c 128,-1,20
 687 1017 687 1017 687 1046 c 0,21,22
 687 1106 687 1106 641 1140.5 c 128,-1,23
 595 1175 595 1175 519 1175 c 0,24,25
 413 1175 413 1175 375.5 1115 c 128,-1,26
 338 1055 338 1055 338 929 c 2,27,-1
 338 0 l 1,28,-1
 89 0 l 1,29,-1
 89 934 l 2,30,31
 89 1137 89 1137 201 1250 c 128,-1,32
 313 1363 313 1363 519 1363 c 0,33,34
 630 1363 630 1363 720.5 1329.5 c 128,-1,35
 811 1296 811 1296 869 1222.5 c 128,-1,36
 927 1149 927 1149 927 1046 c 0,37,38
 927 999 927 999 911.5 957 c 128,-1,39
 896 915 896 915 876.5 886.5 c 128,-1,40
 857 858 857 858 819 825.5 c 128,-1,41
 781 793 781 793 757.5 777 c 128,-1,42
 734 761 734 761 690 733 c 1,43,44
 706 724 706 724 749.5 700 c 128,-1,45
 793 676 793 676 815.5 663 c 128,-1,46
 838 650 838 650 878 624 c 128,-1,47
 918 598 918 598 941 578 c 128,-1,48
 964 558 964 558 993 527 c 128,-1,49
 1022 496 1022 496 1037.5 466.5 c 128,-1,50
 1053 437 1053 437 1064.5 399 c 128,-1,51
 1076 361 1076 361 1076 320 c 0,52,53
 1076 162 1076 162 972.5 81 c 128,-1,54
 869 0 869 0 704 0 c 2,55,-1
 445 0 l 1,56,-1
 439 11 l 1,57,-1
 440 13 l 1,58,-1
 462 172 l 1,0,-1
EndSplineSet
EndChar

StartChar: ae
Encoding: 230 230 162
Width: 1478
GlyphClass: 2
Flags: W
LayerCount: 2
Fore
SplineSet
368 -19 m 0,0,1
 228 -19 228 -19 143.5 71 c 128,-1,2
 59 161 59 161 59 297 c 0,3,4
 59 331 59 331 64 359.5 c 128,-1,5
 69 388 69 388 82 411.5 c 128,-1,6
 95 435 95 435 108.5 454 c 128,-1,7
 122 473 122 473 146.5 488 c 128,-1,8
 171 503 171 503 191.5 514.5 c 128,-1,9
 212 526 212 526 247.5 535.5 c 128,-1,10
 283 545 283 545 309.5 551 c 128,-1,11
 336 557 336 557 381 563.5 c 128,-1,12
 426 570 426 570 457.5 574 c 128,-1,13
 489 578 489 578 542 584 c 2,14,-1
 608 591 l 1,15,-1
 608 687 l 2,16,17
 608 777 608 777 575.5 817 c 128,-1,18
 543 857 543 857 453 861 c 1,19,20
 346 861 346 861 170 792 c 1,21,-1
 160 788 l 1,22,-1
 112 969 l 1,23,-1
 119 973 l 1,24,25
 268 1044 268 1044 459 1049 c 0,26,27
 569 1051 569 1051 647 1012.5 c 128,-1,28
 725 974 725 974 757 901 c 1,29,30
 810 967 810 967 892.5 1008 c 128,-1,31
 975 1049 975 1049 1073 1049 c 0,32,33
 1169 1049 1169 1049 1242 1010 c 128,-1,34
 1315 971 1315 971 1357.5 903.5 c 128,-1,35
 1400 836 1400 836 1421 753 c 128,-1,36
 1442 670 1442 670 1442 573 c 0,37,38
 1442 490 1442 490 1293 485 c 0,39,40
 1281 484 1281 484 1093.5 469.5 c 128,-1,41
 906 455 906 455 848 451 c 1,42,43
 863 171 863 171 1095 168 c 1,44,45
 1173 168 1173 168 1239 189.5 c 128,-1,46
 1305 211 1305 211 1342 240 c 1,47,-1
 1352 247 l 1,48,-1
 1424 84 l 1,49,-1
 1418 79 l 1,50,51
 1284 -18 1284 -18 1079 -18 c 0,52,53
 857 -18 857 -18 744 119 c 1,54,55
 589 -19 589 -19 368 -19 c 0,0,1
402 153 m 0,56,57
 516 153 516 153 650 256 c 1,58,59
 619 333 619 333 613 421 c 1,60,61
 559 412 559 412 544 412 c 2,62,-1
 543 412 l 1,63,64
 401 396 401 396 344 370 c 128,-1,65
 287 344 287 344 287 281 c 0,66,67
 287 153 287 153 402 153 c 0,56,57
849 614 m 1,68,-1
 1215 646 l 1,69,-1
 1215 665 l 2,70,71
 1215 859 1215 859 1071 859 c 0,72,73
 988 859 988 859 925 802 c 128,-1,74
 862 745 862 745 849 614 c 1,68,-1
EndSplineSet
EndChar

StartChar: eth
Encoding: 240 240 172
Width: 1075
GlyphClass: 2
Flags: W
LayerCount: 2
Fore
SplineSet
557 -17 m 0,0,1
 340 -17 340 -17 204.5 108 c 128,-1,2
 69 233 69 233 69 433 c 0,3,4
 69 626 69 626 191.5 744 c 128,-1,5
 314 862 314 862 515 862 c 0,6,7
 565 862 565 862 633 842 c 1,8,9
 566 926 566 926 476 1025 c 1,10,-1
 253 936 l 1,11,-1
 192 1105 l 1,12,-1
 350 1169 l 1,13,-1
 165 1377 l 1,14,-1
 454 1377 l 1,15,-1
 558 1255 l 1,16,-1
 798 1353 l 1,17,-1
 861 1183 l 1,18,-1
 680 1110 l 1,19,20
 750 1030 750 1030 782 992.5 c 128,-1,21
 814 955 814 955 863.5 890 c 128,-1,22
 913 825 913 825 947 770 c 1,23,24
 1040 613 1040 613 1041 424 c 1,25,26
 1041 217 1041 217 910.5 100 c 128,-1,27
 780 -17 780 -17 557 -17 c 0,0,1
564 179 m 0,28,29
 684 179 684 179 751 247 c 128,-1,30
 818 315 818 315 818 430 c 0,31,32
 818 546 818 546 749 617 c 128,-1,33
 680 688 680 688 558 688 c 128,-1,34
 436 688 436 688 369 620 c 128,-1,35
 302 552 302 552 302 434 c 0,36,37
 302 320 302 320 372 249.5 c 128,-1,38
 442 179 442 179 564 179 c 0,28,29
EndSplineSet
EndChar

StartChar: divide
Encoding: 247 247 179
Width: 1282
GlyphClass: 2
Flags: W
LayerCount: 2
Fore
SplineSet
519 18 m 1,0,-1
 519 279 l 1,1,-1
 779 279 l 1,2,-1
 779 18 l 1,3,-1
 519 18 l 1,0,-1
154 444 m 1,4,-1
 154 630 l 1,5,-1
 1142 630 l 1,6,-1
 1142 444 l 1,7,-1
 154 444 l 1,4,-1
519 797 m 1,8,-1
 519 1047 l 1,9,-1
 787 1047 l 1,10,-1
 787 797 l 1,11,-1
 519 797 l 1,8,-1
EndSplineSet
EndChar

StartChar: oslash
Encoding: 248 248 180
Width: 1039
GlyphClass: 2
Flags: W
LayerCount: 2
Fore
SplineSet
276 -203 m 1,0,-1
 203 -165 l 1,1,-1
 291 43 l 1,2,3
 176 106 176 106 115 228 c 128,-1,4
 54 350 54 350 54 510 c 0,5,6
 54 745 54 745 179.5 889.5 c 128,-1,7
 305 1034 305 1034 533 1034 c 0,8,9
 622 1034 622 1034 700 1010 c 1,10,-1
 785 1177 l 1,11,-1
 865 1152 l 1,12,-1
 779 975 l 1,13,14
 890 911 890 911 948 790.5 c 128,-1,15
 1006 670 1006 670 1006 510 c 0,16,17
 1006 359 1006 359 952.5 242 c 128,-1,18
 899 125 899 125 789.5 55.5 c 128,-1,19
 680 -14 680 -14 529 -14 c 0,20,21
 442 -14 442 -14 367 9 c 1,22,-1
 276 -203 l 1,0,-1
372 248 m 1,23,-1
 624 834 l 1,24,25
 585 853 585 853 530 853 c 0,26,27
 417 853 417 853 355 764.5 c 128,-1,28
 293 676 293 676 293 516 c 0,29,30
 293 336 293 336 372 248 c 1,23,-1
531 164 m 0,31,32
 644 164 644 164 705 253 c 128,-1,33
 766 342 766 342 766 500 c 0,34,35
 766 676 766 676 695 765 c 1,36,-1
 443 181 l 1,37,38
 482 164 482 164 531 164 c 0,31,32
EndSplineSet
EndChar

StartChar: gcommaaccent
Encoding: 291 291 221
Width: 1120
GlyphClass: 2
Flags: W
LayerCount: 2
Fore
SplineSet
707 1577 m 1,0,-1
 606 1098 l 1,1,-1
 388 1098 l 1,2,-1
 540 1577 l 1,3,-1
 707 1577 l 1,0,-1
559 195 m 0,4,5
 786 195 786 195 789 508 c 1,6,-1
 789 536 l 2,7,8
 789 684 789 684 734 763 c 128,-1,9
 679 842 679 842 572 843 c 1,10,11
 451 843 451 843 389 758 c 128,-1,12
 327 673 327 673 327 526 c 0,13,14
 327 383 327 383 389 289 c 128,-1,15
 451 195 451 195 559 195 c 0,4,5
516 -439 m 0,16,17
 492 -439 492 -439 468 -438 c 128,-1,18
 444 -437 444 -437 423.5 -435 c 128,-1,19
 403 -433 403 -433 383 -430.5 c 128,-1,20
 363 -428 363 -428 346.5 -425 c 128,-1,21
 330 -422 330 -422 315.5 -419 c 128,-1,22
 301 -416 301 -416 290 -413.5 c 128,-1,23
 279 -411 279 -411 271.5 -409 c 128,-1,24
 264 -407 264 -407 260 -406 c 2,25,-1
 255 -405 l 1,26,-1
 248 -402 l 1,27,-1
 264 -207 l 1,28,-1
 275 -209 l 1,29,30
 393 -237 393 -237 491 -237 c 0,31,32
 570 -237 570 -237 628.5 -211 c 128,-1,33
 687 -185 687 -185 720.5 -139 c 128,-1,34
 754 -93 754 -93 770 -36.5 c 128,-1,35
 786 20 786 20 786 87 c 0,36,37
 786 110 786 110 783 136 c 1,38,39
 751 78 751 78 685 39 c 128,-1,40
 619 0 619 0 523 0 c 0,41,42
 327 0 327 0 199.5 145.5 c 128,-1,43
 72 291 72 291 72 519 c 0,44,45
 72 641 72 641 107.5 741.5 c 128,-1,46
 143 842 143 842 203.5 906.5 c 128,-1,47
 264 971 264 971 343 1006 c 128,-1,48
 422 1041 422 1041 511 1041 c 0,49,50
 705 1041 705 1041 793 903 c 1,51,-1
 807 1017 l 1,52,-1
 1034 1017 l 1,53,-1
 1034 185 l 2,54,55
 1034 49 1034 49 1006 -61 c 128,-1,56
 978 -171 978 -171 918.5 -257.5 c 128,-1,57
 859 -344 859 -344 756.5 -391.5 c 128,-1,58
 654 -439 654 -439 516 -439 c 0,16,17
EndSplineSet
EndChar

StartChar: Hbar
Encoding: 294 294 224
Width: 1311
GlyphClass: 2
Flags: W
LayerCount: 2
Fore
SplineSet
110 1205 m 1,0,-1
 110 1335 l 1,1,-1
 367 1335 l 1,2,-1
 367 1205 l 1,3,-1
 962 1205 l 1,4,-1
 962 1335 l 1,5,-1
 1220 1335 l 1,6,-1
 1220 1205 l 1,7,-1
 1295 1205 l 1,8,-1
 1295 1068 l 1,9,-1
 1220 1068 l 1,10,-1
 1220 0 l 1,11,-1
 962 0 l 1,12,-1
 962 595 l 1,13,-1
 367 595 l 1,14,-1
 367 0 l 1,15,-1
 110 0 l 1,16,-1
 110 1068 l 1,17,-1
 35 1068 l 1,18,-1
 35 1205 l 1,19,-1
 110 1205 l 1,0,-1
367 788 m 1,20,-1
 962 788 l 1,21,-1
 962 1068 l 1,22,-1
 367 1068 l 1,23,-1
 367 788 l 1,20,-1
EndSplineSet
EndChar

StartChar: hbar
Encoding: 295 295 225
Width: 1042
GlyphClass: 2
Flags: W
LayerCount: 2
Fore
SplineSet
89 1249 m 1,0,-1
 89 1369 l 1,1,-1
 335 1387 l 1,2,-1
 335 1249 l 1,3,-1
 595 1249 l 1,4,-1
 595 1108 l 1,5,-1
 335 1108 l 1,6,-1
 335 918 l 1,7,8
 456 1034 456 1034 641 1034 c 0,9,10
 715 1034 715 1034 775 1011 c 128,-1,11
 835 988 835 988 882 940 c 128,-1,12
 929 892 929 892 954.5 809.5 c 128,-1,13
 980 727 980 727 980 615 c 2,14,-1
 980 0 l 1,15,-1
 734 0 l 1,16,-1
 734 605 l 2,17,18
 734 736 734 736 703.5 790 c 128,-1,19
 673 844 673 844 586 844 c 0,20,21
 505 844 505 844 436.5 798.5 c 128,-1,22
 368 753 368 753 335 686 c 1,23,-1
 335 0 l 1,24,-1
 89 0 l 1,25,-1
 89 1108 l 1,26,-1
 -1 1108 l 1,27,-1
 -1 1249 l 1,28,-1
 89 1249 l 1,0,-1
EndSplineSet
EndChar

StartChar: dotlessi
Encoding: 305 305 235
Width: 480
GlyphClass: 2
Flags: W
LayerCount: 2
Fore
SplineSet
109 0 m 1,0,-1
 109 1016 l 1,1,-1
 356 1016 l 1,2,-1
 356 0 l 1,3,-1
 109 0 l 1,0,-1
EndSplineSet
EndChar

StartChar: IJ
Encoding: 306 306 236
Width: 1083
GlyphClass: 2
Flags: W
LayerCount: 2
Fore
SplineSet
130 0 m 1,0,-1
 130 1342 l 1,1,-1
 418 1342 l 1,2,-1
 418 0 l 1,3,-1
 130 0 l 1,0,-1
501 -285 m 1,4,-1
 489 -75 l 1,5,6
 539 -84 539 -84 592 -84 c 0,7,8
 687 -84 687 -84 719 -37 c 128,-1,9
 751 10 751 10 751 126 c 2,10,-1
 751 1342 l 1,11,-1
 1039 1342 l 1,12,-1
 1039 144 l 2,13,14
 1039 -81 1039 -81 933.5 -187 c 128,-1,15
 828 -293 828 -293 594 -293 c 0,16,17
 536 -293 536 -293 501 -285 c 1,4,-1
EndSplineSet
EndChar

StartChar: ij
Encoding: 307 307 237
Width: 908
GlyphClass: 2
Flags: W
LayerCount: 2
Fore
SplineSet
851 1139 m 1,0,-1
 598 1139 l 1,1,-1
 598 1357 l 1,2,-1
 851 1357 l 1,3,-1
 851 1139 l 1,0,-1
130 1139 m 1,4,-1
 130 1357 l 1,5,-1
 384 1357 l 1,6,-1
 384 1139 l 1,7,-1
 130 1139 l 1,4,-1
471 -379 m 2,8,-1
 411 -379 l 1,9,-1
 382 -187 l 1,10,-1
 444 -187 l 2,11,12
 487 -187 487 -187 514 -181.5 c 128,-1,13
 541 -176 541 -176 558.5 -165 c 128,-1,14
 576 -154 576 -154 584.5 -130.5 c 128,-1,15
 593 -107 593 -107 595.5 -79.5 c 128,-1,16
 598 -52 598 -52 598 -4 c 2,17,-1
 598 1017 l 1,18,-1
 851 1017 l 1,19,-1
 851 40 l 2,20,21
 851 -49 851 -49 842 -111.5 c 128,-1,22
 833 -174 833 -174 809 -227.5 c 128,-1,23
 785 -281 785 -281 742.5 -312.5 c 128,-1,24
 700 -344 700 -344 633 -361.5 c 128,-1,25
 566 -379 566 -379 471 -379 c 2,8,-1
130 0 m 1,26,-1
 130 1017 l 1,27,-1
 384 1017 l 1,28,-1
 384 0 l 1,29,-1
 130 0 l 1,26,-1
EndSplineSet
EndChar

StartChar: Ldot
Encoding: 319 319 249
Width: 937
GlyphClass: 2
Flags: W
LayerCount: 2
Fore
SplineSet
128 0 m 1,0,-1
 128 1342 l 1,1,-1
 416 1342 l 1,2,-1
 416 213 l 1,3,-1
 953 213 l 1,4,-1
 946 0 l 1,5,-1
 128 0 l 1,0,-1
EndSplineSet
EndChar

StartChar: Lslash
Encoding: 321 321 250
Width: 885
GlyphClass: 2
Flags: W
LayerCount: 2
Fore
SplineSet
649 1029 m 1,0,-1
 649 845 l 1,1,-1
 366 678 l 1,2,-1
 366 203 l 1,3,-1
 913 203 l 1,4,-1
 898 0 l 1,5,-1
 111 0 l 1,6,-1
 111 524 l 1,7,-1
 -24 443 l 1,8,-1
 -24 634 l 1,9,-1
 111 714 l 1,10,-1
 111 1340 l 1,11,-1
 366 1340 l 1,12,-1
 366 869 l 1,13,-1
 646 1032 l 1,14,-1
 649 1029 l 1,0,-1
EndSplineSet
EndChar

StartChar: lslash
Encoding: 322 322 251
Width: 597
GlyphClass: 2
Flags: W
LayerCount: 2
Fore
SplineSet
21 559 m 1,0,-1
 21 747 l 1,1,-1
 120 807 l 1,2,-1
 120 1368 l 1,3,-1
 365 1387 l 1,4,-1
 366 1386 l 1,5,6
 366 1384 366 1384 367 1384 c 1,7,-1
 367 963 l 1,8,-1
 507 1049 l 1,9,-1
 507 859 l 1,10,-1
 367 771 l 1,11,-1
 367 404 l 2,12,13
 367 342 367 342 369 311.5 c 128,-1,14
 371 281 371 281 377.5 250 c 128,-1,15
 384 219 384 219 399.5 207 c 128,-1,16
 415 195 415 195 439.5 188 c 128,-1,17
 464 181 464 181 505 181 c 0,18,19
 518 181 518 181 595 188 c 2,20,-1
 605 189 l 1,21,-1
 621 0 l 1,22,-1
 612 -1 l 1,23,24
 480 -13 480 -13 464 -13 c 0,25,26
 378 -13 378 -13 317 5 c 128,-1,27
 256 23 256 23 217.5 55.5 c 128,-1,28
 179 88 179 88 157.5 144 c 128,-1,29
 136 200 136 200 128 265 c 128,-1,30
 120 330 120 330 120 424 c 2,31,-1
 120 619 l 1,32,-1
 21 559 l 1,0,-1
EndSplineSet
EndChar

StartChar: Eng
Encoding: 330 330 258
Width: 1246
GlyphClass: 2
Flags: W
LayerCount: 2
Fore
SplineSet
738 -305 m 0,0,1
 692 -305 692 -305 657 -301 c 1,2,-1
 637 -75 l 1,3,4
 690 -79 690 -79 742 -79 c 0,5,6
 858 -79 858 -79 893 -34.5 c 128,-1,7
 928 10 928 10 928 139 c 2,8,-1
 928 864 l 2,9,10
 928 1023 928 1023 880.5 1089 c 128,-1,11
 833 1155 833 1155 722 1155 c 0,12,13
 632 1155 632 1155 535.5 1106 c 128,-1,14
 439 1057 439 1057 384 963 c 1,15,-1
 384 0 l 1,16,-1
 96 0 l 1,17,-1
 96 1342 l 1,18,-1
 352 1342 l 1,19,-1
 374 1195 l 1,20,21
 442 1270 442 1270 557.5 1316.5 c 128,-1,22
 673 1363 673 1363 782 1363 c 0,23,24
 995 1363 995 1363 1105.5 1234 c 128,-1,25
 1216 1105 1216 1105 1216 874 c 2,26,-1
 1216 143 l 2,27,28
 1216 -81 1216 -81 1103 -193 c 128,-1,29
 990 -305 990 -305 738 -305 c 0,0,1
EndSplineSet
EndChar

StartChar: eng
Encoding: 331 331 259
Width: 1041
GlyphClass: 2
Flags: W
LayerCount: 2
Fore
SplineSet
646 -332 m 2,0,-1
 583 -332 l 1,1,-1
 557 -141 l 1,2,-1
 617 -141 l 2,3,4
 670 -141 670 -141 698.5 -134.5 c 128,-1,5
 727 -128 727 -128 743.5 -104 c 128,-1,6
 760 -80 760 -80 764 -46 c 128,-1,7
 768 -12 768 -12 768 54 c 2,8,-1
 768 612 l 1,9,10
 767 732 767 732 734 788 c 128,-1,11
 701 844 701 844 611 844 c 0,12,13
 539 844 539 844 481 807.5 c 128,-1,14
 423 771 423 771 395 713 c 1,15,16
 379 643 379 643 379 496 c 2,17,-1
 379 0 l 1,18,-1
 123 0 l 1,19,-1
 123 1016 l 1,20,-1
 331 1016 l 1,21,-1
 355 902 l 1,22,23
 499 1041 499 1041 676 1041 c 0,24,25
 849 1041 849 1041 936.5 936.5 c 128,-1,26
 1024 832 1024 832 1024 640 c 2,27,-1
 1024 101 l 2,28,29
 1024 9 1024 9 1015 -55 c 128,-1,30
 1006 -119 1006 -119 982 -174.5 c 128,-1,31
 958 -230 958 -230 916 -262.5 c 128,-1,32
 874 -295 874 -295 807 -313.5 c 128,-1,33
 740 -332 740 -332 646 -332 c 2,0,-1
EndSplineSet
EndChar

StartChar: OE
Encoding: 338 338 266
Width: 1922
GlyphClass: 2
Flags: W
LayerCount: 2
Fore
SplineSet
727 -17 m 0,0,1
 535 -17 535 -17 384 72 c 128,-1,2
 233 161 233 161 149 319 c 128,-1,3
 65 477 65 477 65 676 c 1,4,5
 66 872 66 872 152 1029 c 128,-1,6
 238 1186 238 1186 388 1274.5 c 128,-1,7
 538 1363 538 1363 722 1363 c 0,8,9
 896 1363 896 1363 1030 1278 c 1,10,-1
 1030 1338 l 1,11,-1
 1879 1338 l 1,12,-1
 1861 1133 l 1,13,-1
 1277 1133 l 1,14,-1
 1277 798 l 1,15,-1
 1835 798 l 1,16,-1
 1835 596 l 1,17,-1
 1277 596 l 1,18,-1
 1277 208 l 1,19,-1
 1905 208 l 1,20,-1
 1887 4 l 1,21,-1
 1030 4 l 1,22,-1
 1030 67 l 1,23,24
 897 -17 897 -17 727 -17 c 0,0,1
725 187 m 0,25,26
 822 187 822 187 901 216 c 128,-1,27
 980 245 980 245 1030 289 c 1,28,-1
 1030 1048 l 1,29,30
 916 1160 916 1160 722 1160 c 0,31,32
 596 1160 596 1160 503 1090.5 c 128,-1,33
 410 1021 410 1021 364.5 912 c 128,-1,34
 319 803 319 803 318 672 c 1,35,36
 318 540 318 540 361.5 432.5 c 128,-1,37
 405 325 405 325 499 256 c 128,-1,38
 593 187 593 187 725 187 c 0,25,26
EndSplineSet
EndChar

StartChar: oe
Encoding: 339 339 267
Width: 1657
GlyphClass: 2
Flags: W
LayerCount: 2
Fore
SplineSet
882 872 m 1,0,1
 984 1032 984 1032 1225 1034 c 0,2,3
 1329 1034 1329 1034 1407.5 996 c 128,-1,4
 1486 958 1486 958 1533 890 c 128,-1,5
 1580 822 1580 822 1603 734 c 128,-1,6
 1626 646 1626 646 1626 540 c 0,7,8
 1626 526 1626 526 1626 494 c 2,9,-1
 1625 461 l 1,10,-1
 1625 451 l 1,11,-1
 997 451 l 1,12,13
 1002 312 1002 312 1069.5 236.5 c 128,-1,14
 1137 161 1137 161 1257 161 c 0,15,16
 1405 161 1405 161 1522 249 c 1,17,-1
 1532 256 l 1,18,-1
 1604 100 l 1,19,-1
 1598 95 l 1,20,21
 1527 40 1527 40 1446 11 c 128,-1,22
 1365 -18 1365 -18 1252 -18 c 0,23,24
 988 -18 988 -18 880 148 c 1,25,26
 829 72 829 72 739 27 c 128,-1,27
 649 -18 649 -18 531 -18 c 0,28,29
 436 -18 436 -18 357.5 9.5 c 128,-1,30
 279 37 279 37 223.5 85.5 c 128,-1,31
 168 134 168 134 129.5 201 c 128,-1,32
 91 268 91 268 73 346 c 128,-1,33
 55 424 55 424 55 511 c 0,34,35
 55 623 55 623 84.5 717.5 c 128,-1,36
 114 812 114 812 171.5 883 c 128,-1,37
 229 954 229 954 321.5 994 c 128,-1,38
 414 1034 414 1034 532 1034 c 0,39,40
 767 1034 767 1034 882 872 c 1,0,1
1000 614 m 1,41,-1
 1399 614 l 1,42,43
 1398 857 1398 857 1211 857 c 0,44,45
 1174 857 1174 857 1141.5 845 c 128,-1,46
 1109 833 1109 833 1078.5 807 c 128,-1,47
 1048 781 1048 781 1027 731.5 c 128,-1,48
 1006 682 1006 682 1000 614 c 1,41,-1
531 159 m 0,49,50
 638 159 638 159 703 252.5 c 128,-1,51
 768 346 768 346 768 511 c 0,52,53
 768 681 768 681 704.5 768.5 c 128,-1,54
 641 856 641 856 530 856 c 0,55,56
 421 856 421 856 358 765.5 c 128,-1,57
 295 675 295 675 295 510 c 0,58,59
 295 347 295 347 359 253 c 128,-1,60
 423 159 423 159 531 159 c 0,49,50
EndSplineSet
EndChar

StartChar: uni018F
Encoding: 399 399 309
Width: 1277
GlyphClass: 2
Flags: W
LayerCount: 2
Fore
SplineSet
54 733 m 1,0,-1
 940 733 l 1,1,2
 925 933 925 933 819.5 1042.5 c 128,-1,3
 714 1152 714 1152 529 1152 c 0,4,5
 351 1152 351 1152 192 1059 c 1,6,-1
 184 1054 l 1,7,-1
 101 1231 l 1,8,-1
 107 1236 l 1,9,10
 269 1363 269 1363 540 1363 c 0,11,12
 695 1363 695 1363 822 1310 c 128,-1,13
 949 1257 949 1257 1032 1164 c 128,-1,14
 1115 1071 1115 1071 1159.5 946 c 128,-1,15
 1204 821 1204 821 1204 677 c 0,16,17
 1204 470 1204 470 1124.5 311.5 c 128,-1,18
 1045 153 1045 153 903.5 67.5 c 128,-1,19
 762 -18 762 -18 581 -18 c 0,20,21
 337 -18 337 -18 200 150.5 c 128,-1,22
 63 319 63 319 53 646 c 0,23,24
 52 661 52 661 53 691 c 128,-1,25
 54 721 54 721 54 723 c 2,26,-1
 54 733 l 1,0,-1
590 190 m 0,27,28
 729 190 729 190 815.5 281 c 128,-1,29
 902 372 902 372 928 529 c 1,30,-1
 296 529 l 1,31,32
 310 371 310 371 382 280.5 c 128,-1,33
 454 190 454 190 590 190 c 0,27,28
EndSplineSet
EndChar

StartChar: florin
Encoding: 402 402 310
Width: 923
GlyphClass: 2
Flags: W
LayerCount: 2
Fore
SplineSet
39 -89 m 1,0,-1
 51 -92 l 1,1,2
 58 -95 58 -95 91.5 -104.5 c 128,-1,3
 125 -114 125 -114 133 -114 c 0,4,5
 179 -114 179 -114 205 -73 c 128,-1,6
 231 -32 231 -32 249 43 c 0,7,8
 273 138 273 138 294.5 244.5 c 128,-1,9
 316 351 316 351 342.5 500 c 128,-1,10
 369 649 369 649 381 710 c 1,11,-1
 243 710 l 1,12,-1
 258 893 l 1,13,-1
 414 893 l 1,14,-1
 429 1002 l 1,15,16
 477 1343 477 1343 754 1343 c 0,17,18
 813 1343 813 1343 901 1321 c 1,19,-1
 909 1318 l 1,20,-1
 897 1120 l 1,21,-1
 885 1125 l 2,22,23
 875 1129 875 1129 833.5 1140.5 c 128,-1,24
 792 1152 792 1152 775 1152 c 0,25,26
 716 1152 716 1152 692.5 1127 c 128,-1,27
 669 1102 669 1102 657 1037 c 2,28,-1
 632 897 l 1,29,-1
 802 897 l 1,30,-1
 789 712 l 1,31,-1
 599 712 l 1,32,-1
 489 127 l 2,33,34
 479 77 479 77 471 42.5 c 128,-1,35
 463 8 463 8 448 -40.5 c 128,-1,36
 433 -89 433 -89 416.5 -122 c 128,-1,37
 400 -155 400 -155 373.5 -191 c 128,-1,38
 347 -227 347 -227 315.5 -248.5 c 128,-1,39
 284 -270 284 -270 240 -284.5 c 128,-1,40
 196 -299 196 -299 144 -299 c 0,41,42
 123 -299 123 -299 82 -290.5 c 128,-1,43
 41 -282 41 -282 31 -278 c 1,44,-1
 24 -276 l 1,45,-1
 39 -89 l 1,0,-1
EndSplineSet
EndChar

StartChar: uni0237
Encoding: 567 567 410
Width: 461
GlyphClass: 2
Flags: W
LayerCount: 2
Fore
SplineSet
-39 -322 m 1,0,-1
 -44 -127 l 1,1,-1
 -3 -127 l 2,2,3
 50 -127 50 -127 79.5 -119.5 c 128,-1,4
 109 -112 109 -112 125 -87.5 c 128,-1,5
 141 -63 141 -63 144.5 -32 c 128,-1,6
 148 -1 148 -1 148 61 c 2,7,-1
 148 988 l 1,8,-1
 379 988 l 1,9,-1
 379 99 l 2,10,11
 379 -13 379 -13 363.5 -87 c 128,-1,12
 348 -161 348 -161 307 -216.5 c 128,-1,13
 266 -272 266 -272 192.5 -297 c 128,-1,14
 119 -322 119 -322 6 -322 c 2,15,-1
 -39 -322 l 1,0,-1
EndSplineSet
EndChar

StartChar: afii57929
Encoding: 700 700 412
Width: 334
GlyphClass: 2
Flags: W
LayerCount: 2
Fore
SplineSet
91 877 m 1,0,-1
 85 1357 l 1,1,-1
 287 1357 l 1,2,-1
 236 877 l 1,3,-1
 91 877 l 1,0,-1
EndSplineSet
EndChar

StartChar: circumflex
Encoding: 710 710 413
Width: 680
GlyphClass: 2
Flags: W
LayerCount: 2
Fore
SplineSet
31 1045 m 1,0,-1
 266 1413 l 1,1,-1
 462 1413 l 1,2,-1
 698 1045 l 1,3,-1
 512 1045 l 1,4,-1
 354 1239 l 1,5,-1
 212 1045 l 1,6,-1
 31 1045 l 1,0,-1
EndSplineSet
EndChar

StartChar: caron
Encoding: 711 711 414
Width: 679
GlyphClass: 2
Flags: W
LayerCount: 2
Fore
SplineSet
271 1076 m 1,0,-1
 23 1413 l 1,1,-1
 224 1413 l 1,2,-1
 354 1242 l 1,3,-1
 504 1413 l 1,4,-1
 709 1413 l 1,5,-1
 461 1076 l 1,6,-1
 271 1076 l 1,0,-1
EndSplineSet
EndChar

StartChar: breve
Encoding: 728 728 415
Width: 622
GlyphClass: 2
Flags: W
LayerCount: 2
Fore
SplineSet
586 1345 m 1,0,1
 586 1225 586 1225 511.5 1163.5 c 128,-1,2
 437 1102 437 1102 316 1102 c 0,3,4
 196 1102 196 1102 122 1164 c 128,-1,5
 48 1226 48 1226 48 1345 c 1,6,-1
 216 1345 l 1,7,8
 216 1299 216 1299 238.5 1279.5 c 128,-1,9
 261 1260 261 1260 316 1260 c 128,-1,10
 371 1260 371 1260 394 1279.5 c 128,-1,11
 417 1299 417 1299 417 1345 c 1,12,-1
 586 1345 l 1,0,1
EndSplineSet
EndChar

StartChar: dotaccent
Encoding: 729 729 416
Width: 473
GlyphClass: 2
Flags: W
LayerCount: 2
Fore
SplineSet
135 1129 m 1,0,-1
 135 1342 l 1,1,-1
 333 1342 l 1,2,-1
 333 1129 l 1,3,-1
 135 1129 l 1,0,-1
EndSplineSet
EndChar

StartChar: ring
Encoding: 730 730 417
Width: 581
GlyphClass: 2
Flags: W
LayerCount: 2
Fore
SplineSet
297 1140 m 0,0,1
 337 1140 337 1140 360 1167.5 c 128,-1,2
 383 1195 383 1195 383 1235 c 0,3,4
 383 1274 383 1274 359.5 1302 c 128,-1,5
 336 1330 336 1330 297 1330 c 0,6,7
 259 1330 259 1330 235.5 1301.5 c 128,-1,8
 212 1273 212 1273 212 1235 c 0,9,10
 212 1194 212 1194 234 1167 c 128,-1,11
 256 1140 256 1140 297 1140 c 0,0,1
297 1039 m 128,-1,13
 204 1039 204 1039 147.5 1096.5 c 128,-1,14
 91 1154 91 1154 91 1235 c 128,-1,15
 91 1316 91 1316 147 1373 c 128,-1,16
 203 1430 203 1430 297 1430 c 128,-1,17
 391 1430 391 1430 447 1373 c 128,-1,18
 503 1316 503 1316 503 1235 c 128,-1,19
 503 1154 503 1154 446.5 1096.5 c 128,-1,12
 390 1039 390 1039 297 1039 c 128,-1,13
EndSplineSet
EndChar

StartChar: ogonek
Encoding: 731 731 418
Width: 504
GlyphClass: 2
Flags: W
LayerCount: 2
Fore
SplineSet
290 -340 m 0,0,1
 207 -340 207 -340 151 -296.5 c 128,-1,2
 95 -253 95 -253 95 -172 c 0,3,4
 95 -33 95 -33 269 67 c 1,5,-1
 376 51 l 1,6,7
 270 -31 270 -31 270 -125 c 0,8,9
 270 -152 270 -152 288.5 -173 c 128,-1,10
 307 -194 307 -194 334 -194 c 0,11,12
 383 -194 383 -194 457 -163 c 1,13,-1
 465 -304 l 1,14,15
 371 -340 371 -340 290 -340 c 0,0,1
EndSplineSet
EndChar

StartChar: tilde
Encoding: 732 732 419
Width: 690
GlyphClass: 2
Flags: W
LayerCount: 2
Fore
SplineSet
35 1113 m 1,0,1
 35 1147 35 1147 37.5 1174 c 128,-1,2
 40 1201 40 1201 49.5 1234.5 c 128,-1,3
 59 1268 59 1268 75.5 1291 c 128,-1,4
 92 1314 92 1314 123.5 1329.5 c 128,-1,5
 155 1345 155 1345 197 1345 c 0,6,7
 250 1345 250 1345 314.5 1323.5 c 128,-1,8
 379 1302 379 1302 426.5 1281 c 128,-1,9
 474 1260 474 1260 484 1260 c 0,10,11
 504 1261 504 1261 516 1345 c 1,12,-1
 666 1345 l 1,13,-1
 664 1320 l 2,14,15
 662 1295 662 1295 652.5 1259.5 c 128,-1,16
 643 1224 643 1224 627.5 1188.5 c 128,-1,17
 612 1153 612 1153 580.5 1128 c 128,-1,18
 549 1103 549 1103 508 1103 c 0,19,20
 452 1103 452 1103 346 1148 c 128,-1,21
 240 1193 240 1193 217 1193 c 0,22,23
 196 1193 196 1193 182 1103 c 1,24,-1
 35 1113 l 1,0,1
EndSplineSet
EndChar

StartChar: hungarumlaut
Encoding: 733 733 420
Width: 867
GlyphClass: 2
Flags: W
LayerCount: 2
Fore
SplineSet
123 1046 m 1,0,-1
 355 1386 l 1,1,-1
 581 1386 l 1,2,-1
 266 1046 l 1,3,-1
 123 1046 l 1,0,-1
397 1046 m 1,4,-1
 634 1386 l 1,5,-1
 863 1386 l 1,6,-1
 538 1046 l 1,7,-1
 397 1046 l 1,4,-1
EndSplineSet
EndChar

StartChar: uni0307
Encoding: 775 775 421
Width: 451
GlyphClass: 2
Flags: W
LayerCount: 2
Fore
SplineSet
135 1095 m 1,0,-1
 135 1307 l 1,1,-1
 333 1307 l 1,2,-1
 333 1095 l 1,3,-1
 135 1095 l 1,0,-1
EndSplineSet
EndChar

StartChar: uni030F
Encoding: 783 783 422
Width: 866
GlyphClass: 2
Flags: W
LayerCount: 2
Fore
SplineSet
282 1083 m 1,0,-1
 -13 1405 l 1,1,-1
 259 1405 l 1,2,-1
 454 1083 l 1,3,-1
 282 1083 l 1,0,-1
610 1083 m 1,4,-1
 323 1405 l 1,5,-1
 585 1405 l 1,6,-1
 801 1083 l 1,7,-1
 610 1083 l 1,4,-1
EndSplineSet
EndChar

StartChar: uni0311
Encoding: 785 785 423
Width: 625
GlyphClass: 2
Flags: W
LayerCount: 2
Fore
SplineSet
217 1122 m 1,0,-1
 49 1122 l 1,1,2
 49 1194 49 1194 89.5 1245.5 c 128,-1,3
 130 1297 130 1297 190 1320.5 c 128,-1,4
 250 1344 250 1344 320 1344 c 0,5,6
 428 1344 428 1344 507.5 1286 c 128,-1,7
 587 1228 587 1228 587 1122 c 1,8,-1
 418 1122 l 1,9,10
 418 1164 418 1164 388.5 1185.5 c 128,-1,11
 359 1207 359 1207 316 1207 c 0,12,13
 275 1207 275 1207 246 1185 c 128,-1,14
 217 1163 217 1163 217 1122 c 1,0,-1
EndSplineSet
EndChar

StartChar: uni031B
Encoding: 795 795 424
Width: 516
GlyphClass: 2
Flags: W
LayerCount: 2
Fore
SplineSet
111 266 m 1,0,-1
 120 266 l 2,1,2
 127 266 127 266 142 265.5 c 128,-1,3
 157 265 157 265 164 265 c 0,4,5
 222 265 222 265 222 343 c 0,6,7
 222 399 222 399 196 471 c 1,8,-1
 191 484 l 1,9,-1
 316 484 l 1,10,-1
 317 478 l 1,11,12
 346 407 346 407 346 342 c 0,13,14
 346 265 346 265 308.5 211.5 c 128,-1,15
 271 158 271 158 202 158 c 0,16,17
 175 158 175 158 119 164 c 2,18,-1
 111 165 l 1,19,-1
 111 266 l 1,0,-1
EndSplineSet
EndChar

StartChar: uni0326
Encoding: 806 806 425
Width: 490
GlyphClass: 2
Flags: W
LayerCount: 2
Fore
SplineSet
69 -599 m 1,0,-1
 170 -120 l 1,1,-1
 392 -120 l 1,2,-1
 237 -599 l 1,3,-1
 69 -599 l 1,0,-1
EndSplineSet
EndChar

StartChar: tonos
Encoding: 900 900 426
Width: 407
GlyphClass: 2
Flags: W
LayerCount: 2
Fore
SplineSet
215 483 m 128,-1,1
 155 483 155 483 121 521 c 128,-1,2
 87 559 87 559 87 610 c 128,-1,3
 87 661 87 661 121 699 c 128,-1,4
 155 737 155 737 215 737 c 128,-1,5
 275 737 275 737 308.5 699 c 128,-1,6
 342 661 342 661 342 610 c 128,-1,7
 342 559 342 559 308.5 521 c 128,-1,0
 275 483 275 483 215 483 c 128,-1,1
EndSplineSet
EndChar

StartChar: dieresistonos
Encoding: 901 901 427
Width: 407
GlyphClass: 2
Flags: W
LayerCount: 2
Fore
SplineSet
215 483 m 128,-1,1
 155 483 155 483 121 521 c 128,-1,2
 87 559 87 559 87 610 c 128,-1,3
 87 661 87 661 121 699 c 128,-1,4
 155 737 155 737 215 737 c 128,-1,5
 275 737 275 737 308.5 699 c 128,-1,6
 342 661 342 661 342 610 c 128,-1,7
 342 559 342 559 308.5 521 c 128,-1,0
 275 483 275 483 215 483 c 128,-1,1
EndSplineSet
EndChar

StartChar: Alphatonos
Encoding: 902 902 428
Width: 407
GlyphClass: 2
Flags: W
LayerCount: 2
Fore
SplineSet
215 483 m 128,-1,1
 155 483 155 483 121 521 c 128,-1,2
 87 559 87 559 87 610 c 128,-1,3
 87 661 87 661 121 699 c 128,-1,4
 155 737 155 737 215 737 c 128,-1,5
 275 737 275 737 308.5 699 c 128,-1,6
 342 661 342 661 342 610 c 128,-1,7
 342 559 342 559 308.5 521 c 128,-1,0
 275 483 275 483 215 483 c 128,-1,1
EndSplineSet
EndChar

StartChar: Epsilontonos
Encoding: 904 904 429
Width: 407
GlyphClass: 2
Flags: W
LayerCount: 2
Fore
SplineSet
215 483 m 128,-1,1
 155 483 155 483 121 521 c 128,-1,2
 87 559 87 559 87 610 c 128,-1,3
 87 661 87 661 121 699 c 128,-1,4
 155 737 155 737 215 737 c 128,-1,5
 275 737 275 737 308.5 699 c 128,-1,6
 342 661 342 661 342 610 c 128,-1,7
 342 559 342 559 308.5 521 c 128,-1,0
 275 483 275 483 215 483 c 128,-1,1
EndSplineSet
EndChar

StartChar: Etatonos
Encoding: 905 905 430
Width: 407
GlyphClass: 2
Flags: W
LayerCount: 2
Fore
SplineSet
215 483 m 128,-1,1
 155 483 155 483 121 521 c 128,-1,2
 87 559 87 559 87 610 c 128,-1,3
 87 661 87 661 121 699 c 128,-1,4
 155 737 155 737 215 737 c 128,-1,5
 275 737 275 737 308.5 699 c 128,-1,6
 342 661 342 661 342 610 c 128,-1,7
 342 559 342 559 308.5 521 c 128,-1,0
 275 483 275 483 215 483 c 128,-1,1
EndSplineSet
EndChar

StartChar: Iotatonos
Encoding: 906 906 431
Width: 407
GlyphClass: 2
Flags: W
LayerCount: 2
Fore
SplineSet
215 483 m 128,-1,1
 155 483 155 483 121 521 c 128,-1,2
 87 559 87 559 87 610 c 128,-1,3
 87 661 87 661 121 699 c 128,-1,4
 155 737 155 737 215 737 c 128,-1,5
 275 737 275 737 308.5 699 c 128,-1,6
 342 661 342 661 342 610 c 128,-1,7
 342 559 342 559 308.5 521 c 128,-1,0
 275 483 275 483 215 483 c 128,-1,1
EndSplineSet
EndChar

StartChar: Omicrontonos
Encoding: 908 908 432
Width: 407
GlyphClass: 2
Flags: W
LayerCount: 2
Fore
SplineSet
215 483 m 128,-1,1
 155 483 155 483 121 521 c 128,-1,2
 87 559 87 559 87 610 c 128,-1,3
 87 661 87 661 121 699 c 128,-1,4
 155 737 155 737 215 737 c 128,-1,5
 275 737 275 737 308.5 699 c 128,-1,6
 342 661 342 661 342 610 c 128,-1,7
 342 559 342 559 308.5 521 c 128,-1,0
 275 483 275 483 215 483 c 128,-1,1
EndSplineSet
EndChar

StartChar: Upsilontonos
Encoding: 910 910 433
Width: 407
GlyphClass: 2
Flags: W
LayerCount: 2
Fore
SplineSet
215 483 m 128,-1,1
 155 483 155 483 121 521 c 128,-1,2
 87 559 87 559 87 610 c 128,-1,3
 87 661 87 661 121 699 c 128,-1,4
 155 737 155 737 215 737 c 128,-1,5
 275 737 275 737 308.5 699 c 128,-1,6
 342 661 342 661 342 610 c 128,-1,7
 342 559 342 559 308.5 521 c 128,-1,0
 275 483 275 483 215 483 c 128,-1,1
EndSplineSet
EndChar

StartChar: Omegatonos
Encoding: 911 911 434
Width: 407
GlyphClass: 2
Flags: W
LayerCount: 2
Fore
SplineSet
215 483 m 128,-1,1
 155 483 155 483 121 521 c 128,-1,2
 87 559 87 559 87 610 c 128,-1,3
 87 661 87 661 121 699 c 128,-1,4
 155 737 155 737 215 737 c 128,-1,5
 275 737 275 737 308.5 699 c 128,-1,6
 342 661 342 661 342 610 c 128,-1,7
 342 559 342 559 308.5 521 c 128,-1,0
 275 483 275 483 215 483 c 128,-1,1
EndSplineSet
EndChar

StartChar: iotadieresistonos
Encoding: 912 912 435
Width: 407
GlyphClass: 2
Flags: W
LayerCount: 2
Fore
SplineSet
217 1602 m 128,-1,1
 157 1602 157 1602 123 1640 c 128,-1,2
 89 1678 89 1678 89 1729 c 128,-1,3
 89 1780 89 1780 123 1818 c 128,-1,4
 157 1856 157 1856 217 1856 c 128,-1,5
 277 1856 277 1856 310.5 1818 c 128,-1,6
 344 1780 344 1780 344 1729 c 128,-1,7
 344 1678 344 1678 310.5 1640 c 128,-1,0
 277 1602 277 1602 217 1602 c 128,-1,1
215 483 m 128,-1,9
 155 483 155 483 121 521 c 128,-1,10
 87 559 87 559 87 610 c 128,-1,11
 87 661 87 661 121 699 c 128,-1,12
 155 737 155 737 215 737 c 128,-1,13
 275 737 275 737 308.5 699 c 128,-1,14
 342 661 342 661 342 610 c 128,-1,15
 342 559 342 559 308.5 521 c 128,-1,8
 275 483 275 483 215 483 c 128,-1,9
EndSplineSet
EndChar

StartChar: Alpha
Encoding: 913 913 436
Width: 1194
GlyphClass: 2
Flags: W
LayerCount: 2
Fore
SplineSet
476 577 m 1,0,-1
 754 577 l 1,1,2
 745 605 745 605 689 801 c 128,-1,3
 633 997 633 997 616 1054 c 1,4,5
 599 1001 599 1001 542 803.5 c 128,-1,6
 485 606 485 606 476 577 c 1,0,-1
941 0 m 1,7,-1
 814 368 l 1,8,-1
 414 368 l 1,9,-1
 294 0 l 1,10,-1
 -7 0 l 1,11,-1
 449 1342 l 1,12,-1
 781 1342 l 1,13,-1
 1230 0 l 1,14,-1
 941 0 l 1,7,-1
EndSplineSet
EndChar

StartChar: Beta
Encoding: 914 914 437
Width: 1169
GlyphClass: 2
Flags: W
LayerCount: 2
Fore
SplineSet
118 0 m 1,0,-1
 118 1342 l 1,1,-1
 585 1342 l 2,2,3
 844 1342 844 1342 974 1263 c 128,-1,4
 1104 1184 1104 1184 1104 1000 c 0,5,6
 1104 967 1104 967 1094.5 930.5 c 128,-1,7
 1085 894 1085 894 1065 853.5 c 128,-1,8
 1045 813 1045 813 1006.5 776 c 128,-1,9
 968 739 968 739 917 715 c 1,10,11
 1026 677 1026 677 1089 593 c 128,-1,12
 1152 509 1152 509 1152 393 c 0,13,14
 1152 202 1152 202 1018.5 101 c 128,-1,15
 885 0 885 0 654 0 c 2,16,-1
 118 0 l 1,0,-1
406 604 m 1,17,-1
 406 220 l 1,18,-1
 602 220 l 2,19,20
 738 220 738 220 801 264 c 128,-1,21
 864 308 864 308 864 412 c 0,22,23
 864 517 864 517 800.5 560.5 c 128,-1,24
 737 604 737 604 596 604 c 2,25,-1
 406 604 l 1,17,-1
406 1122 m 1,26,-1
 406 793 l 1,27,-1
 599 793 l 2,28,29
 716 793 716 793 770 830 c 128,-1,30
 824 867 824 867 824 956 c 0,31,32
 824 1054 824 1054 761.5 1088 c 128,-1,33
 699 1122 699 1122 551 1122 c 2,34,-1
 406 1122 l 1,26,-1
EndSplineSet
EndChar

StartChar: Delta
Encoding: 916 916 438
Width: 1110
GlyphClass: 2
Flags: W
LayerCount: 2
Fore
SplineSet
-16 0 m 1,0,-1
 455 1375 l 1,1,-1
 675 1375 l 1,2,-1
 1146 0 l 1,3,-1
 -16 0 l 1,0,-1
872 187 m 1,4,-1
 566 1131 l 1,5,-1
 265 187 l 1,6,-1
 872 187 l 1,4,-1
EndSplineSet
EndChar

StartChar: Epsilon
Encoding: 917 917 439
Width: 1009
GlyphClass: 2
Flags: W
LayerCount: 2
Fore
SplineSet
416 1122 m 1,0,-1
 416 805 l 1,1,-1
 920 805 l 1,2,-1
 920 595 l 1,3,-1
 416 595 l 1,4,-1
 416 220 l 1,5,-1
 968 220 l 1,6,-1
 961 0 l 1,7,-1
 128 0 l 1,8,-1
 128 1342 l 1,9,-1
 958 1342 l 1,10,-1
 947 1122 l 1,11,-1
 416 1122 l 1,0,-1
EndSplineSet
EndChar

StartChar: Zeta
Encoding: 918 918 440
Width: 1060
GlyphClass: 2
Flags: W
LayerCount: 2
Fore
SplineSet
93 1342 m 1,0,-1
 1054 1342 l 1,1,-1
 1054 1150 l 1,2,-1
 395 220 l 1,3,-1
 1060 220 l 1,4,-1
 1058 0 l 1,5,-1
 70 0 l 1,6,-1
 70 172 l 1,7,-1
 742 1122 l 1,8,-1
 92 1122 l 1,9,-1
 93 1342 l 1,0,-1
EndSplineSet
EndChar

StartChar: Eta
Encoding: 919 919 441
Width: 1337
GlyphClass: 2
Flags: W
LayerCount: 2
Fore
SplineSet
962 804 m 1,0,-1
 962 1342 l 1,1,-1
 1250 1342 l 1,2,-1
 1250 0 l 1,3,-1
 962 0 l 1,4,-1
 962 578 l 1,5,-1
 418 578 l 1,6,-1
 418 0 l 1,7,-1
 130 0 l 1,8,-1
 130 1342 l 1,9,-1
 418 1342 l 1,10,-1
 418 804 l 1,11,-1
 962 804 l 1,0,-1
EndSplineSet
EndChar

StartChar: Theta
Encoding: 920 920 442
Width: 407
GlyphClass: 2
Flags: W
LayerCount: 2
Fore
SplineSet
215 483 m 128,-1,1
 155 483 155 483 121 521 c 128,-1,2
 87 559 87 559 87 610 c 128,-1,3
 87 661 87 661 121 699 c 128,-1,4
 155 737 155 737 215 737 c 128,-1,5
 275 737 275 737 308.5 699 c 128,-1,6
 342 661 342 661 342 610 c 128,-1,7
 342 559 342 559 308.5 521 c 128,-1,0
 275 483 275 483 215 483 c 128,-1,1
EndSplineSet
EndChar

StartChar: Iota
Encoding: 921 921 443
Width: 527
GlyphClass: 2
Flags: W
LayerCount: 2
Fore
SplineSet
130 0 m 1,0,-1
 130 1342 l 1,1,-1
 418 1342 l 1,2,-1
 418 0 l 1,3,-1
 130 0 l 1,0,-1
EndSplineSet
EndChar

StartChar: Kappa
Encoding: 922 922 444
Width: 1179
GlyphClass: 2
Flags: W
LayerCount: 2
Fore
SplineSet
416 516 m 1,0,-1
 416 0 l 1,1,-1
 128 0 l 1,2,-1
 128 1342 l 1,3,-1
 416 1342 l 1,4,-1
 416 765 l 1,5,6
 482 853 482 853 664 1070.5 c 128,-1,7
 846 1288 846 1288 882 1334 c 1,8,-1
 884 1342 l 1,9,-1
 1196 1342 l 1,10,-1
 700 737 l 1,11,-1
 1226 0 l 1,12,-1
 919 0 l 1,13,-1
 503 589 l 1,14,15
 487 576 487 576 458 551.5 c 128,-1,16
 429 527 429 527 416 516 c 1,0,-1
EndSplineSet
EndChar

StartChar: Lambda
Encoding: 923 923 445
Width: 1110
GlyphClass: 2
Flags: W
LayerCount: 2
Fore
SplineSet
964 0 m 1,0,-1
 565 1155 l 1,1,-1
 170 0 l 1,2,-1
 -17 0 l 1,3,-1
 476 1370 l 1,4,-1
 652 1370 l 1,5,-1
 1146 0 l 1,6,-1
 964 0 l 1,0,-1
EndSplineSet
EndChar

StartChar: Mu
Encoding: 924 924 446
Width: 1621
GlyphClass: 2
Flags: W
LayerCount: 2
Fore
SplineSet
1223 1342 m 1,0,-1
 1522 1342 l 1,1,-1
 1522 0 l 1,2,-1
 1278 0 l 1,3,-1
 1278 658 l 1,4,-1
 1284 968 l 1,5,-1
 1271 929 l 1,6,-1
 940 89 l 1,7,-1
 720 89 l 1,8,-1
 396 934 l 1,9,-1
 382 974 l 1,10,-1
 388 655 l 1,11,-1
 388 0 l 1,12,-1
 152 0 l 1,13,-1
 152 1342 l 1,14,-1
 453 1342 l 1,15,-1
 837 407 l 1,16,-1
 1223 1342 l 1,0,-1
EndSplineSet
EndChar

StartChar: Nu
Encoding: 925 925 447
Width: 1367
GlyphClass: 2
Flags: W
LayerCount: 2
Fore
SplineSet
1015 384 m 1,0,1
 1015 418 1015 418 1010 520.5 c 128,-1,2
 1005 623 1005 623 1000.5 711 c 128,-1,3
 996 799 996 799 996 801 c 2,4,-1
 996 1342 l 1,5,-1
 1282 1342 l 1,6,-1
 1282 0 l 1,7,-1
 975 0 l 1,8,-1
 387 945 l 1,9,10
 415 430 415 430 415 409 c 2,11,-1
 415 0 l 1,12,-1
 130 0 l 1,13,-1
 130 1342 l 1,14,-1
 426 1342 l 1,15,-1
 1015 384 l 1,0,1
EndSplineSet
EndChar

StartChar: Xi
Encoding: 926 926 448
Width: 407
GlyphClass: 2
Flags: W
LayerCount: 2
Fore
SplineSet
215 483 m 128,-1,1
 155 483 155 483 121 521 c 128,-1,2
 87 559 87 559 87 610 c 128,-1,3
 87 661 87 661 121 699 c 128,-1,4
 155 737 155 737 215 737 c 128,-1,5
 275 737 275 737 308.5 699 c 128,-1,6
 342 661 342 661 342 610 c 128,-1,7
 342 559 342 559 308.5 521 c 128,-1,0
 275 483 275 483 215 483 c 128,-1,1
EndSplineSet
EndChar

StartChar: Omicron
Encoding: 927 927 449
Width: 1431
GlyphClass: 2
Flags: W
LayerCount: 2
Fore
SplineSet
737 -16 m 128,-1,1
 440 -16 440 -16 265 167 c 128,-1,2
 90 350 90 350 90 671 c 0,3,4
 90 994 90 994 265.5 1176.5 c 128,-1,5
 441 1359 441 1359 738 1359 c 128,-1,6
 1035 1359 1035 1359 1211.5 1176 c 128,-1,7
 1388 993 1388 993 1388 671 c 0,8,9
 1388 351 1388 351 1211 167.5 c 128,-1,0
 1034 -16 1034 -16 737 -16 c 128,-1,1
738 212 m 128,-1,11
 918 212 918 212 1009 334 c 128,-1,12
 1100 456 1100 456 1100 669 c 0,13,14
 1100 885 1100 885 1009.5 1007 c 128,-1,15
 919 1129 919 1129 739 1129 c 128,-1,16
 559 1129 559 1129 468.5 1007 c 128,-1,17
 378 885 378 885 378 669 c 0,18,19
 378 456 378 456 468 334 c 128,-1,10
 558 212 558 212 738 212 c 128,-1,11
EndSplineSet
EndChar

StartChar: Pi
Encoding: 928 928 450
Width: 1288
GlyphClass: 2
Flags: W
LayerCount: 2
Fore
SplineSet
1001 0 m 1,0,-1
 1001 1215 l 1,1,-1
 302 1215 l 1,2,-1
 302 0 l 1,3,-1
 125 0 l 1,4,-1
 125 1370 l 1,5,-1
 1178 1370 l 1,6,-1
 1178 0 l 1,7,-1
 1001 0 l 1,0,-1
EndSplineSet
EndChar

StartChar: Rho
Encoding: 929 929 451
Width: 1075
GlyphClass: 2
Flags: W
LayerCount: 2
Fore
SplineSet
128 0 m 1,0,-1
 128 1342 l 1,1,-1
 599 1342 l 2,2,3
 752 1342 752 1342 867 1297 c 128,-1,4
 982 1252 982 1252 1051 1155 c 128,-1,5
 1120 1058 1120 1058 1120 919 c 0,6,7
 1120 824 1120 824 1092.5 748 c 128,-1,8
 1065 672 1065 672 1006 610.5 c 128,-1,9
 947 549 947 549 843.5 515.5 c 128,-1,10
 740 482 740 482 599 482 c 0,11,12
 494 482 494 482 416 489 c 1,13,-1
 416 0 l 1,14,-1
 128 0 l 1,0,-1
573 677 m 0,15,16
 632 677 632 677 677 686 c 128,-1,17
 722 695 722 695 749.5 713 c 128,-1,18
 777 731 777 731 794.5 751 c 128,-1,19
 812 771 812 771 819.5 801 c 128,-1,20
 827 831 827 831 829.5 854 c 128,-1,21
 832 877 832 877 832 911 c 0,22,23
 832 1018 832 1018 776 1070 c 128,-1,24
 720 1122 720 1122 600 1122 c 2,25,-1
 416 1122 l 1,26,-1
 416 678 l 1,27,28
 444 677 444 677 573 677 c 0,15,16
EndSplineSet
EndChar

StartChar: Sigma
Encoding: 931 931 452
Width: 1009
GlyphClass: 2
Flags: W
LayerCount: 2
Fore
SplineSet
416 1122 m 1,0,-1
 416 805 l 1,1,-1
 920 805 l 1,2,-1
 920 595 l 1,3,-1
 416 595 l 1,4,-1
 416 220 l 1,5,-1
 968 220 l 1,6,-1
 961 0 l 1,7,-1
 128 0 l 1,8,-1
 128 1342 l 1,9,-1
 958 1342 l 1,10,-1
 947 1122 l 1,11,-1
 416 1122 l 1,0,-1
EndSplineSet
EndChar

StartChar: Tau
Encoding: 932 932 453
Width: 997
GlyphClass: 2
Flags: W
LayerCount: 2
Fore
SplineSet
1073 1342 m 1,0,-1
 1073 1122 l 1,1,-1
 704 1122 l 1,2,-1
 704 0 l 1,3,-1
 416 0 l 1,4,-1
 416 1122 l 1,5,-1
 49 1122 l 1,6,-1
 49 1342 l 1,7,-1
 1073 1342 l 1,0,-1
EndSplineSet
EndChar

StartChar: Upsilon
Encoding: 933 933 454
Width: 1101
GlyphClass: 2
Flags: W
LayerCount: 2
Fore
SplineSet
584 786 m 1,0,-1
 886 1342 l 1,1,-1
 1169 1342 l 1,2,-1
 714 536 l 1,3,-1
 714 0 l 1,4,-1
 454 0 l 1,5,-1
 454 532 l 1,6,-1
 0 1342 l 1,7,-1
 283 1342 l 1,8,-1
 584 786 l 1,0,-1
EndSplineSet
EndChar

StartChar: Phi
Encoding: 934 934 455
Width: 1462
GlyphClass: 2
Flags: W
LayerCount: 2
Fore
SplineSet
824 0 m 1,0,-1
 649 0 l 1,1,-1
 649 154 l 1,2,3
 469 170 469 170 340.5 245.5 c 128,-1,4
 212 321 212 321 148 439 c 128,-1,5
 84 557 84 557 84 706 c 0,6,7
 84 932 84 932 233.5 1077 c 128,-1,8
 383 1222 383 1222 649 1244 c 1,9,-1
 649 1370 l 1,10,-1
 824 1370 l 1,11,-1
 824 1244 l 1,12,13
 1091 1222 1091 1222 1242.5 1077.5 c 128,-1,14
 1394 933 1394 933 1394 706 c 128,-1,15
 1394 479 1394 479 1245.5 328 c 128,-1,16
 1097 177 1097 177 824 154 c 1,17,-1
 824 0 l 1,0,-1
649 317 m 1,18,-1
 649 1081 l 1,19,20
 464 1061 464 1061 367.5 962.5 c 128,-1,21
 271 864 271 864 271 706 c 0,22,23
 271 549 271 549 365 444 c 128,-1,24
 459 339 459 339 649 317 c 1,18,-1
824 1081 m 1,25,-1
 824 317 l 1,26,27
 1014 338 1014 338 1110 443 c 128,-1,28
 1206 548 1206 548 1206 706 c 0,29,30
 1206 863 1206 863 1109 962.5 c 128,-1,31
 1012 1062 1012 1062 824 1081 c 1,25,-1
EndSplineSet
EndChar

StartChar: Chi
Encoding: 935 935 456
Width: 1174
GlyphClass: 2
Flags: W
LayerCount: 2
Fore
SplineSet
800 682 m 1,0,-1
 1258 0 l 1,1,-1
 956 0 l 1,2,-1
 636 508 l 1,3,-1
 308 0 l 1,4,-1
 22 0 l 1,5,-1
 481 687 l 1,6,-1
 54 1342 l 1,7,-1
 349 1342 l 1,8,-1
 648 856 l 1,9,-1
 955 1342 l 1,10,-1
 1236 1342 l 1,11,-1
 800 682 l 1,0,-1
EndSplineSet
EndChar

StartChar: Psi
Encoding: 936 936 457
Width: 407
GlyphClass: 2
Flags: W
LayerCount: 2
Fore
SplineSet
215 483 m 128,-1,1
 155 483 155 483 121 521 c 128,-1,2
 87 559 87 559 87 610 c 128,-1,3
 87 661 87 661 121 699 c 128,-1,4
 155 737 155 737 215 737 c 128,-1,5
 275 737 275 737 308.5 699 c 128,-1,6
 342 661 342 661 342 610 c 128,-1,7
 342 559 342 559 308.5 521 c 128,-1,0
 275 483 275 483 215 483 c 128,-1,1
EndSplineSet
EndChar

StartChar: Iotadieresis
Encoding: 938 938 458
Width: 527
GlyphClass: 2
Flags: W
LayerCount: 2
Fore
SplineSet
154 1699 m 1,0,-1
 154 1454 l 1,1,-1
 -40 1454 l 1,2,-1
 -40 1699 l 1,3,-1
 154 1699 l 1,0,-1
529 1699 m 1,4,-1
 529 1454 l 1,5,-1
 336 1454 l 1,6,-1
 336 1699 l 1,7,-1
 529 1699 l 1,4,-1
130 0 m 1,8,-1
 130 1342 l 1,9,-1
 418 1342 l 1,10,-1
 418 0 l 1,11,-1
 130 0 l 1,8,-1
EndSplineSet
EndChar

StartChar: Upsilondieresis
Encoding: 939 939 459
Width: 1101
GlyphClass: 2
Flags: W
LayerCount: 2
Fore
SplineSet
473 1699 m 1,0,-1
 473 1454 l 1,1,-1
 279 1454 l 1,2,-1
 279 1699 l 1,3,-1
 473 1699 l 1,0,-1
848 1699 m 1,4,-1
 848 1454 l 1,5,-1
 655 1454 l 1,6,-1
 655 1699 l 1,7,-1
 848 1699 l 1,4,-1
584 786 m 1,8,-1
 886 1342 l 1,9,-1
 1169 1342 l 1,10,-1
 714 536 l 1,11,-1
 714 0 l 1,12,-1
 454 0 l 1,13,-1
 454 532 l 1,14,-1
 0 1342 l 1,15,-1
 283 1342 l 1,16,-1
 584 786 l 1,8,-1
EndSplineSet
EndChar

StartChar: alphatonos
Encoding: 940 940 460
Width: 407
GlyphClass: 2
Flags: W
LayerCount: 2
Fore
SplineSet
215 483 m 128,-1,1
 155 483 155 483 121 521 c 128,-1,2
 87 559 87 559 87 610 c 128,-1,3
 87 661 87 661 121 699 c 128,-1,4
 155 737 155 737 215 737 c 128,-1,5
 275 737 275 737 308.5 699 c 128,-1,6
 342 661 342 661 342 610 c 128,-1,7
 342 559 342 559 308.5 521 c 128,-1,0
 275 483 275 483 215 483 c 128,-1,1
EndSplineSet
EndChar

StartChar: epsilontonos
Encoding: 941 941 461
Width: 407
GlyphClass: 2
Flags: W
LayerCount: 2
Fore
SplineSet
215 483 m 128,-1,1
 155 483 155 483 121 521 c 128,-1,2
 87 559 87 559 87 610 c 128,-1,3
 87 661 87 661 121 699 c 128,-1,4
 155 737 155 737 215 737 c 128,-1,5
 275 737 275 737 308.5 699 c 128,-1,6
 342 661 342 661 342 610 c 128,-1,7
 342 559 342 559 308.5 521 c 128,-1,0
 275 483 275 483 215 483 c 128,-1,1
EndSplineSet
EndChar

StartChar: etatonos
Encoding: 942 942 462
Width: 407
GlyphClass: 2
Flags: W
LayerCount: 2
Fore
SplineSet
215 483 m 128,-1,1
 155 483 155 483 121 521 c 128,-1,2
 87 559 87 559 87 610 c 128,-1,3
 87 661 87 661 121 699 c 128,-1,4
 155 737 155 737 215 737 c 128,-1,5
 275 737 275 737 308.5 699 c 128,-1,6
 342 661 342 661 342 610 c 128,-1,7
 342 559 342 559 308.5 521 c 128,-1,0
 275 483 275 483 215 483 c 128,-1,1
EndSplineSet
EndChar

StartChar: iotatonos
Encoding: 943 943 463
Width: 407
GlyphClass: 2
Flags: W
LayerCount: 2
Fore
SplineSet
215 483 m 128,-1,1
 155 483 155 483 121 521 c 128,-1,2
 87 559 87 559 87 610 c 128,-1,3
 87 661 87 661 121 699 c 128,-1,4
 155 737 155 737 215 737 c 128,-1,5
 275 737 275 737 308.5 699 c 128,-1,6
 342 661 342 661 342 610 c 128,-1,7
 342 559 342 559 308.5 521 c 128,-1,0
 275 483 275 483 215 483 c 128,-1,1
EndSplineSet
EndChar

StartChar: upsilondieresistonos
Encoding: 944 944 464
Width: 407
GlyphClass: 2
Flags: W
LayerCount: 2
Fore
SplineSet
215 483 m 128,-1,1
 155 483 155 483 121 521 c 128,-1,2
 87 559 87 559 87 610 c 128,-1,3
 87 661 87 661 121 699 c 128,-1,4
 155 737 155 737 215 737 c 128,-1,5
 275 737 275 737 308.5 699 c 128,-1,6
 342 661 342 661 342 610 c 128,-1,7
 342 559 342 559 308.5 521 c 128,-1,0
 275 483 275 483 215 483 c 128,-1,1
EndSplineSet
EndChar

StartChar: alpha
Encoding: 945 945 465
Width: 407
GlyphClass: 2
Flags: W
LayerCount: 2
Fore
SplineSet
215 483 m 128,-1,1
 155 483 155 483 121 521 c 128,-1,2
 87 559 87 559 87 610 c 128,-1,3
 87 661 87 661 121 699 c 128,-1,4
 155 737 155 737 215 737 c 128,-1,5
 275 737 275 737 308.5 699 c 128,-1,6
 342 661 342 661 342 610 c 128,-1,7
 342 559 342 559 308.5 521 c 128,-1,0
 275 483 275 483 215 483 c 128,-1,1
EndSplineSet
EndChar

StartChar: beta
Encoding: 946 946 466
Width: 407
GlyphClass: 2
Flags: W
LayerCount: 2
Fore
SplineSet
215 483 m 128,-1,1
 155 483 155 483 121 521 c 128,-1,2
 87 559 87 559 87 610 c 128,-1,3
 87 661 87 661 121 699 c 128,-1,4
 155 737 155 737 215 737 c 128,-1,5
 275 737 275 737 308.5 699 c 128,-1,6
 342 661 342 661 342 610 c 128,-1,7
 342 559 342 559 308.5 521 c 128,-1,0
 275 483 275 483 215 483 c 128,-1,1
EndSplineSet
EndChar

StartChar: gamma
Encoding: 947 947 467
Width: 407
GlyphClass: 2
Flags: W
LayerCount: 2
Fore
SplineSet
215 483 m 128,-1,1
 155 483 155 483 121 521 c 128,-1,2
 87 559 87 559 87 610 c 128,-1,3
 87 661 87 661 121 699 c 128,-1,4
 155 737 155 737 215 737 c 128,-1,5
 275 737 275 737 308.5 699 c 128,-1,6
 342 661 342 661 342 610 c 128,-1,7
 342 559 342 559 308.5 521 c 128,-1,0
 275 483 275 483 215 483 c 128,-1,1
EndSplineSet
EndChar

StartChar: delta
Encoding: 948 948 468
Width: 407
GlyphClass: 2
Flags: W
LayerCount: 2
Fore
SplineSet
215 483 m 128,-1,1
 155 483 155 483 121 521 c 128,-1,2
 87 559 87 559 87 610 c 128,-1,3
 87 661 87 661 121 699 c 128,-1,4
 155 737 155 737 215 737 c 128,-1,5
 275 737 275 737 308.5 699 c 128,-1,6
 342 661 342 661 342 610 c 128,-1,7
 342 559 342 559 308.5 521 c 128,-1,0
 275 483 275 483 215 483 c 128,-1,1
EndSplineSet
EndChar

StartChar: epsilon
Encoding: 949 949 469
Width: 407
GlyphClass: 2
Flags: W
LayerCount: 2
Fore
SplineSet
215 483 m 128,-1,1
 155 483 155 483 121 521 c 128,-1,2
 87 559 87 559 87 610 c 128,-1,3
 87 661 87 661 121 699 c 128,-1,4
 155 737 155 737 215 737 c 128,-1,5
 275 737 275 737 308.5 699 c 128,-1,6
 342 661 342 661 342 610 c 128,-1,7
 342 559 342 559 308.5 521 c 128,-1,0
 275 483 275 483 215 483 c 128,-1,1
EndSplineSet
EndChar

StartChar: zeta
Encoding: 950 950 470
Width: 407
GlyphClass: 2
Flags: W
LayerCount: 2
Fore
SplineSet
215 483 m 128,-1,1
 155 483 155 483 121 521 c 128,-1,2
 87 559 87 559 87 610 c 128,-1,3
 87 661 87 661 121 699 c 128,-1,4
 155 737 155 737 215 737 c 128,-1,5
 275 737 275 737 308.5 699 c 128,-1,6
 342 661 342 661 342 610 c 128,-1,7
 342 559 342 559 308.5 521 c 128,-1,0
 275 483 275 483 215 483 c 128,-1,1
EndSplineSet
EndChar

StartChar: eta
Encoding: 951 951 471
Width: 407
GlyphClass: 2
Flags: W
LayerCount: 2
Fore
SplineSet
215 483 m 128,-1,1
 155 483 155 483 121 521 c 128,-1,2
 87 559 87 559 87 610 c 128,-1,3
 87 661 87 661 121 699 c 128,-1,4
 155 737 155 737 215 737 c 128,-1,5
 275 737 275 737 308.5 699 c 128,-1,6
 342 661 342 661 342 610 c 128,-1,7
 342 559 342 559 308.5 521 c 128,-1,0
 275 483 275 483 215 483 c 128,-1,1
EndSplineSet
EndChar

StartChar: theta
Encoding: 952 952 472
Width: 407
GlyphClass: 2
Flags: W
LayerCount: 2
Fore
SplineSet
215 483 m 128,-1,1
 155 483 155 483 121 521 c 128,-1,2
 87 559 87 559 87 610 c 128,-1,3
 87 661 87 661 121 699 c 128,-1,4
 155 737 155 737 215 737 c 128,-1,5
 275 737 275 737 308.5 699 c 128,-1,6
 342 661 342 661 342 610 c 128,-1,7
 342 559 342 559 308.5 521 c 128,-1,0
 275 483 275 483 215 483 c 128,-1,1
EndSplineSet
EndChar

StartChar: iota
Encoding: 953 953 473
Width: 407
GlyphClass: 2
Flags: W
LayerCount: 2
Fore
SplineSet
215 483 m 128,-1,1
 155 483 155 483 121 521 c 128,-1,2
 87 559 87 559 87 610 c 128,-1,3
 87 661 87 661 121 699 c 128,-1,4
 155 737 155 737 215 737 c 128,-1,5
 275 737 275 737 308.5 699 c 128,-1,6
 342 661 342 661 342 610 c 128,-1,7
 342 559 342 559 308.5 521 c 128,-1,0
 275 483 275 483 215 483 c 128,-1,1
EndSplineSet
EndChar

StartChar: lambda
Encoding: 955 955 475
Width: 407
GlyphClass: 2
Flags: W
LayerCount: 2
Fore
SplineSet
215 483 m 128,-1,1
 155 483 155 483 121 521 c 128,-1,2
 87 559 87 559 87 610 c 128,-1,3
 87 661 87 661 121 699 c 128,-1,4
 155 737 155 737 215 737 c 128,-1,5
 275 737 275 737 308.5 699 c 128,-1,6
 342 661 342 661 342 610 c 128,-1,7
 342 559 342 559 308.5 521 c 128,-1,0
 275 483 275 483 215 483 c 128,-1,1
EndSplineSet
EndChar

StartChar: nu
Encoding: 957 957 476
Width: 407
GlyphClass: 2
Flags: W
LayerCount: 2
Fore
SplineSet
215 483 m 128,-1,1
 155 483 155 483 121 521 c 128,-1,2
 87 559 87 559 87 610 c 128,-1,3
 87 661 87 661 121 699 c 128,-1,4
 155 737 155 737 215 737 c 128,-1,5
 275 737 275 737 308.5 699 c 128,-1,6
 342 661 342 661 342 610 c 128,-1,7
 342 559 342 559 308.5 521 c 128,-1,0
 275 483 275 483 215 483 c 128,-1,1
EndSplineSet
EndChar

StartChar: xi
Encoding: 958 958 477
Width: 407
GlyphClass: 2
Flags: W
LayerCount: 2
Fore
SplineSet
215 483 m 128,-1,1
 155 483 155 483 121 521 c 128,-1,2
 87 559 87 559 87 610 c 128,-1,3
 87 661 87 661 121 699 c 128,-1,4
 155 737 155 737 215 737 c 128,-1,5
 275 737 275 737 308.5 699 c 128,-1,6
 342 661 342 661 342 610 c 128,-1,7
 342 559 342 559 308.5 521 c 128,-1,0
 275 483 275 483 215 483 c 128,-1,1
EndSplineSet
EndChar

StartChar: omicron
Encoding: 959 959 478
Width: 1071
GlyphClass: 2
Flags: W
LayerCount: 2
Fore
SplineSet
545 -18 m 0,0,1
 327 -18 327 -18 199.5 128.5 c 128,-1,2
 72 275 72 275 72 512 c 0,3,4
 72 756 72 756 199 898.5 c 128,-1,5
 326 1041 326 1041 554 1041 c 0,6,7
 774 1041 774 1041 900.5 895.5 c 128,-1,8
 1027 750 1027 750 1027 512 c 0,9,10
 1027 270 1027 270 899.5 126 c 128,-1,11
 772 -18 772 -18 545 -18 c 0,0,1
549 844 m 0,12,13
 438 844 438 844 381 759.5 c 128,-1,14
 324 675 324 675 324 511 c 0,15,16
 324 348 324 348 381 263 c 128,-1,17
 438 178 438 178 550 178 c 128,-1,18
 662 178 662 178 718 263.5 c 128,-1,19
 774 349 774 349 774 512 c 0,20,21
 774 844 774 844 549 844 c 0,12,13
EndSplineSet
EndChar

StartChar: pi
Encoding: 960 960 479
Width: 1247
GlyphClass: 2
Flags: W
LayerCount: 2
Fore
SplineSet
514 825 m 1,0,1
 490 229 490 229 374 6 c 1,2,-1
 371 1 l 1,3,-1
 161 1 l 1,4,-1
 167 14 l 1,5,6
 207 97 207 97 239.5 291 c 128,-1,7
 272 485 272 485 284 621.5 c 128,-1,8
 296 758 296 758 300 846 c 1,9,10
 179 837 179 837 83 779 c 1,11,-1
 71 772 l 1,12,-1
 45 950 l 1,13,-1
 50 954 l 1,14,15
 108 998 108 998 180 1011 c 128,-1,16
 252 1024 252 1024 381 1024 c 2,17,-1
 1181 1024 l 1,18,-1
 1181 841 l 1,19,-1
 1007 841 l 1,20,-1
 1007 298 l 2,21,22
 1007 237 1007 237 1017 214 c 128,-1,23
 1027 191 1027 191 1060 191 c 0,24,25
 1079 191 1079 191 1150 213 c 1,26,-1
 1163 216 l 1,27,-1
 1162 203 l 2,28,29
 1161 184 1161 184 1158.5 137 c 128,-1,30
 1156 90 1156 90 1153.5 52.5 c 128,-1,31
 1151 15 1151 15 1151 14 c 2,32,-1
 1151 7 l 1,33,-1
 1143 6 l 1,34,35
 1074 -6 1074 -6 1023 -6 c 0,36,37
 958 -6 958 -6 914 15.5 c 128,-1,38
 870 37 870 37 846.5 79 c 128,-1,39
 823 121 823 121 814 170.5 c 128,-1,40
 805 220 805 220 805 288 c 2,41,-1
 808 825 l 1,42,-1
 514 825 l 1,0,1
EndSplineSet
EndChar

StartChar: rho
Encoding: 961 961 480
Width: 1101
GlyphClass: 2
Flags: W
LayerCount: 2
Fore
SplineSet
130 1017 m 1,0,-1
 349 1017 l 1,1,-1
 371 906 l 1,2,3
 418 962 418 962 501.5 1001.5 c 128,-1,4
 585 1041 585 1041 676 1041 c 0,5,6
 797 1041 797 1041 887.5 969.5 c 128,-1,7
 978 898 978 898 1024 779.5 c 128,-1,8
 1070 661 1070 661 1070 513 c 0,9,10
 1070 279 1070 279 958 130.5 c 128,-1,11
 846 -18 846 -18 655 -18 c 0,12,13
 489 -18 489 -18 379 99 c 1,14,15
 384 24 384 24 384 -15 c 2,16,-1
 384 -395 l 1,17,-1
 130 -408 l 1,18,-1
 130 1017 l 1,0,-1
607 179 m 0,19,20
 704 179 704 179 760.5 265 c 128,-1,21
 817 351 817 351 817 515 c 0,22,23
 817 682 817 682 760 763 c 128,-1,24
 703 844 703 844 603 844 c 0,25,26
 385 844 385 844 382 530 c 1,27,28
 382 345 382 345 438.5 262 c 128,-1,29
 495 179 495 179 607 179 c 0,19,20
EndSplineSet
EndChar

StartChar: sigma1
Encoding: 962 962 481
Width: 407
GlyphClass: 2
Flags: W
LayerCount: 2
Fore
SplineSet
215 483 m 128,-1,1
 155 483 155 483 121 521 c 128,-1,2
 87 559 87 559 87 610 c 128,-1,3
 87 661 87 661 121 699 c 128,-1,4
 155 737 155 737 215 737 c 128,-1,5
 275 737 275 737 308.5 699 c 128,-1,6
 342 661 342 661 342 610 c 128,-1,7
 342 559 342 559 308.5 521 c 128,-1,0
 275 483 275 483 215 483 c 128,-1,1
EndSplineSet
EndChar

StartChar: sigma
Encoding: 963 963 482
Width: 407
GlyphClass: 2
Flags: W
LayerCount: 2
Fore
SplineSet
215 483 m 128,-1,1
 155 483 155 483 121 521 c 128,-1,2
 87 559 87 559 87 610 c 128,-1,3
 87 661 87 661 121 699 c 128,-1,4
 155 737 155 737 215 737 c 128,-1,5
 275 737 275 737 308.5 699 c 128,-1,6
 342 661 342 661 342 610 c 128,-1,7
 342 559 342 559 308.5 521 c 128,-1,0
 275 483 275 483 215 483 c 128,-1,1
EndSplineSet
EndChar

StartChar: tau
Encoding: 964 964 483
Width: 407
GlyphClass: 2
Flags: W
LayerCount: 2
Fore
SplineSet
215 483 m 128,-1,1
 155 483 155 483 121 521 c 128,-1,2
 87 559 87 559 87 610 c 128,-1,3
 87 661 87 661 121 699 c 128,-1,4
 155 737 155 737 215 737 c 128,-1,5
 275 737 275 737 308.5 699 c 128,-1,6
 342 661 342 661 342 610 c 128,-1,7
 342 559 342 559 308.5 521 c 128,-1,0
 275 483 275 483 215 483 c 128,-1,1
EndSplineSet
EndChar

StartChar: upsilon
Encoding: 965 965 484
Width: 407
GlyphClass: 2
Flags: W
LayerCount: 2
Fore
SplineSet
215 483 m 128,-1,1
 155 483 155 483 121 521 c 128,-1,2
 87 559 87 559 87 610 c 128,-1,3
 87 661 87 661 121 699 c 128,-1,4
 155 737 155 737 215 737 c 128,-1,5
 275 737 275 737 308.5 699 c 128,-1,6
 342 661 342 661 342 610 c 128,-1,7
 342 559 342 559 308.5 521 c 128,-1,0
 275 483 275 483 215 483 c 128,-1,1
EndSplineSet
EndChar

StartChar: phi
Encoding: 966 966 485
Width: 407
GlyphClass: 2
Flags: W
LayerCount: 2
Fore
SplineSet
215 483 m 128,-1,1
 155 483 155 483 121 521 c 128,-1,2
 87 559 87 559 87 610 c 128,-1,3
 87 661 87 661 121 699 c 128,-1,4
 155 737 155 737 215 737 c 128,-1,5
 275 737 275 737 308.5 699 c 128,-1,6
 342 661 342 661 342 610 c 128,-1,7
 342 559 342 559 308.5 521 c 128,-1,0
 275 483 275 483 215 483 c 128,-1,1
EndSplineSet
EndChar

StartChar: chi
Encoding: 967 967 486
Width: 1015
GlyphClass: 2
Flags: W
LayerCount: 2
Fore
SplineSet
540 688 m 1,0,-1
 756 1017 l 1,1,-1
 1040 1017 l 1,2,-1
 701 521 l 1,3,-1
 1051 0 l 1,4,-1
 760 0 l 1,5,-1
 540 355 l 1,6,-1
 315 0 l 1,7,-1
 28 0 l 1,8,-1
 381 520 l 1,9,-1
 45 1017 l 1,10,-1
 333 1017 l 1,11,-1
 540 688 l 1,0,-1
EndSplineSet
EndChar

StartChar: psi
Encoding: 968 968 487
Width: 407
GlyphClass: 2
Flags: W
LayerCount: 2
Fore
SplineSet
215 483 m 128,-1,1
 155 483 155 483 121 521 c 128,-1,2
 87 559 87 559 87 610 c 128,-1,3
 87 661 87 661 121 699 c 128,-1,4
 155 737 155 737 215 737 c 128,-1,5
 275 737 275 737 308.5 699 c 128,-1,6
 342 661 342 661 342 610 c 128,-1,7
 342 559 342 559 308.5 521 c 128,-1,0
 275 483 275 483 215 483 c 128,-1,1
EndSplineSet
EndChar

StartChar: omega
Encoding: 969 969 488
Width: 407
GlyphClass: 2
Flags: W
LayerCount: 2
Fore
SplineSet
215 483 m 128,-1,1
 155 483 155 483 121 521 c 128,-1,2
 87 559 87 559 87 610 c 128,-1,3
 87 661 87 661 121 699 c 128,-1,4
 155 737 155 737 215 737 c 128,-1,5
 275 737 275 737 308.5 699 c 128,-1,6
 342 661 342 661 342 610 c 128,-1,7
 342 559 342 559 308.5 521 c 128,-1,0
 275 483 275 483 215 483 c 128,-1,1
EndSplineSet
EndChar

StartChar: iotadieresis
Encoding: 970 970 489
Width: 407
GlyphClass: 2
Flags: W
LayerCount: 2
Fore
SplineSet
215 483 m 128,-1,1
 155 483 155 483 121 521 c 128,-1,2
 87 559 87 559 87 610 c 128,-1,3
 87 661 87 661 121 699 c 128,-1,4
 155 737 155 737 215 737 c 128,-1,5
 275 737 275 737 308.5 699 c 128,-1,6
 342 661 342 661 342 610 c 128,-1,7
 342 559 342 559 308.5 521 c 128,-1,0
 275 483 275 483 215 483 c 128,-1,1
116 1364 m 1,8,-1
 116 1119 l 1,9,-1
 -78 1119 l 1,10,-1
 -78 1364 l 1,11,-1
 116 1364 l 1,8,-1
491 1364 m 1,12,-1
 491 1119 l 1,13,-1
 298 1119 l 1,14,-1
 298 1364 l 1,15,-1
 491 1364 l 1,12,-1
EndSplineSet
EndChar

StartChar: upsilondieresis
Encoding: 971 971 490
Width: 407
GlyphClass: 2
Flags: W
LayerCount: 2
Fore
SplineSet
215 483 m 128,-1,1
 155 483 155 483 121 521 c 128,-1,2
 87 559 87 559 87 610 c 128,-1,3
 87 661 87 661 121 699 c 128,-1,4
 155 737 155 737 215 737 c 128,-1,5
 275 737 275 737 308.5 699 c 128,-1,6
 342 661 342 661 342 610 c 128,-1,7
 342 559 342 559 308.5 521 c 128,-1,0
 275 483 275 483 215 483 c 128,-1,1
EndSplineSet
EndChar

StartChar: omicrontonos
Encoding: 972 972 491
Width: 407
GlyphClass: 2
Flags: W
LayerCount: 2
Fore
SplineSet
215 483 m 128,-1,1
 155 483 155 483 121 521 c 128,-1,2
 87 559 87 559 87 610 c 128,-1,3
 87 661 87 661 121 699 c 128,-1,4
 155 737 155 737 215 737 c 128,-1,5
 275 737 275 737 308.5 699 c 128,-1,6
 342 661 342 661 342 610 c 128,-1,7
 342 559 342 559 308.5 521 c 128,-1,0
 275 483 275 483 215 483 c 128,-1,1
EndSplineSet
EndChar

StartChar: upsilontonos
Encoding: 973 973 492
Width: 407
GlyphClass: 2
Flags: W
LayerCount: 2
Fore
SplineSet
215 483 m 128,-1,1
 155 483 155 483 121 521 c 128,-1,2
 87 559 87 559 87 610 c 128,-1,3
 87 661 87 661 121 699 c 128,-1,4
 155 737 155 737 215 737 c 128,-1,5
 275 737 275 737 308.5 699 c 128,-1,6
 342 661 342 661 342 610 c 128,-1,7
 342 559 342 559 308.5 521 c 128,-1,0
 275 483 275 483 215 483 c 128,-1,1
EndSplineSet
EndChar

StartChar: omegatonos
Encoding: 974 974 493
Width: 407
GlyphClass: 2
Flags: W
LayerCount: 2
Fore
SplineSet
215 483 m 128,-1,1
 155 483 155 483 121 521 c 128,-1,2
 87 559 87 559 87 610 c 128,-1,3
 87 661 87 661 121 699 c 128,-1,4
 155 737 155 737 215 737 c 128,-1,5
 275 737 275 737 308.5 699 c 128,-1,6
 342 661 342 661 342 610 c 128,-1,7
 342 559 342 559 308.5 521 c 128,-1,0
 275 483 275 483 215 483 c 128,-1,1
EndSplineSet
EndChar

StartChar: uni0400
Encoding: 1024 1024 494
Width: 1108
GlyphClass: 2
Flags: W
LayerCount: 2
Fore
SplineSet
690 1452 m 1,0,-1
 525 1452 l 1,1,-1
 214 1813 l 1,2,-1
 513 1813 l 1,3,-1
 690 1452 l 1,0,-1
EndSplineSet
EndChar

StartChar: afii10023
Encoding: 1025 1025 495
Width: 1108
GlyphClass: 2
Flags: W
LayerCount: 2
Fore
SplineSet
879 1449 m 1,0,-1
 686 1449 l 1,1,-1
 686 1694 l 1,2,-1
 879 1694 l 1,3,-1
 879 1449 l 1,0,-1
504 1449 m 1,4,-1
 310 1449 l 1,5,-1
 310 1694 l 1,6,-1
 504 1694 l 1,7,-1
 504 1449 l 1,4,-1
EndSplineSet
EndChar

StartChar: afii10053
Encoding: 1028 1028 496
Width: 1226
GlyphClass: 2
Flags: W
LayerCount: 2
Fore
SplineSet
1145 1240 m 1,0,-1
 1152 1236 l 1,1,-1
 1070 1041 l 1,2,-1
 1060 1048 l 1,3,4
 903 1160 903 1160 742 1160 c 0,5,6
 586 1160 586 1160 480 1058 c 128,-1,7
 374 956 374 956 343 786 c 1,8,-1
 929 786 l 1,9,-1
 929 583 l 1,10,-1
 340 583 l 1,11,12
 366 397 366 397 473.5 292 c 128,-1,13
 581 187 581 187 741 187 c 0,14,15
 902 187 902 187 1059 293 c 1,16,-1
 1069 300 l 1,17,-1
 1152 108 l 1,18,-1
 1145 103 l 1,19,20
 940 -17 940 -17 724 -17 c 0,21,22
 590 -17 590 -17 472 34 c 128,-1,23
 354 85 354 85 268 175 c 128,-1,24
 182 265 182 265 132.5 395 c 128,-1,25
 83 525 83 525 83 677 c 128,-1,26
 83 829 83 829 133.5 958 c 128,-1,27
 184 1087 184 1087 271.5 1175.5 c 128,-1,28
 359 1264 359 1264 477.5 1313.5 c 128,-1,29
 596 1363 596 1363 729 1363 c 0,30,31
 957 1363 957 1363 1145 1240 c 1,0,-1
EndSplineSet
EndChar

StartChar: afii10054
Encoding: 1029 1029 497
Width: 1036
GlyphClass: 2
Flags: W
LayerCount: 2
Fore
SplineSet
505 -17 m 0,0,1
 242 -17 242 -17 68 82 c 1,2,-1
 133 300 l 1,3,4
 195 263 195 263 306 236.5 c 128,-1,5
 417 210 417 210 515 210 c 0,6,7
 622 210 622 210 673.5 252 c 128,-1,8
 725 294 725 294 725 385 c 0,9,10
 725 494 725 494 573 544 c 2,11,-1
 349 617 l 2,12,13
 223 658 223 658 153 747.5 c 128,-1,14
 83 837 83 837 83 975 c 0,15,16
 83 1159 83 1159 211.5 1258.5 c 128,-1,17
 340 1358 340 1358 548 1358 c 0,18,19
 782 1358 782 1358 963 1255 c 1,20,-1
 882 1048 l 1,21,22
 698 1128 698 1128 559 1128 c 0,23,24
 456 1128 456 1128 404 1093 c 128,-1,25
 352 1058 352 1058 352 980 c 0,26,27
 352 885 352 885 450 853 c 2,28,-1
 658 783 l 2,29,30
 838 723 838 723 918 631.5 c 128,-1,31
 998 540 998 540 998 381 c 0,32,33
 998 190 998 190 863 86.5 c 128,-1,34
 728 -17 728 -17 505 -17 c 0,0,1
EndSplineSet
EndChar

StartChar: afii10056
Encoding: 1031 1031 498
Width: 516
GlyphClass: 2
Flags: W
LayerCount: 2
Fore
SplineSet
532 1445 m 1,0,-1
 339 1445 l 1,1,-1
 339 1690 l 1,2,-1
 532 1690 l 1,3,-1
 532 1445 l 1,0,-1
157 1445 m 1,4,-1
 -37 1445 l 1,5,-1
 -37 1690 l 1,6,-1
 157 1690 l 1,7,-1
 157 1445 l 1,4,-1
EndSplineSet
EndChar

StartChar: afii10057
Encoding: 1032 1032 499
Width: 556
GlyphClass: 2
Flags: W
LayerCount: 2
Fore
SplineSet
-26 -285 m 1,0,-1
 -38 -75 l 1,1,2
 12 -84 12 -84 65 -84 c 0,3,4
 160 -84 160 -84 192 -37 c 128,-1,5
 224 10 224 10 224 126 c 2,6,-1
 224 1342 l 1,7,-1
 512 1342 l 1,8,-1
 512 144 l 2,9,10
 512 -81 512 -81 406.5 -187 c 128,-1,11
 301 -293 301 -293 67 -293 c 0,12,13
 9 -293 9 -293 -26 -285 c 1,0,-1
EndSplineSet
EndChar

StartChar: afii10058
Encoding: 1033 1033 500
Width: 1654
GlyphClass: 2
Flags: W
LayerCount: 2
Fore
SplineSet
48 -17 m 1,0,-1
 48 174 l 1,1,-1
 125 176 l 2,2,3
 225 178 225 178 253.5 216.5 c 128,-1,4
 282 255 282 255 282 364 c 2,5,-1
 280 1326 l 1,6,-1
 1006 1326 l 1,7,-1
 1006 811 l 1,8,-1
 1153 811 l 2,9,10
 1242 811 1242 811 1319.5 797 c 128,-1,11
 1397 783 1397 783 1465.5 752 c 128,-1,12
 1534 721 1534 721 1583 674.5 c 128,-1,13
 1632 628 1632 628 1660 559.5 c 128,-1,14
 1688 491 1688 491 1688 405 c 0,15,16
 1688 301 1688 301 1647.5 222.5 c 128,-1,17
 1607 144 1607 144 1534.5 97.5 c 128,-1,18
 1462 51 1462 51 1367.5 28 c 128,-1,19
 1273 5 1273 5 1158 5 c 2,20,-1
 800 5 l 1,21,-1
 772 1117 l 1,22,-1
 517 1117 l 1,23,-1
 528 402 l 1,24,25
 528 289 528 289 509.5 214 c 128,-1,26
 491 139 491 139 443.5 85 c 128,-1,27
 396 31 396 31 314 7 c 128,-1,28
 232 -17 232 -17 107 -17 c 2,29,-1
 48 -17 l 1,0,-1
1024 611 m 1,30,-1
 1024 216 l 1,31,-1
 1172 216 l 2,32,33
 1311 216 1311 216 1388.5 266 c 128,-1,34
 1466 316 1466 316 1466 415 c 0,35,36
 1466 512 1466 512 1388.5 561.5 c 128,-1,37
 1311 611 1311 611 1172 611 c 2,38,-1
 1024 611 l 1,30,-1
EndSplineSet
EndChar

StartChar: afii10062
Encoding: 1038 1038 503
Width: 1141
GlyphClass: 2
Flags: W
LayerCount: 2
Fore
SplineSet
462 1702 m 1,0,-1
 462 1693 l 2,1,2
 462 1647 462 1647 484.5 1627.5 c 128,-1,3
 507 1608 507 1608 562 1608 c 128,-1,4
 617 1608 617 1608 640 1627.5 c 128,-1,5
 663 1647 663 1647 663 1693 c 2,6,-1
 663 1702 l 1,7,-1
 832 1702 l 1,8,-1
 832 1693 l 2,9,10
 832 1573 832 1573 757.5 1511.5 c 128,-1,11
 683 1450 683 1450 562 1450 c 0,12,13
 442 1450 442 1450 368 1512 c 128,-1,14
 294 1574 294 1574 294 1693 c 2,15,-1
 294 1702 l 1,16,-1
 462 1702 l 1,0,-1
EndSplineSet
EndChar

StartChar: afii10017
Encoding: 1040 1040 504
Width: 1194
GlyphClass: 2
Flags: W
LayerCount: 2
Fore
SplineSet
476 577 m 1,0,-1
 754 577 l 1,1,2
 745 605 745 605 689 801 c 128,-1,3
 633 997 633 997 616 1054 c 1,4,5
 599 1001 599 1001 542 803.5 c 128,-1,6
 485 606 485 606 476 577 c 1,0,-1
414 368 m 1,7,-1
 294 0 l 1,8,-1
 -7 0 l 1,9,-1
 449 1342 l 1,10,-1
 781 1342 l 1,11,-1
 1230 0 l 1,12,-1
 941 0 l 1,13,-1
 814 368 l 1,14,-1
 414 368 l 1,7,-1
EndSplineSet
EndChar

StartChar: afii10018
Encoding: 1041 1041 505
Width: 1142
GlyphClass: 2
Flags: W
LayerCount: 2
Fore
SplineSet
368 600 m 1,0,-1
 368 203 l 1,1,-1
 608 203 l 2,2,3
 847 203 847 203 847 402 c 0,4,5
 847 501 847 501 784.5 550.5 c 128,-1,6
 722 600 722 600 607 600 c 2,7,-1
 368 600 l 1,0,-1
1101 399 m 0,8,9
 1101 296 1101 296 1061.5 217.5 c 128,-1,10
 1022 139 1022 139 951.5 92.5 c 128,-1,11
 881 46 881 46 791.5 23 c 128,-1,12
 702 0 702 0 595 0 c 2,13,-1
 110 0 l 1,14,-1
 110 1335 l 1,15,-1
 1003 1335 l 1,16,-1
 1003 1131 l 1,17,-1
 369 1131 l 1,18,-1
 368 799 l 1,19,-1
 618 799 l 2,20,21
 700 799 700 799 770.5 785.5 c 128,-1,22
 841 772 841 772 902.5 741.5 c 128,-1,23
 964 711 964 711 1007.5 665 c 128,-1,24
 1051 619 1051 619 1076 551.5 c 128,-1,25
 1101 484 1101 484 1101 399 c 0,8,9
EndSplineSet
EndChar

StartChar: afii10020
Encoding: 1043 1043 506
Width: 1283
GlyphClass: 2
Flags: W
LayerCount: 2
Fore
SplineSet
938 1133 m 1,0,-1
 368 1133 l 1,1,-1
 368 0 l 1,2,-1
 110 0 l 1,3,-1
 110 1335 l 1,4,-1
 959 1335 l 1,5,-1
 938 1133 l 1,0,-1
EndSplineSet
EndChar

StartChar: afii10025
Encoding: 1047 1047 507
Width: 1097
GlyphClass: 2
Flags: W
LayerCount: 2
Fore
SplineSet
114 131 m 1,0,1
 125 149 125 149 140 178.5 c 128,-1,2
 155 208 155 208 172.5 245.5 c 128,-1,3
 190 283 190 283 197 296 c 2,4,-1
 202 306 l 1,5,-1
 212 299 l 1,6,7
 372 191 372 191 561 191 c 0,8,9
 712 191 712 191 772.5 243 c 128,-1,10
 833 295 833 295 833 392 c 0,11,12
 833 471 833 471 755 527 c 128,-1,13
 677 583 677 583 575 583 c 2,14,-1
 399 583 l 1,15,-1
 399 788 l 1,16,-1
 577 788 l 2,17,18
 667 788 667 788 729 841.5 c 128,-1,19
 791 895 791 895 791 970 c 1,20,21
 789 1043 789 1043 725.5 1097.5 c 128,-1,22
 662 1152 662 1152 561 1152 c 0,23,24
 374 1152 374 1152 250 1062 c 1,25,-1
 241 1056 l 1,26,-1
 145 1233 l 1,27,-1
 152 1238 l 1,28,29
 306 1365 306 1365 567 1365 c 0,30,31
 688 1365 688 1365 794 1318 c 128,-1,32
 900 1271 900 1271 965 1186.5 c 128,-1,33
 1030 1102 1030 1102 1030 1000 c 0,34,35
 1030 768 1030 768 882 688 c 1,36,37
 963 644 963 644 1012.5 561 c 128,-1,38
 1062 478 1062 478 1062 383 c 0,39,40
 1062 195 1062 195 934.5 89 c 128,-1,41
 807 -17 807 -17 559 -17 c 0,42,43
 423 -17 423 -17 300.5 18.5 c 128,-1,44
 178 54 178 54 114 118 c 1,45,-1
 109 124 l 1,46,-1
 114 131 l 1,0,1
EndSplineSet
EndChar

StartChar: afii10026
Encoding: 1048 1048 508
Width: 1295
GlyphClass: 2
Flags: W
LayerCount: 2
Fore
SplineSet
349 426 m 1,0,1
 396 491 396 491 661 838.5 c 128,-1,2
 926 1186 926 1186 956 1231 c 1,3,4
 956 1233 956 1233 960 1256.5 c 128,-1,5
 964 1280 964 1280 968.5 1302 c 128,-1,6
 973 1324 973 1324 976 1329 c 2,7,-1
 979 1335 l 1,8,-1
 1207 1335 l 1,9,-1
 1207 0 l 1,10,-1
 969 0 l 1,11,-1
 969 838 l 1,12,-1
 335 0 l 1,13,-1
 110 0 l 1,14,-1
 110 1335 l 1,15,-1
 349 1335 l 1,16,-1
 349 426 l 1,0,1
EndSplineSet
EndChar

StartChar: afii10028
Encoding: 1050 1050 510
Width: 1179
GlyphClass: 2
Flags: W
LayerCount: 2
Fore
SplineSet
416 516 m 1,0,-1
 416 0 l 1,1,-1
 128 0 l 1,2,-1
 128 1342 l 1,3,-1
 416 1342 l 1,4,-1
 416 765 l 1,5,6
 482 853 482 853 664 1070.5 c 128,-1,7
 846 1288 846 1288 882 1334 c 1,8,-1
 884 1342 l 1,9,-1
 1196 1342 l 1,10,-1
 700 737 l 1,11,-1
 1226 0 l 1,12,-1
 919 0 l 1,13,-1
 503 589 l 1,14,15
 487 576 487 576 458 551.5 c 128,-1,16
 429 527 429 527 416 516 c 1,0,-1
EndSplineSet
EndChar

StartChar: afii10030
Encoding: 1052 1052 511
Width: 1621
GlyphClass: 2
Flags: W
LayerCount: 2
Fore
SplineSet
152 1342 m 1,0,-1
 453 1342 l 1,1,-1
 837 407 l 1,2,-1
 1223 1342 l 1,3,-1
 1522 1342 l 1,4,-1
 1522 0 l 1,5,-1
 1278 0 l 1,6,-1
 1278 658 l 1,7,-1
 1284 968 l 1,8,-1
 1271 929 l 1,9,-1
 940 89 l 1,10,-1
 720 89 l 1,11,-1
 396 934 l 1,12,-1
 382 974 l 1,13,-1
 388 655 l 1,14,-1
 388 0 l 1,15,-1
 152 0 l 1,16,-1
 152 1342 l 1,0,-1
EndSplineSet
EndChar

StartChar: afii10031
Encoding: 1053 1053 512
Width: 1337
GlyphClass: 2
Flags: W
LayerCount: 2
Fore
SplineSet
130 0 m 1,0,-1
 130 1342 l 1,1,-1
 418 1342 l 1,2,-1
 418 804 l 1,3,-1
 962 804 l 1,4,-1
 962 1342 l 1,5,-1
 1250 1342 l 1,6,-1
 1250 0 l 1,7,-1
 962 0 l 1,8,-1
 962 578 l 1,9,-1
 418 578 l 1,10,-1
 418 0 l 1,11,-1
 130 0 l 1,0,-1
EndSplineSet
EndChar

StartChar: afii10033
Encoding: 1055 1055 513
Width: 1278
GlyphClass: 2
Flags: W
LayerCount: 2
Fore
SplineSet
368 1141 m 1,0,-1
 368 0 l 1,1,-1
 110 0 l 1,2,-1
 110 1335 l 1,3,-1
 1191 1335 l 1,4,-1
 1191 0 l 1,5,-1
 932 0 l 1,6,-1
 932 1141 l 1,7,-1
 368 1141 l 1,0,-1
EndSplineSet
EndChar

StartChar: afii10035
Encoding: 1057 1057 514
Width: 1141
GlyphClass: 2
Flags: W
LayerCount: 2
Fore
SplineSet
1124 1249 m 1,0,-1
 1041 1048 l 1,1,2
 966 1090 966 1090 905 1109.5 c 128,-1,3
 844 1129 844 1129 762 1129 c 0,4,5
 593 1129 593 1129 485.5 1007 c 128,-1,6
 378 885 378 885 378 671 c 0,7,8
 378 451 378 451 479 332 c 128,-1,9
 580 213 580 213 772 213 c 0,10,11
 925 213 925 213 1062 293 c 1,12,-1
 1098 75 l 1,13,14
 1001 27 1001 27 918.5 5.5 c 128,-1,15
 836 -16 836 -16 731 -16 c 0,16,17
 590 -16 590 -16 472 31.5 c 128,-1,18
 354 79 354 79 269 166.5 c 128,-1,19
 184 254 184 254 137 385 c 128,-1,20
 90 516 90 516 90 677 c 0,21,22
 90 984 90 984 270.5 1171 c 128,-1,23
 451 1358 451 1358 735 1358 c 0,24,25
 960 1358 960 1358 1124 1249 c 1,0,-1
EndSplineSet
EndChar

StartChar: afii10036
Encoding: 1058 1058 515
Width: 997
GlyphClass: 2
Flags: W
LayerCount: 2
Fore
SplineSet
49 1122 m 1,0,-1
 49 1342 l 1,1,-1
 1073 1342 l 1,2,-1
 1073 1122 l 1,3,-1
 704 1122 l 1,4,-1
 704 0 l 1,5,-1
 416 0 l 1,6,-1
 416 1122 l 1,7,-1
 49 1122 l 1,0,-1
EndSplineSet
EndChar

StartChar: afii10038
Encoding: 1060 1060 516
Width: 1597
GlyphClass: 2
Flags: W
LayerCount: 2
Fore
SplineSet
931 0 m 1,0,-1
 685 0 l 1,1,-1
 683 145 l 1,2,3
 506 151 506 151 365.5 221 c 128,-1,4
 225 291 225 291 145 413.5 c 128,-1,5
 65 536 65 536 65 690 c 0,6,7
 65 840 65 840 144 958.5 c 128,-1,8
 223 1077 223 1077 363.5 1145 c 128,-1,9
 504 1213 504 1213 683 1219 c 1,10,-1
 685 1335 l 1,11,-1
 931 1335 l 1,12,-1
 931 1219 l 1,13,14
 1200 1211 1200 1211 1375.5 1065 c 128,-1,15
 1551 919 1551 919 1551 690 c 0,16,17
 1551 535 1551 535 1471 412 c 128,-1,18
 1391 289 1391 289 1250 219.5 c 128,-1,19
 1109 150 1109 150 931 145 c 1,20,-1
 931 0 l 1,0,-1
683 358 m 1,21,-1
 683 1006 l 1,22,23
 510 997 510 997 414.5 907 c 128,-1,24
 319 817 319 817 319 687 c 0,25,26
 319 552 319 552 413.5 459.5 c 128,-1,27
 508 367 508 367 683 358 c 1,21,-1
931 1006 m 1,28,-1
 931 358 l 1,29,30
 1107 366 1107 366 1202.5 459 c 128,-1,31
 1298 552 1298 552 1298 687 c 0,32,33
 1298 817 1298 817 1203 907.5 c 128,-1,34
 1108 998 1108 998 931 1006 c 1,28,-1
EndSplineSet
EndChar

StartChar: afii10039
Encoding: 1061 1061 517
Width: 1174
GlyphClass: 2
Flags: W
LayerCount: 2
Fore
SplineSet
22 0 m 1,0,-1
 481 687 l 1,1,-1
 54 1342 l 1,2,-1
 349 1342 l 1,3,-1
 648 856 l 1,4,-1
 955 1342 l 1,5,-1
 1236 1342 l 1,6,-1
 800 682 l 1,7,-1
 1258 0 l 1,8,-1
 956 0 l 1,9,-1
 636 508 l 1,10,-1
 308 0 l 1,11,-1
 22 0 l 1,0,-1
EndSplineSet
EndChar

StartChar: afii10040
Encoding: 1062 1062 518
Width: 1357
GlyphClass: 2
Flags: W
LayerCount: 2
Fore
SplineSet
1349 -303 m 1,0,-1
 1120 -303 l 1,1,-1
 1119 0 l 1,2,-1
 110 0 l 1,3,-1
 110 1335 l 1,4,-1
 368 1335 l 1,5,-1
 368 194 l 1,6,-1
 961 194 l 1,7,-1
 961 1335 l 1,8,-1
 1219 1335 l 1,9,-1
 1219 112 l 1,10,-1
 1349 112 l 1,11,-1
 1349 -303 l 1,0,-1
EndSplineSet
EndChar

StartChar: afii10041
Encoding: 1063 1063 519
Width: 1598
GlyphClass: 2
Flags: W
LayerCount: 2
Fore
SplineSet
1178 16 m 1,0,-1
 943 16 l 1,1,-1
 942 537 l 1,2,3
 909 524 909 524 823 515.5 c 128,-1,4
 737 507 737 507 701 507 c 0,5,6
 599 507 599 507 522.5 515.5 c 128,-1,7
 446 524 446 524 373.5 549.5 c 128,-1,8
 301 575 301 575 254.5 617.5 c 128,-1,9
 208 660 208 660 180 731 c 128,-1,10
 152 802 152 802 152 899 c 2,11,-1
 152 1326 l 1,12,-1
 372 1326 l 1,13,-1
 372 919 l 2,14,15
 372 854 372 854 389 813 c 128,-1,16
 406 772 406 772 445 749 c 128,-1,17
 484 726 484 726 537 718 c 128,-1,18
 590 710 590 710 674 710 c 0,19,20
 699 710 699 710 809 724 c 128,-1,21
 919 738 919 738 943 747 c 1,22,-1
 943 1326 l 1,23,-1
 1178 1326 l 1,24,-1
 1178 16 l 1,0,-1
EndSplineSet
EndChar

StartChar: afii10042
Encoding: 1064 1064 520
Width: 1617
GlyphClass: 2
Flags: W
LayerCount: 2
Fore
SplineSet
707 194 m 1,0,-1
 707 1335 l 1,1,-1
 964 1335 l 1,2,-1
 964 194 l 1,3,-1
 1271 194 l 1,4,-1
 1271 1335 l 1,5,-1
 1530 1335 l 1,6,-1
 1530 0 l 1,7,-1
 110 0 l 1,8,-1
 110 1335 l 1,9,-1
 368 1335 l 1,10,-1
 368 194 l 1,11,-1
 707 194 l 1,0,-1
EndSplineSet
EndChar

StartChar: afii10043
Encoding: 1065 1065 521
Width: 1670
GlyphClass: 2
Flags: W
LayerCount: 2
Fore
SplineSet
707 194 m 1,0,-1
 707 1335 l 1,1,-1
 964 1335 l 1,2,-1
 964 194 l 1,3,-1
 1272 194 l 1,4,-1
 1272 1335 l 1,5,-1
 1530 1335 l 1,6,-1
 1530 112 l 1,7,-1
 1658 112 l 1,8,-1
 1658 -303 l 1,9,-1
 1429 -303 l 1,10,-1
 1428 0 l 1,11,-1
 110 0 l 1,12,-1
 110 1335 l 1,13,-1
 368 1335 l 1,14,-1
 368 194 l 1,15,-1
 707 194 l 1,0,-1
EndSplineSet
EndChar

StartChar: afii10044
Encoding: 1066 1066 522
Width: 1362
GlyphClass: 2
Flags: W
LayerCount: 2
Fore
SplineSet
568 1326 m 1,0,-1
 568 859 l 1,1,-1
 794 859 l 2,2,3
 903 859 903 859 994.5 835.5 c 128,-1,4
 1086 812 1086 812 1158.5 764.5 c 128,-1,5
 1231 717 1231 717 1272 636 c 128,-1,6
 1313 555 1313 555 1313 449 c 0,7,8
 1313 16 1313 16 803 16 c 2,9,-1
 338 16 l 1,10,-1
 338 1125 l 1,11,-1
 33 1125 l 1,12,-1
 33 1326 l 1,13,-1
 568 1326 l 1,0,-1
568 660 m 1,14,-1
 568 219 l 1,15,-1
 822 219 l 2,16,17
 960 219 960 219 1028 277 c 128,-1,18
 1096 335 1096 335 1096 442 c 0,19,20
 1096 542 1096 542 1021 601 c 128,-1,21
 946 660 946 660 813 660 c 2,22,-1
 568 660 l 1,14,-1
EndSplineSet
EndChar

StartChar: afii10046
Encoding: 1068 1068 523
Width: 1135
GlyphClass: 2
Flags: W
LayerCount: 2
Fore
SplineSet
379 859 m 1,0,-1
 592 859 l 2,1,2
 820 859 820 859 961 750 c 128,-1,3
 1102 641 1102 641 1102 441 c 0,4,5
 1102 239 1102 239 964 127.5 c 128,-1,6
 826 16 826 16 596 16 c 2,7,-1
 153 16 l 1,8,-1
 153 1326 l 1,9,-1
 379 1326 l 1,10,-1
 379 859 l 1,0,-1
379 219 m 1,11,-1
 612 219 l 2,12,13
 745 219 745 219 813.5 277.5 c 128,-1,14
 882 336 882 336 882 442 c 0,15,16
 882 545 882 545 813 602.5 c 128,-1,17
 744 660 744 660 610 660 c 2,18,-1
 379 660 l 1,19,-1
 379 219 l 1,11,-1
EndSplineSet
EndChar

StartChar: afii10047
Encoding: 1069 1069 524
Width: 1226
GlyphClass: 2
Flags: W
LayerCount: 2
Fore
SplineSet
165 300 m 1,0,-1
 175 293 l 1,1,2
 332 187 332 187 494 187 c 0,3,4
 654 187 654 187 761 291 c 128,-1,5
 868 395 868 395 895 583 c 1,6,-1
 305 583 l 1,7,-1
 305 786 l 1,8,-1
 891 786 l 1,9,10
 859 954 859 954 754.5 1057 c 128,-1,11
 650 1160 650 1160 494 1160 c 0,12,13
 333 1160 333 1160 174 1048 c 1,14,-1
 165 1041 l 1,15,-1
 83 1236 l 1,16,-1
 89 1240 l 1,17,18
 279 1363 279 1363 507 1363 c 0,19,20
 639 1363 639 1363 757 1313.5 c 128,-1,21
 875 1264 875 1264 962.5 1175.5 c 128,-1,22
 1050 1087 1050 1087 1101 957.5 c 128,-1,23
 1152 828 1152 828 1152 677 c 0,24,25
 1152 525 1152 525 1102.5 395 c 128,-1,26
 1053 265 1053 265 967 175 c 128,-1,27
 881 85 881 85 763 34 c 128,-1,28
 645 -17 645 -17 511 -17 c 0,29,30
 295 -17 295 -17 90 103 c 1,31,-1
 83 108 l 1,32,-1
 165 300 l 1,0,-1
EndSplineSet
EndChar

StartChar: afii10048
Encoding: 1070 1070 525
Width: 1472
GlyphClass: 2
Flags: W
LayerCount: 2
Fore
SplineSet
1175 -17 m 0,0,1
 1043 -17 1043 -17 934.5 30 c 128,-1,2
 826 77 826 77 753 160 c 128,-1,3
 680 243 680 243 636 351.5 c 128,-1,4
 592 460 592 460 580 587 c 1,5,-1
 379 587 l 1,6,-1
 379 10 l 1,7,-1
 153 10 l 1,8,-1
 153 1331 l 1,9,-1
 379 1331 l 1,10,-1
 379 791 l 1,11,-1
 583 791 l 1,12,13
 598 914 598 914 643 1017 c 128,-1,14
 688 1120 688 1120 760.5 1197.5 c 128,-1,15
 833 1275 833 1275 939 1319 c 128,-1,16
 1045 1363 1045 1363 1173 1363 c 0,17,18
 1315 1363 1315 1363 1428.5 1309 c 128,-1,19
 1542 1255 1542 1255 1614.5 1161 c 128,-1,20
 1687 1067 1687 1067 1725.5 941.5 c 128,-1,21
 1764 816 1764 816 1764 670 c 0,22,23
 1764 555 1764 555 1740 452.5 c 128,-1,24
 1716 350 1716 350 1667.5 264 c 128,-1,25
 1619 178 1619 178 1549.5 115.5 c 128,-1,26
 1480 53 1480 53 1384.5 18 c 128,-1,27
 1289 -17 1289 -17 1175 -17 c 0,0,1
1174 187 m 0,28,29
 1263 187 1263 187 1331.5 225 c 128,-1,30
 1400 263 1400 263 1441.5 330.5 c 128,-1,31
 1483 398 1483 398 1503.5 485 c 128,-1,32
 1524 572 1524 572 1524 676 c 0,33,34
 1524 778 1524 778 1503 864 c 128,-1,35
 1482 950 1482 950 1440.5 1017 c 128,-1,36
 1399 1084 1399 1084 1330 1122 c 128,-1,37
 1261 1160 1261 1160 1172 1160 c 0,38,39
 1084 1160 1084 1160 1016 1122 c 128,-1,40
 948 1084 948 1084 906.5 1017 c 128,-1,41
 865 950 865 950 844 864 c 128,-1,42
 823 778 823 778 823 676 c 0,43,44
 823 656 823 656 832.5 615 c 128,-1,45
 842 574 842 574 860 518 c 128,-1,46
 878 462 878 462 908.5 404.5 c 128,-1,47
 939 347 939 347 976 298 c 128,-1,48
 1013 249 1013 249 1065 218 c 128,-1,49
 1117 187 1117 187 1174 187 c 0,28,29
EndSplineSet
EndChar

StartChar: afii10049
Encoding: 1071 1071 526
Width: 1158
GlyphClass: 2
Flags: W
LayerCount: 2
Fore
SplineSet
556 1127 m 2,0,1
 430 1127 430 1127 370.5 1083 c 128,-1,2
 311 1039 311 1039 311 945 c 0,3,4
 311 840 311 840 368 793 c 128,-1,5
 425 746 425 746 562 746 c 2,6,-1
 809 746 l 1,7,-1
 809 1127 l 1,8,-1
 556 1127 l 2,0,1
296 600 m 1,9,10
 69 697 69 697 69 952 c 0,11,12
 69 1062 69 1062 104 1138 c 128,-1,13
 139 1214 139 1214 208 1256.5 c 128,-1,14
 277 1299 277 1299 365.5 1317 c 128,-1,15
 454 1335 454 1335 576 1335 c 2,16,-1
 1068 1335 l 1,17,-1
 1068 0 l 1,18,-1
 809 0 l 1,19,-1
 809 541 l 1,20,-1
 637 541 l 2,21,22
 617 541 617 541 591.5 541 c 128,-1,23
 566 541 566 541 552 541 c 128,-1,24
 538 541 538 541 530 541 c 1,25,26
 524 528 524 528 478.5 439 c 128,-1,27
 433 350 433 350 421 325 c 2,28,-1
 268 0 l 1,29,-1
 -8 0 l 1,30,-1
 -2 13 l 2,31,32
 22 64 22 64 185 399 c 0,33,34
 189 407 189 407 201.5 433 c 128,-1,35
 214 459 214 459 218.5 467.5 c 128,-1,36
 223 476 223 476 233 496.5 c 128,-1,37
 243 517 243 517 249 527 c 128,-1,38
 255 537 255 537 263.5 552 c 128,-1,39
 272 567 272 567 280 578 c 128,-1,40
 288 589 288 589 296 600 c 1,9,10
EndSplineSet
EndChar

StartChar: afii10066
Encoding: 1073 1073 528
Width: 953
GlyphClass: 2
Flags: W
LayerCount: 2
Fore
SplineSet
512 -17 m 0,0,1
 302 -17 302 -17 183 107 c 128,-1,2
 64 231 64 231 64 480 c 0,3,4
 64 816 64 816 255 1016 c 128,-1,5
 446 1216 446 1216 761 1216 c 1,6,-1
 813 1001 l 1,7,8
 739 1001 739 1001 674.5 988 c 128,-1,9
 610 975 610 975 565.5 956 c 128,-1,10
 521 937 521 937 483.5 909 c 128,-1,11
 446 881 446 881 425 858 c 128,-1,12
 404 835 404 835 386 806.5 c 128,-1,13
 368 778 368 778 362.5 766.5 c 128,-1,14
 357 755 357 755 352 741 c 1,15,16
 371 763 371 763 447 780 c 128,-1,17
 523 797 523 797 556 797 c 0,18,19
 739 797 739 797 850.5 692.5 c 128,-1,20
 962 588 962 588 962 402 c 0,21,22
 962 207 962 207 837 95 c 128,-1,23
 712 -17 712 -17 512 -17 c 0,0,1
506 180 m 0,24,25
 597 180 597 180 659.5 234 c 128,-1,26
 722 288 722 288 722 389 c 0,27,28
 722 493 722 493 667.5 539.5 c 128,-1,29
 613 586 613 586 521 586 c 0,30,31
 470 586 470 586 403.5 556 c 128,-1,32
 337 526 337 526 307 495 c 1,33,34
 307 431 307 431 317 378 c 128,-1,35
 327 325 327 325 348.5 278.5 c 128,-1,36
 370 232 370 232 410.5 206 c 128,-1,37
 451 180 451 180 506 180 c 0,24,25
EndSplineSet
EndChar

StartChar: afii10067
Encoding: 1074 1074 529
Width: 976
GlyphClass: 2
Flags: W
LayerCount: 2
Fore
SplineSet
89 0 m 1,0,-1
 89 1016 l 1,1,-1
 559 1016 l 2,2,3
 722 1016 722 1016 818.5 944 c 128,-1,4
 915 872 915 872 915 734 c 0,5,6
 915 668 915 668 883 614.5 c 128,-1,7
 851 561 851 561 789 532 c 1,8,9
 859 506 859 506 900 440 c 128,-1,10
 941 374 941 374 942 299 c 1,11,12
 942 153 942 153 842.5 76.5 c 128,-1,13
 743 0 743 0 577 0 c 2,14,-1
 89 0 l 1,0,-1
336 433 m 1,15,-1
 336 187 l 1,16,-1
 585 187 l 2,17,18
 651 187 651 187 686.5 223 c 128,-1,19
 722 259 722 259 722 311 c 1,20,21
 721 361 721 361 685 397 c 128,-1,22
 649 433 649 433 585 433 c 2,23,-1
 336 433 l 1,15,-1
336 814 m 1,24,-1
 336 604 l 1,25,-1
 577 604 l 2,26,27
 633 604 633 604 663.5 636 c 128,-1,28
 694 668 694 668 694 711 c 0,29,30
 694 755 694 755 664.5 784.5 c 128,-1,31
 635 814 635 814 577 814 c 2,32,-1
 336 814 l 1,24,-1
EndSplineSet
EndChar

StartChar: afii10068
Encoding: 1075 1075 530
Width: 649
GlyphClass: 2
Flags: W
LayerCount: 2
Fore
SplineSet
625 819 m 1,0,-1
 336 819 l 1,1,-1
 336 0 l 1,2,-1
 89 0 l 1,3,-1
 89 1016 l 1,4,-1
 625 1016 l 1,5,-1
 625 819 l 1,0,-1
EndSplineSet
EndChar

StartChar: afii10069
Encoding: 1076 1076 531
Width: 1064
GlyphClass: 2
Flags: W
LayerCount: 2
Fore
SplineSet
29 -302 m 1,0,-1
 29 194 l 1,1,-1
 106 194 l 1,2,3
 153 278 153 278 189 431 c 128,-1,4
 225 584 225 584 226 741 c 1,5,-1
 233 1016 l 1,6,-1
 956 1016 l 1,7,-1
 956 194 l 1,8,-1
 1064 194 l 1,9,-1
 1064 -302 l 1,10,-1
 848 -302 l 1,11,-1
 833 0 l 1,12,-1
 257 0 l 1,13,-1
 249 -302 l 1,14,-1
 29 -302 l 1,0,-1
711 810 m 1,15,-1
 474 810 l 1,16,17
 470 670 470 670 468 647 c 0,18,19
 451 375 451 375 381 197 c 1,20,-1
 711 197 l 1,21,-1
 711 810 l 1,15,-1
EndSplineSet
EndChar

StartChar: afii10070
Encoding: 1077 1077 532
Width: 1030
GlyphClass: 2
Flags: W
LayerCount: 2
Fore
SplineSet
826 0 m 1,0,1
 909 18 909 18 979 63 c 1,2,3
 909 18 909 18 826 0 c 1,0,1
EndSplineSet
EndChar

StartChar: afii10072
Encoding: 1078 1078 533
Width: 1385
GlyphClass: 2
Flags: W
LayerCount: 2
Fore
SplineSet
592 603 m 1,0,-1
 592 1016 l 1,1,-1
 823 1016 l 1,2,-1
 823 603 l 1,3,-1
 1095 1016 l 1,4,-1
 1387 1016 l 1,5,-1
 1013 512 l 1,6,-1
 1404 0 l 1,7,-1
 1120 0 l 1,8,-1
 823 415 l 1,9,-1
 823 0 l 1,10,-1
 592 0 l 1,11,-1
 592 415 l 1,12,-1
 294 0 l 1,13,-1
 11 0 l 1,14,-1
 401 512 l 1,15,-1
 28 1016 l 1,16,-1
 319 1016 l 1,17,-1
 592 603 l 1,0,-1
EndSplineSet
EndChar

StartChar: afii10073
Encoding: 1079 1079 534
Width: 874
GlyphClass: 2
Flags: W
LayerCount: 2
Fore
SplineSet
839 286 m 1,0,1
 839 181 839 181 782.5 111 c 128,-1,2
 726 41 726 41 635.5 11.5 c 128,-1,3
 545 -18 545 -18 424 -18 c 0,4,5
 190 -18 190 -18 67 79 c 1,6,-1
 118 243 l 1,7,8
 168 210 168 210 253 189.5 c 128,-1,9
 338 169 338 169 431 169 c 0,10,11
 532 169 532 169 576 203.5 c 128,-1,12
 620 238 620 238 620 305 c 0,13,14
 620 354 620 354 577 386.5 c 128,-1,15
 534 419 534 419 458 419 c 2,16,-1
 253 419 l 1,17,-1
 253 596 l 1,18,-1
 458 596 l 2,19,20
 524 596 524 596 558.5 627.5 c 128,-1,21
 593 659 593 659 593 706 c 0,22,23
 593 823 593 823 408 823 c 0,24,25
 211 823 211 823 120 759 c 1,26,-1
 62 928 l 1,27,28
 170 1006 170 1006 410 1006 c 0,29,30
 588 1006 588 1006 700.5 936.5 c 128,-1,31
 813 867 813 867 813 736 c 0,32,33
 813 665 813 665 781.5 607.5 c 128,-1,34
 750 550 750 550 687 521 c 1,35,36
 754 491 754 491 795.5 426 c 128,-1,37
 837 361 837 361 839 286 c 1,0,1
EndSplineSet
EndChar

StartChar: afii10074
Encoding: 1080 1080 535
Width: 1037
GlyphClass: 2
Flags: W
LayerCount: 2
Fore
SplineSet
322 376 m 1,0,-1
 739 906 l 1,1,-1
 739 1016 l 1,2,-1
 969 1016 l 1,3,-1
 969 0 l 1,4,-1
 739 0 l 1,5,-1
 739 558 l 1,6,-1
 302 0 l 1,7,-1
 89 0 l 1,8,-1
 89 1016 l 1,9,-1
 322 1016 l 1,10,-1
 322 376 l 1,0,-1
EndSplineSet
EndChar

StartChar: afii10076
Encoding: 1082 1082 537
Width: 987
GlyphClass: 2
Flags: W
LayerCount: 2
Fore
SplineSet
89 1016 m 1,0,-1
 336 1016 l 1,1,-1
 336 634 l 1,2,3
 385 686 385 686 691 1017 c 1,4,-1
 988 1015 l 1,5,-1
 512 515 l 1,6,-1
 1034 0 l 1,7,-1
 713 0 l 1,8,-1
 336 373 l 1,9,-1
 336 0 l 1,10,-1
 89 0 l 1,11,-1
 89 1016 l 1,0,-1
EndSplineSet
EndChar

StartChar: afii10077
Encoding: 1083 1083 538
Width: 1075
GlyphClass: 2
Flags: W
LayerCount: 2
Fore
SplineSet
758 1 m 1,0,-1
 758 811 l 1,1,-1
 395 811 l 1,2,-1
 395 360 l 2,3,4
 395 164 395 164 302 73 c 128,-1,5
 209 -18 209 -18 20 -24 c 0,6,7
 16 -24 16 -24 13.5 27 c 128,-1,8
 11 78 11 78 10 130 c 1,9,-1
 10 181 l 1,10,11
 45 184 45 184 66.5 188 c 128,-1,12
 88 192 88 192 105 202.5 c 128,-1,13
 122 213 122 213 130 225 c 128,-1,14
 138 237 138 237 143.5 262 c 128,-1,15
 149 287 149 287 150 313.5 c 128,-1,16
 151 340 151 340 151 387 c 2,17,-1
 151 1016 l 1,18,-1
 1004 1016 l 1,19,-1
 1004 1 l 1,20,-1
 758 1 l 1,0,-1
EndSplineSet
EndChar

StartChar: afii10078
Encoding: 1084 1084 539
Width: 1139
GlyphClass: 2
Flags: W
LayerCount: 2
Fore
SplineSet
850 1016 m 1,0,-1
 1071 1016 l 1,1,-1
 1071 0 l 1,2,-1
 841 0 l 1,3,-1
 841 628 l 1,4,-1
 634 309 l 1,5,-1
 527 309 l 1,6,-1
 322 627 l 1,7,-1
 322 0 l 1,8,-1
 89 0 l 1,9,-1
 89 1016 l 1,10,-1
 311 1016 l 1,11,-1
 580 600 l 1,12,-1
 850 1016 l 1,0,-1
EndSplineSet
EndChar

StartChar: afii10079
Encoding: 1085 1085 540
Width: 1047
GlyphClass: 2
Flags: W
LayerCount: 2
Fore
SplineSet
732 641 m 1,0,-1
 732 1016 l 1,1,-1
 978 1016 l 1,2,-1
 978 0 l 1,3,-1
 732 0 l 1,4,-1
 732 449 l 1,5,-1
 336 449 l 1,6,-1
 336 0 l 1,7,-1
 89 0 l 1,8,-1
 89 1016 l 1,9,-1
 336 1016 l 1,10,-1
 336 641 l 1,11,-1
 732 641 l 1,0,-1
EndSplineSet
EndChar

StartChar: afii10081
Encoding: 1087 1087 542
Width: 1056
GlyphClass: 2
Flags: W
LayerCount: 2
Fore
SplineSet
732 0 m 1,0,-1
 732 821 l 1,1,-1
 343 821 l 1,2,-1
 343 0 l 1,3,-1
 97 0 l 1,4,-1
 97 1016 l 1,5,-1
 979 1016 l 1,6,-1
 979 0 l 1,7,-1
 732 0 l 1,0,-1
EndSplineSet
EndChar

StartChar: afii10082
Encoding: 1088 1088 543
Width: 1101
GlyphClass: 2
Flags: W
LayerCount: 2
Fore
SplineSet
130 1017 m 1,0,-1
 349 1017 l 1,1,-1
 371 906 l 1,2,3
 418 962 418 962 501.5 1001.5 c 128,-1,4
 585 1041 585 1041 676 1041 c 0,5,6
 797 1041 797 1041 887.5 969.5 c 128,-1,7
 978 898 978 898 1024 779.5 c 128,-1,8
 1070 661 1070 661 1070 513 c 0,9,10
 1070 279 1070 279 958 130.5 c 128,-1,11
 846 -18 846 -18 655 -18 c 0,12,13
 489 -18 489 -18 379 99 c 1,14,15
 384 24 384 24 384 -15 c 2,16,-1
 384 -395 l 1,17,-1
 130 -408 l 1,18,-1
 130 1017 l 1,0,-1
607 179 m 0,19,20
 704 179 704 179 760.5 265 c 128,-1,21
 817 351 817 351 817 515 c 0,22,23
 817 682 817 682 760 763 c 128,-1,24
 703 844 703 844 603 844 c 0,25,26
 385 844 385 844 382 530 c 1,27,28
 382 345 382 345 438.5 262 c 128,-1,29
 495 179 495 179 607 179 c 0,19,20
EndSplineSet
EndChar

StartChar: afii10084
Encoding: 1090 1090 545
Width: 784
GlyphClass: 2
Flags: W
LayerCount: 2
Fore
SplineSet
797 1016 m 1,0,-1
 797 837 l 1,1,-1
 523 837 l 1,2,-1
 523 0 l 1,3,-1
 284 0 l 1,4,-1
 284 837 l 1,5,-1
 3 837 l 1,6,-1
 3 1016 l 1,7,-1
 797 1016 l 1,0,-1
EndSplineSet
EndChar

StartChar: afii10085
Encoding: 1091 1091 546
Width: 971
GlyphClass: 2
Flags: W
LayerCount: 2
Fore
SplineSet
63 -365 m 1,0,-1
 36 -172 l 1,1,2
 42 -172 42 -172 52 -172 c 128,-1,3
 62 -172 62 -172 92 -168.5 c 128,-1,4
 122 -165 122 -165 150.5 -158.5 c 128,-1,5
 179 -152 179 -152 216 -136 c 128,-1,6
 253 -120 253 -120 282.5 -97.5 c 128,-1,7
 312 -75 312 -75 338.5 -38 c 128,-1,8
 365 -1 365 -1 378 46 c 1,9,-1
 -12 1016 l 1,10,-1
 248 1016 l 1,11,-1
 502 350 l 1,12,-1
 726 1016 l 1,13,-1
 991 1016 l 1,14,-1
 600 -33 l 2,15,16
 572 -107 572 -107 506.5 -168 c 128,-1,17
 441 -229 441 -229 367.5 -264 c 128,-1,18
 294 -299 294 -299 224 -323.5 c 128,-1,19
 154 -348 154 -348 108 -356 c 1,20,-1
 63 -365 l 1,0,-1
EndSplineSet
EndChar

StartChar: afii10086
Encoding: 1092 1092 547
Width: 1303
GlyphClass: 2
Flags: W
LayerCount: 2
Fore
SplineSet
785 -165 m 1,0,-1
 540 -165 l 1,1,-1
 540 17 l 1,2,3
 508 13 508 13 449 13 c 0,4,5
 362 13 362 13 288.5 57.5 c 128,-1,6
 215 102 215 102 168.5 173.5 c 128,-1,7
 122 245 122 245 96 333 c 128,-1,8
 70 421 70 421 70 511 c 0,9,10
 70 633 70 633 117 745.5 c 128,-1,11
 164 858 164 858 256.5 932.5 c 128,-1,12
 349 1007 349 1007 465 1007 c 0,13,14
 508 1007 508 1007 540 1003 c 1,15,-1
 540 1156 l 1,16,-1
 785 1156 l 1,17,-1
 785 1003 l 1,18,19
 825 1007 825 1007 860 1007 c 0,20,21
 976 1007 976 1007 1068.5 932 c 128,-1,22
 1161 857 1161 857 1208 744.5 c 128,-1,23
 1255 632 1255 632 1255 510 c 128,-1,24
 1255 388 1255 388 1211.5 276 c 128,-1,25
 1168 164 1168 164 1079 88.5 c 128,-1,26
 990 13 990 13 875 13 c 0,27,28
 821 13 821 13 785 17 c 1,29,-1
 785 -165 l 1,0,-1
453 196 m 0,30,31
 517 196 517 196 540 199 c 1,32,-1
 540 820 l 1,33,34
 516 823 516 823 467 823 c 128,-1,35
 418 823 418 823 378 775.5 c 128,-1,36
 338 728 338 728 317.5 655.5 c 128,-1,37
 297 583 297 583 297 505 c 0,38,39
 297 425 297 425 314 356.5 c 128,-1,40
 331 288 331 288 367.5 242 c 128,-1,41
 404 196 404 196 453 196 c 0,30,31
870 196 m 0,42,43
 920 196 920 196 956.5 242.5 c 128,-1,44
 993 289 993 289 1010 358 c 128,-1,45
 1027 427 1027 427 1027 506 c 0,46,47
 1027 628 1027 628 979 726 c 128,-1,48
 931 824 931 824 858 824 c 0,49,50
 800 824 800 824 785 821 c 1,51,-1
 785 200 l 1,52,53
 810 196 810 196 870 196 c 0,42,43
EndSplineSet
EndChar

StartChar: afii10088
Encoding: 1094 1094 549
Width: 1059
GlyphClass: 2
Flags: W
LayerCount: 2
Fore
SplineSet
1052 -302 m 1,0,-1
 845 -302 l 1,1,-1
 826 0 l 1,2,-1
 92 0 l 1,3,-1
 92 1016 l 1,4,-1
 339 1016 l 1,5,-1
 339 193 l 1,6,-1
 697 193 l 1,7,-1
 697 1016 l 1,8,-1
 943 1016 l 1,9,-1
 943 114 l 1,10,-1
 1052 114 l 1,11,-1
 1052 -302 l 1,0,-1
EndSplineSet
EndChar

StartChar: afii10089
Encoding: 1095 1095 550
Width: 1028
GlyphClass: 2
Flags: W
LayerCount: 2
Fore
SplineSet
959 0 m 1,0,-1
 712 0 l 1,1,-1
 712 429 l 1,2,3
 623 342 623 342 451 342 c 1,4,5
 249 344 249 344 150.5 453.5 c 128,-1,6
 52 563 52 563 52 758 c 2,7,-1
 52 1016 l 1,8,-1
 298 1016 l 1,9,-1
 298 802 l 2,10,11
 298 743 298 743 304.5 702.5 c 128,-1,12
 311 662 311 662 330 622 c 128,-1,13
 349 582 349 582 389.5 561.5 c 128,-1,14
 430 541 430 541 493 541 c 0,15,16
 592 541 592 541 649 585.5 c 128,-1,17
 706 630 706 630 712 678 c 1,18,-1
 712 1016 l 1,19,-1
 959 1016 l 1,20,-1
 959 0 l 1,0,-1
EndSplineSet
EndChar

StartChar: afii10090
Encoding: 1096 1096 551
Width: 1301
GlyphClass: 2
Flags: W
LayerCount: 2
Fore
SplineSet
546 195 m 1,0,-1
 546 1016 l 1,1,-1
 777 1016 l 1,2,-1
 777 195 l 1,3,-1
 1002 195 l 1,4,-1
 1002 1016 l 1,5,-1
 1233 1016 l 1,6,-1
 1233 0 l 1,7,-1
 89 0 l 1,8,-1
 89 1016 l 1,9,-1
 322 1016 l 1,10,-1
 322 195 l 1,11,-1
 546 195 l 1,0,-1
EndSplineSet
EndChar

StartChar: afii10091
Encoding: 1097 1097 552
Width: 1356
GlyphClass: 2
Flags: W
LayerCount: 2
Fore
SplineSet
1131 -295 m 1,0,-1
 1117 0 l 1,1,-1
 89 0 l 1,2,-1
 89 1016 l 1,3,-1
 322 1016 l 1,4,-1
 322 193 l 1,5,-1
 547 193 l 1,6,-1
 547 1016 l 1,7,-1
 777 1016 l 1,8,-1
 777 193 l 1,9,-1
 1003 193 l 1,10,-1
 1003 1016 l 1,11,-1
 1233 1016 l 1,12,-1
 1233 113 l 1,13,-1
 1342 113 l 1,14,-1
 1342 -295 l 1,15,-1
 1131 -295 l 1,0,-1
EndSplineSet
EndChar

StartChar: afii10092
Encoding: 1098 1098 553
Width: 1042
GlyphClass: 2
Flags: W
LayerCount: 2
Fore
SplineSet
190 0 m 1,0,-1
 190 823 l 1,1,-1
 -2 823 l 1,2,-1
 -2 1016 l 1,3,-1
 434 1016 l 1,4,-1
 434 647 l 1,5,-1
 656 647 l 2,6,7
 809 647 809 647 911.5 563.5 c 128,-1,8
 1014 480 1014 480 1014 329 c 0,9,10
 1014 181 1014 181 919.5 90.5 c 128,-1,11
 825 0 825 0 669 0 c 2,12,-1
 190 0 l 1,0,-1
435 188 m 1,13,-1
 655 188 l 2,14,15
 717 188 717 188 753 231 c 128,-1,16
 789 274 789 274 789 333 c 0,17,18
 789 387 789 387 752 427 c 128,-1,19
 715 467 715 467 649 467 c 2,20,-1
 435 467 l 1,21,-1
 435 188 l 1,13,-1
EndSplineSet
EndChar

StartChar: afii10094
Encoding: 1100 1100 554
Width: 927
GlyphClass: 2
Flags: W
LayerCount: 2
Fore
SplineSet
335 1017 m 1,0,-1
 335 652 l 1,1,-1
 542 652 l 2,2,3
 640 652 640 652 719.5 617 c 128,-1,4
 799 582 799 582 849 508 c 128,-1,5
 899 434 899 434 899 332 c 0,6,7
 899 184 899 184 804 92 c 128,-1,8
 709 0 709 0 554 0 c 2,9,-1
 89 0 l 1,10,-1
 89 1017 l 1,11,-1
 335 1017 l 1,0,-1
336 470 m 1,12,-1
 336 188 l 1,13,-1
 541 188 l 2,14,15
 602 188 602 188 637.5 232 c 128,-1,16
 673 276 673 276 673 336 c 0,17,18
 673 392 673 392 637.5 431 c 128,-1,19
 602 470 602 470 536 470 c 2,20,-1
 336 470 l 1,12,-1
EndSplineSet
EndChar

StartChar: afii10095
Encoding: 1101 1101 555
Width: 868
GlyphClass: 2
Flags: W
LayerCount: 2
Fore
SplineSet
338 -19 m 0,0,1
 172 -19 172 -19 48 67 c 1,2,-1
 105 241 l 1,3,4
 214 168 214 168 325 168 c 0,5,6
 545 168 545 168 585 420 c 1,7,-1
 153 420 l 1,8,-1
 153 602 l 1,9,-1
 585 602 l 1,10,11
 549 844 549 844 329 844 c 0,12,13
 270 844 270 844 208 822 c 128,-1,14
 146 800 146 800 109 774 c 1,15,-1
 56 946 l 1,16,17
 169 1034 169 1034 351 1034 c 0,18,19
 448 1034 448 1034 534 1001 c 128,-1,20
 620 968 620 968 686.5 905.5 c 128,-1,21
 753 843 753 843 792 744 c 128,-1,22
 831 645 831 645 831 523 c 0,23,24
 831 269 831 269 695.5 125 c 128,-1,25
 560 -19 560 -19 338 -19 c 0,0,1
EndSplineSet
EndChar

StartChar: afii10096
Encoding: 1102 1102 556
Width: 1360
GlyphClass: 2
Flags: W
LayerCount: 2
Fore
SplineSet
885 -18 m 0,0,1
 697 -18 697 -18 584 102 c 128,-1,2
 471 222 471 222 445 410 c 1,3,-1
 336 410 l 1,4,-1
 336 0 l 1,5,-1
 89 0 l 1,6,-1
 89 1016 l 1,7,-1
 336 1016 l 1,8,-1
 336 610 l 1,9,-1
 445 610 l 1,10,11
 472 800 472 800 584.5 917 c 128,-1,12
 697 1034 697 1034 885 1034 c 0,13,14
 1027 1034 1027 1034 1128 963 c 128,-1,15
 1229 892 1229 892 1277 776 c 128,-1,16
 1325 660 1325 660 1325 511 c 0,17,18
 1325 403 1325 403 1296 308 c 128,-1,19
 1267 213 1267 213 1213 140 c 128,-1,20
 1159 67 1159 67 1074 24.5 c 128,-1,21
 989 -18 989 -18 885 -18 c 0,0,1
885 168 m 0,22,23
 954 168 954 168 1000 216.5 c 128,-1,24
 1046 265 1046 265 1065 339 c 128,-1,25
 1084 413 1084 413 1084 509 c 0,26,27
 1084 847 1084 847 885 847 c 0,28,29
 785 847 785 847 731 751 c 128,-1,30
 677 655 677 655 677 508 c 128,-1,31
 677 361 677 361 730.5 264.5 c 128,-1,32
 784 168 784 168 885 168 c 0,22,23
EndSplineSet
EndChar

StartChar: afii10097
Encoding: 1103 1103 557
Width: 992
GlyphClass: 2
Flags: W
LayerCount: 2
Fore
SplineSet
63 0 m 1,0,-1
 284 430 l 1,1,2
 194 466 194 466 138.5 537 c 128,-1,3
 83 608 83 608 83 705 c 0,4,5
 83 848 83 848 181.5 932 c 128,-1,6
 280 1016 280 1016 438 1016 c 2,7,-1
 926 1016 l 1,8,-1
 926 0 l 1,9,-1
 680 0 l 1,10,-1
 680 392 l 1,11,-1
 524 392 l 1,12,-1
 338 0 l 1,13,-1
 63 0 l 1,0,-1
460 588 m 2,14,-1
 680 588 l 1,15,-1
 680 813 l 1,16,-1
 460 813 l 2,17,18
 394 813 394 813 360.5 782.5 c 128,-1,19
 327 752 327 752 327 705 c 1,20,-1
 332 693 l 2,21,22
 336 681 336 681 347 663.5 c 128,-1,23
 358 646 358 646 372.5 629 c 128,-1,24
 387 612 387 612 410.5 600 c 128,-1,25
 434 588 434 588 460 588 c 2,14,-1
EndSplineSet
EndChar

StartChar: afii10099
Encoding: 1106 1106 560
Width: 974
GlyphClass: 2
Flags: W
LayerCount: 2
Fore
SplineSet
539 -252 m 1,0,-1
 527 -106 l 1,1,-1
 574 -106 l 2,2,3
 614 -106 614 -106 637.5 -104 c 128,-1,4
 661 -102 661 -102 680.5 -93 c 128,-1,5
 700 -84 700 -84 709 -72.5 c 128,-1,6
 718 -61 718 -61 724.5 -34.5 c 128,-1,7
 731 -8 731 -8 732.5 22 c 128,-1,8
 734 52 734 52 734 104 c 2,9,-1
 734 340 l 2,10,11
 734 518 734 518 697.5 591 c 128,-1,12
 661 664 661 664 550 664 c 0,13,14
 450 664 450 664 368 596 c 128,-1,15
 286 528 286 528 266 453 c 1,16,-1
 266 0 l 1,17,-1
 96 0 l 1,18,-1
 96 995 l 1,19,-1
 13 995 l 1,20,-1
 13 1119 l 1,21,-1
 96 1119 l 1,22,-1
 96 1382 l 1,23,-1
 266 1382 l 1,24,-1
 266 1119 l 1,25,-1
 628 1119 l 1,26,-1
 628 994 l 1,27,-1
 266 994 l 1,28,-1
 266 682 l 1,29,30
 385 824 385 824 564 824 c 0,31,32
 902 824 902 824 902 414 c 2,33,-1
 902 155 l 2,34,35
 902 89 902 89 900 45 c 128,-1,36
 898 1 898 1 891 -45.5 c 128,-1,37
 884 -92 884 -92 871.5 -121 c 128,-1,38
 859 -150 859 -150 837.5 -177.5 c 128,-1,39
 816 -205 816 -205 785 -220 c 128,-1,40
 754 -235 754 -235 710.5 -243.5 c 128,-1,41
 667 -252 667 -252 609 -252 c 2,42,-1
 539 -252 l 1,0,-1
EndSplineSet
EndChar

StartChar: afii10101
Encoding: 1108 1108 562
Width: 868
GlyphClass: 2
Flags: W
LayerCount: 2
Fore
SplineSet
825 946 m 1,0,-1
 830 942 l 1,1,-1
 783 767 l 1,2,-1
 772 774 l 1,3,4
 669 845 669 845 551 845 c 0,5,6
 450 845 450 845 382 786 c 128,-1,7
 314 727 314 727 295 609 c 1,8,-1
 728 609 l 1,9,-1
 728 428 l 1,10,-1
 296 428 l 1,11,12
 316 302 316 302 387.5 235 c 128,-1,13
 459 168 459 168 560 168 c 0,14,15
 670 168 670 168 774 241 c 1,16,-1
 786 249 l 1,17,-1
 839 71 l 1,18,-1
 833 67 l 1,19,20
 709 -19 709 -19 543 -19 c 0,21,22
 320 -19 320 -19 184.5 125 c 128,-1,23
 49 269 49 269 49 523 c 0,24,25
 49 645 49 645 88 744.5 c 128,-1,26
 127 844 127 844 194 907.5 c 128,-1,27
 261 971 261 971 347 1005 c 128,-1,28
 433 1039 433 1039 529 1039 c 0,29,30
 703 1039 703 1039 825 946 c 1,0,-1
EndSplineSet
EndChar

StartChar: afii10102
Encoding: 1109 1109 563
Width: 860
GlyphClass: 2
Flags: W
LayerCount: 2
Fore
SplineSet
426 -17 m 0,0,1
 209 -17 209 -17 78 57 c 1,2,-1
 73 61 l 1,3,-1
 99 257 l 1,4,-1
 111 250 l 1,5,6
 169 219 169 219 258.5 193 c 128,-1,7
 348 167 348 167 418 167 c 0,8,9
 565 167 565 167 568 275 c 1,10,11
 568 315 568 315 538 339 c 128,-1,12
 508 363 508 363 424 404 c 0,13,14
 401 415 401 415 389 421 c 1,15,-1
 388 421 l 1,16,17
 378 427 378 427 336 448 c 1,18,-1
 336 447 l 1,19,20
 280 473 280 473 243.5 493 c 128,-1,21
 207 513 207 513 172.5 540 c 128,-1,22
 138 567 138 567 119 595 c 128,-1,23
 100 623 100 623 88 661.5 c 128,-1,24
 76 700 76 700 76 748 c 0,25,26
 76 889 76 889 176 965 c 128,-1,27
 276 1041 276 1041 449 1041 c 0,28,29
 633 1041 633 1041 777 969 c 2,30,-1
 785 965 l 1,31,-1
 720 785 l 1,32,-1
 711 790 l 1,33,34
 576 854 576 854 452 854 c 0,35,36
 317 854 317 854 317 768 c 0,37,38
 317 727 317 727 357 701 c 0,39,40
 378 688 378 688 491 637 c 0,41,42
 501 633 501 633 520.5 624 c 128,-1,43
 540 615 540 615 546 612 c 0,44,45
 684 554 684 554 747.5 487 c 128,-1,46
 811 420 811 420 811 306 c 0,47,48
 811 152 811 152 709.5 67.5 c 128,-1,49
 608 -17 608 -17 426 -17 c 0,0,1
EndSplineSet
EndChar

StartChar: afii10103
Encoding: 1110 1110 564
Width: 447
GlyphClass: 2
Flags: W
LayerCount: 2
Fore
SplineSet
130 1139 m 1,0,-1
 130 1357 l 1,1,-1
 384 1357 l 1,2,-1
 384 1139 l 1,3,-1
 130 1139 l 1,0,-1
384 0 m 1,4,-1
 130 0 l 1,5,-1
 130 1017 l 1,6,-1
 384 1017 l 1,7,-1
 384 0 l 1,4,-1
EndSplineSet
EndChar

StartChar: afii10105
Encoding: 1112 1112 566
Width: 461
GlyphClass: 2
Flags: W
LayerCount: 2
Fore
SplineSet
404 1139 m 1,0,-1
 151 1139 l 1,1,-1
 151 1357 l 1,2,-1
 404 1357 l 1,3,-1
 404 1139 l 1,0,-1
24 -379 m 2,4,-1
 -36 -379 l 1,5,-1
 -65 -187 l 1,6,-1
 -3 -187 l 2,7,8
 40 -187 40 -187 67 -181.5 c 128,-1,9
 94 -176 94 -176 111.5 -165 c 128,-1,10
 129 -154 129 -154 137.5 -130.5 c 128,-1,11
 146 -107 146 -107 148.5 -79.5 c 128,-1,12
 151 -52 151 -52 151 -4 c 2,13,-1
 151 1017 l 1,14,-1
 404 1017 l 1,15,-1
 404 40 l 2,16,17
 404 -49 404 -49 395 -111.5 c 128,-1,18
 386 -174 386 -174 362 -227.5 c 128,-1,19
 338 -281 338 -281 295.5 -312.5 c 128,-1,20
 253 -344 253 -344 186 -361.5 c 128,-1,21
 119 -379 119 -379 24 -379 c 2,4,-1
EndSplineSet
EndChar

StartChar: afii10107
Encoding: 1114 1114 567
Width: 1486
GlyphClass: 2
Flags: W
LayerCount: 2
Fore
SplineSet
696 642 m 1,0,-1
 696 1016 l 1,1,-1
 940 1016 l 1,2,-1
 940 643 l 1,3,-1
 1111 643 l 2,4,5
 1272 643 1272 643 1364.5 564 c 128,-1,6
 1457 485 1457 485 1457 328 c 0,7,8
 1457 185 1457 185 1360 92.5 c 128,-1,9
 1263 0 1263 0 1110 0 c 2,10,-1
 696 0 l 1,11,-1
 696 437 l 1,12,-1
 336 437 l 1,13,-1
 336 0 l 1,14,-1
 89 0 l 1,15,-1
 89 1016 l 1,16,-1
 336 1016 l 1,17,-1
 336 642 l 1,18,-1
 696 642 l 1,0,-1
940 463 m 1,19,-1
 940 191 l 1,20,-1
 1100 191 l 2,21,22
 1169 191 1169 191 1207.5 231.5 c 128,-1,23
 1246 272 1246 272 1246 333 c 0,24,25
 1246 390 1246 390 1207 426.5 c 128,-1,26
 1168 463 1168 463 1099 463 c 2,27,-1
 940 463 l 1,19,-1
EndSplineSet
EndChar

StartChar: afii10108
Encoding: 1115 1115 568
Width: 974
GlyphClass: 2
Flags: W
LayerCount: 2
Fore
SplineSet
266 0 m 1,0,-1
 96 0 l 1,1,-1
 96 996 l 1,2,-1
 13 996 l 1,3,-1
 13 1120 l 1,4,-1
 96 1120 l 1,5,-1
 96 1382 l 1,6,-1
 266 1382 l 1,7,-1
 266 1120 l 1,8,-1
 628 1120 l 1,9,-1
 628 995 l 1,10,-1
 266 995 l 1,11,-1
 266 682 l 1,12,13
 385 824 385 824 564 824 c 0,14,15
 902 824 902 824 902 412 c 2,16,-1
 902 0 l 1,17,-1
 734 0 l 1,18,-1
 734 340 l 2,19,20
 734 411 734 411 730 459.5 c 128,-1,21
 726 508 726 508 714.5 549.5 c 128,-1,22
 703 591 703 591 682.5 614.5 c 128,-1,23
 662 638 662 638 629.5 651 c 128,-1,24
 597 664 597 664 550 664 c 0,25,26
 450 664 450 664 368 596 c 128,-1,27
 286 528 286 528 266 453 c 1,28,-1
 266 0 l 1,0,-1
EndSplineSet
EndChar

StartChar: afii10193
Encoding: 1119 1119 572
Width: 1017
GlyphClass: 2
Flags: W
LayerCount: 2
Fore
SplineSet
336 1016 m 1,0,-1
 336 193 l 1,1,-1
 696 193 l 1,2,-1
 696 1016 l 1,3,-1
 943 1016 l 1,4,-1
 943 0 l 1,5,-1
 642 0 l 1,6,-1
 630 -304 l 1,7,-1
 424 -304 l 1,8,-1
 415 0 l 1,9,-1
 89 0 l 1,10,-1
 89 1016 l 1,11,-1
 336 1016 l 1,0,-1
EndSplineSet
EndChar

StartChar: endash
Encoding: 8211 8211 599
Width: 1113
GlyphClass: 2
Flags: W
LayerCount: 2
Fore
SplineSet
72 419 m 1,0,-1
 72 603 l 1,1,-1
 1063 603 l 1,2,-1
 1063 419 l 1,3,-1
 72 419 l 1,0,-1
EndSplineSet
EndChar

StartChar: emdash
Encoding: 8212 8212 600
Width: 1894
GlyphClass: 2
Flags: W
LayerCount: 2
Fore
SplineSet
19 419 m 1,0,-1
 19 603 l 1,1,-1
 1886 603 l 1,2,-1
 1886 419 l 1,3,-1
 19 419 l 1,0,-1
EndSplineSet
EndChar

StartChar: quoteleft
Encoding: 8216 8216 601
Width: 384
GlyphClass: 2
Flags: W
LayerCount: 2
Fore
SplineSet
44 1271 m 1,0,-1
 251 1380 l 1,1,-1
 359 1009 l 1,2,-1
 199 898 l 1,3,-1
 44 1271 l 1,0,-1
EndSplineSet
EndChar

StartChar: quoteright
Encoding: 8217 8217 602
Width: 383
GlyphClass: 2
Flags: W
LayerCount: 2
Fore
SplineSet
46 920 m 1,0,-1
 145 1378 l 1,1,-1
 362 1378 l 1,2,-1
 214 920 l 1,3,-1
 46 920 l 1,0,-1
EndSplineSet
EndChar

StartChar: quotesinglbase
Encoding: 8218 8218 603
Width: 488
GlyphClass: 2
Flags: W
LayerCount: 2
Fore
SplineSet
96 -230 m 1,0,-1
 196 227 l 1,1,-1
 414 227 l 1,2,-1
 266 -230 l 1,3,-1
 96 -230 l 1,0,-1
EndSplineSet
EndChar

StartChar: quotedblleft
Encoding: 8220 8220 604
Width: 649
GlyphClass: 2
Flags: W
LayerCount: 2
Fore
SplineSet
44 1271 m 1,0,-1
 252 1380 l 1,1,-1
 353 1009 l 1,2,-1
 199 897 l 1,3,-1
 44 1271 l 1,0,-1
317 1271 m 1,4,-1
 517 1381 l 1,5,-1
 623 1009 l 1,6,-1
 463 897 l 1,7,-1
 317 1271 l 1,4,-1
EndSplineSet
EndChar

StartChar: quotedblright
Encoding: 8221 8221 605
Width: 841
GlyphClass: 2
Flags: W
LayerCount: 2
Fore
SplineSet
150 908 m 1,0,-1
 251 1378 l 1,1,-1
 458 1378 l 1,2,-1
 320 908 l 1,3,-1
 150 908 l 1,0,-1
418 900 m 1,4,-1
 510 1378 l 1,5,-1
 726 1378 l 1,6,-1
 578 900 l 1,7,-1
 418 900 l 1,4,-1
EndSplineSet
EndChar

StartChar: quotedblbase
Encoding: 8222 8222 606
Width: 880
GlyphClass: 2
Flags: W
LayerCount: 2
Fore
SplineSet
135 -230 m 1,0,-1
 237 227 l 1,1,-1
 461 227 l 1,2,-1
 307 -230 l 1,3,-1
 135 -230 l 1,0,-1
444 -230 m 1,4,-1
 551 227 l 1,5,-1
 773 227 l 1,6,-1
 621 -230 l 1,7,-1
 444 -230 l 1,4,-1
EndSplineSet
EndChar

StartChar: dagger
Encoding: 8224 8224 607
Width: 856
GlyphClass: 2
Flags: W
LayerCount: 2
Fore
SplineSet
335 1052 m 1,0,-1
 335 1360 l 1,1,-1
 526 1360 l 1,2,-1
 526 1052 l 1,3,-1
 822 1052 l 1,4,-1
 822 872 l 1,5,-1
 518 872 l 1,6,-1
 518 102 l 1,7,-1
 335 102 l 1,8,-1
 335 872 l 1,9,-1
 54 872 l 1,10,-1
 54 1052 l 1,11,-1
 335 1052 l 1,0,-1
EndSplineSet
EndChar

StartChar: daggerdbl
Encoding: 8225 8225 608
Width: 870
GlyphClass: 2
Flags: W
LayerCount: 2
Fore
SplineSet
352 498 m 1,0,-1
 352 863 l 1,1,-1
 109 863 l 1,2,-1
 109 1037 l 1,3,-1
 352 1037 l 1,4,-1
 352 1354 l 1,5,-1
 543 1354 l 1,6,-1
 543 1037 l 1,7,-1
 788 1037 l 1,8,-1
 788 863 l 1,9,-1
 543 863 l 1,10,-1
 544 498 l 1,11,-1
 785 498 l 1,12,-1
 785 335 l 1,13,-1
 544 335 l 1,14,-1
 544 -23 l 1,15,-1
 352 -23 l 1,16,-1
 352 335 l 1,17,-1
 107 335 l 1,18,-1
 107 498 l 1,19,-1
 352 498 l 1,0,-1
EndSplineSet
EndChar

StartChar: bullet
Encoding: 8226 8226 609
Width: 871
GlyphClass: 2
Flags: W
LayerCount: 2
Fore
SplineSet
443 324 m 128,-1,1
 304 324 304 324 212.5 412.5 c 128,-1,2
 121 501 121 501 121 635 c 0,3,4
 121 768 121 768 215.5 859 c 128,-1,5
 310 950 310 950 448 950 c 128,-1,6
 586 950 586 950 677.5 862 c 128,-1,7
 769 774 769 774 769 641 c 0,8,9
 769 507 769 507 675.5 415.5 c 128,-1,0
 582 324 582 324 443 324 c 128,-1,1
EndSplineSet
EndChar

StartChar: guilsinglleft
Encoding: 8249 8249 610
Width: 511
GlyphClass: 2
Flags: W
LayerCount: 2
Fore
SplineSet
254 524 m 1,0,-1
 487 155 l 1,1,-1
 285 155 l 1,2,-1
 41 524 l 1,3,-1
 291 898 l 1,4,-1
 493 898 l 1,5,-1
 254 524 l 1,0,-1
EndSplineSet
EndChar

StartChar: guilsinglright
Encoding: 8250 8250 611
Width: 511
GlyphClass: 2
Flags: W
LayerCount: 2
Fore
SplineSet
493 525 m 1,0,-1
 240 155 l 1,1,-1
 38 155 l 1,2,-1
 276 525 l 1,3,-1
 44 898 l 1,4,-1
 246 898 l 1,5,-1
 493 525 l 1,0,-1
EndSplineSet
EndChar

StartChar: fraction
Encoding: 8260 8260 612
Width: 1033
GlyphClass: 2
Flags: W
LayerCount: 2
Fore
SplineSet
25 0 m 1,0,-1
 831 1347 l 1,1,-1
 1029 1347 l 1,2,-1
 226 0 l 1,3,-1
 25 0 l 1,0,-1
EndSplineSet
EndChar

StartChar: uni2074
Encoding: 8308 8308 613
Width: 763
GlyphClass: 2
Flags: W
LayerCount: 2
Fore
SplineSet
386 1317 m 1,0,-1
 544 1317 l 1,1,-1
 544 868 l 1,2,-1
 634 868 l 1,3,-1
 648 711 l 1,4,-1
 543 711 l 1,5,-1
 542 557 l 1,6,-1
 382 557 l 1,7,-1
 382 711 l 1,8,-1
 69 711 l 1,9,-1
 69 832 l 1,10,-1
 386 1317 l 1,0,-1
380 1042 m 1,11,-1
 274 868 l 1,12,-1
 380 868 l 1,13,-1
 380 1042 l 1,11,-1
EndSplineSet
EndChar

StartChar: Euro
Encoding: 8364 8364 614
Width: 1061
GlyphClass: 2
Flags: W
LayerCount: 2
Fore
SplineSet
993 89 m 1,0,1
 856 -8 856 -8 686 -8 c 0,2,3
 596 -8 596 -8 520 17.5 c 128,-1,4
 444 43 444 43 389.5 86.5 c 128,-1,5
 335 130 335 130 293.5 191.5 c 128,-1,6
 252 253 252 253 227.5 321 c 128,-1,7
 203 389 203 389 190 467 c 1,8,-1
 64 467 l 1,9,-1
 90 642 l 1,10,-1
 172 642 l 1,11,-1
 172 683 l 1,12,13
 170 683 170 683 159 685 c 128,-1,14
 148 687 148 687 137.5 689.5 c 128,-1,15
 127 692 127 692 115.5 695.5 c 128,-1,16
 104 699 104 699 97 703.5 c 128,-1,17
 90 708 90 708 89 713 c 2,18,-1
 83 854 l 1,19,-1
 170 878 l 1,20,21
 193 972 193 972 246 1047 c 128,-1,22
 299 1122 299 1122 388.5 1170.5 c 128,-1,23
 478 1219 478 1219 589 1220 c 1,24,25
 759 1333 759 1333 943 1247 c 1,26,27
 959 1243 959 1243 963.5 1210 c 128,-1,28
 968 1177 968 1177 965.5 1145 c 128,-1,29
 963 1113 963 1113 967 1094 c 0,30,31
 967 1093 967 1093 968 1091 c 1,32,-1
 968 1089 l 1,33,-1
 970 1084 l 1,34,-1
 953 1076 l 1,35,-1
 950 1080 l 1,36,-1
 947 1086 l 1,37,38
 927 1112 927 1112 897.5 1125 c 128,-1,39
 868 1138 868 1138 847 1139.5 c 128,-1,40
 826 1141 826 1141 785 1141 c 0,41,42
 777 1141 777 1141 773 1141 c 2,43,-1
 772 1141 l 1,44,45
 683 1152 683 1152 605 1104.5 c 128,-1,46
 527 1057 527 1057 499 966 c 1,47,48
 506 965 506 965 531.5 961 c 128,-1,49
 557 957 557 957 580.5 953.5 c 128,-1,50
 604 950 604 950 636 944 c 128,-1,51
 668 938 668 938 694 931 c 128,-1,52
 720 924 720 924 743.5 915.5 c 128,-1,53
 767 907 767 907 781 896 c 128,-1,54
 795 885 795 885 796 874 c 1,55,-1
 901 728 l 1,56,-1
 502 704 l 2,57,58
 498 703 498 703 476 701.5 c 128,-1,59
 454 700 454 700 428 698.5 c 128,-1,60
 402 697 402 697 392 696 c 1,61,-1
 392 642 l 1,62,-1
 886 642 l 1,63,-1
 862 467 l 1,64,-1
 412 467 l 1,65,66
 440 333 440 333 519 257.5 c 128,-1,67
 598 182 598 182 710 182 c 0,68,69
 848 182 848 182 981 289 c 1,70,-1
 998 301 l 1,71,-1
 998 91 l 1,72,-1
 993 89 l 1,0,1
EndSplineSet
EndChar

StartChar: afii61352
Encoding: 8470 8470 615
Width: 2438
GlyphClass: 2
Flags: W
LayerCount: 2
Fore
SplineSet
1912 -18 m 0,0,1
 1694 -18 1694 -18 1566.5 128.5 c 128,-1,2
 1439 275 1439 275 1439 512 c 0,3,4
 1439 756 1439 756 1566 898.5 c 128,-1,5
 1693 1041 1693 1041 1921 1041 c 0,6,7
 2141 1041 2141 1041 2267.5 895.5 c 128,-1,8
 2394 750 2394 750 2394 512 c 0,9,10
 2394 270 2394 270 2266.5 126 c 128,-1,11
 2139 -18 2139 -18 1912 -18 c 0,0,1
1916 844 m 0,12,13
 1805 844 1805 844 1748 759.5 c 128,-1,14
 1691 675 1691 675 1691 511 c 0,15,16
 1691 348 1691 348 1748 263 c 128,-1,17
 1805 178 1805 178 1917 178 c 128,-1,18
 2029 178 2029 178 2085 263.5 c 128,-1,19
 2141 349 2141 349 2141 512 c 0,20,21
 2141 844 2141 844 1916 844 c 0,12,13
1015 384 m 1,22,23
 1015 418 1015 418 1010 520.5 c 128,-1,24
 1005 623 1005 623 1000.5 711 c 128,-1,25
 996 799 996 799 996 801 c 2,26,-1
 996 1342 l 1,27,-1
 1282 1342 l 1,28,-1
 1282 0 l 1,29,-1
 975 0 l 1,30,-1
 387 945 l 1,31,32
 415 430 415 430 415 409 c 2,33,-1
 415 0 l 1,34,-1
 130 0 l 1,35,-1
 130 1342 l 1,36,-1
 426 1342 l 1,37,-1
 1015 384 l 1,22,23
EndSplineSet
EndChar

StartChar: trademark
Encoding: 8482 8482 616
Width: 1605
GlyphClass: 2
Flags: W
LayerCount: 2
Fore
SplineSet
703 595 m 1,0,-1
 703 1346 l 1,1,-1
 911 1346 l 1,2,-1
 1096 862 l 1,3,-1
 1290 1346 l 1,4,-1
 1484 1346 l 1,5,-1
 1484 595 l 1,6,-1
 1322 595 l 1,7,-1
 1322 1046 l 1,8,-1
 1143 610 l 1,9,-1
 1037 610 l 1,10,-1
 868 1037 l 1,11,-1
 868 595 l 1,12,-1
 703 595 l 1,0,-1
281 595 m 1,13,-1
 281 1189 l 1,14,-1
 57 1189 l 1,15,-1
 56 1346 l 1,16,-1
 665 1346 l 1,17,-1
 665 1189 l 1,18,-1
 447 1189 l 1,19,-1
 447 595 l 1,20,-1
 281 595 l 1,13,-1
EndSplineSet
EndChar

StartChar: summation
Encoding: 8721 8721 617
Width: 1113
GlyphClass: 2
Flags: W
LayerCount: 2
Fore
SplineSet
65 1335 m 1,0,-1
 1056 1335 l 1,1,-1
 1056 1147 l 1,2,-1
 362 1147 l 1,3,-1
 828 530 l 1,4,-1
 338 -105 l 1,5,-1
 1095 -105 l 1,6,-1
 1095 -298 l 1,7,-1
 47 -298 l 1,8,-1
 47 -175 l 1,9,-1
 585 523 l 1,10,-1
 65 1207 l 1,11,-1
 65 1335 l 1,0,-1
EndSplineSet
EndChar

StartChar: minus
Encoding: 8722 8722 618
Width: 1240
GlyphClass: 2
Flags: W
LayerCount: 2
Fore
SplineSet
152 425 m 1,0,-1
 152 609 l 1,1,-1
 1106 609 l 1,2,-1
 1106 425 l 1,3,-1
 152 425 l 1,0,-1
EndSplineSet
EndChar

StartChar: approxequal
Encoding: 8776 8776 619
Width: 1151
GlyphClass: 2
Flags: W
LayerCount: 2
Fore
SplineSet
212 104 m 1,0,-1
 114 226 l 1,1,2
 193 421 193 421 383 421 c 0,3,4
 480 421 480 421 620 357 c 1,5,6
 741 299 741 299 803 299 c 0,7,8
 854 299 854 299 898.5 327 c 128,-1,9
 943 355 943 355 999 421 c 1,10,-1
 1087 305 l 1,11,12
 1052 225 1052 225 970.5 167.5 c 128,-1,13
 889 110 889 110 789 110 c 0,14,15
 728 110 728 110 675.5 127 c 128,-1,16
 623 144 623 144 543 183 c 1,17,18
 492 209 492 209 455.5 221.5 c 128,-1,19
 419 234 419 234 376 234 c 0,20,21
 272 234 272 234 212 104 c 1,0,-1
212 472 m 1,22,-1
 114 594 l 1,23,24
 191 789 191 789 382 789 c 0,25,26
 483 789 483 789 622 723 c 1,27,28
 735 667 735 667 803 667 c 0,29,30
 854 667 854 667 899 695 c 128,-1,31
 944 723 944 723 998 789 c 1,32,-1
 1087 673 l 1,33,34
 1053 593 1053 593 970.5 535.5 c 128,-1,35
 888 478 888 478 788 478 c 0,36,37
 727 478 727 478 674.5 495 c 128,-1,38
 622 512 622 512 543 551 c 1,39,40
 444 602 444 602 375 602 c 0,41,42
 270 602 270 602 212 472 c 1,22,-1
EndSplineSet
EndChar

StartChar: notequal
Encoding: 8800 8800 620
Width: 1154
GlyphClass: 2
Flags: W
LayerCount: 2
Fore
SplineSet
122 456 m 1,0,-1
 445 456 l 1,1,-1
 542 652 l 1,2,-1
 132 652 l 1,3,-1
 120 831 l 1,4,-1
 620 831 l 1,5,-1
 740 1065 l 1,6,-1
 906 1043 l 1,7,-1
 801 831 l 1,8,-1
 1044 831 l 1,9,-1
 1057 651 l 1,10,-1
 722 651 l 1,11,-1
 623 455 l 1,12,-1
 1045 455 l 1,13,-1
 1057 288 l 1,14,-1
 543 288 l 1,15,-1
 420 38 l 1,16,-1
 256 63 l 1,17,-1
 364 288 l 1,18,-1
 132 288 l 1,19,-1
 122 456 l 1,0,-1
EndSplineSet
EndChar

StartChar: lessequal
Encoding: 8804 8804 621
Width: 1074
GlyphClass: 2
Flags: W
LayerCount: 2
Fore
SplineSet
970 982 m 1,0,-1
 369 681 l 1,1,-1
 970 394 l 1,2,-1
 970 194 l 1,3,-1
 123 623 l 1,4,-1
 123 738 l 1,5,-1
 970 1176 l 1,6,-1
 970 982 l 1,0,-1
117 2 m 1,7,-1
 117 159 l 1,8,-1
 975 160 l 1,9,-1
 975 2 l 1,10,-1
 117 2 l 1,7,-1
EndSplineSet
EndChar

StartChar: greaterequal
Encoding: 8805 8805 622
Width: 1074
GlyphClass: 2
Flags: W
LayerCount: 2
Fore
SplineSet
130 1177 m 1,0,-1
 975 738 l 1,1,-1
 975 624 l 1,2,-1
 129 195 l 1,3,-1
 129 394 l 1,4,-1
 729 680 l 1,5,-1
 130 980 l 1,6,-1
 130 1177 l 1,0,-1
123 2 m 1,7,-1
 123 160 l 1,8,-1
 979 159 l 1,9,-1
 979 2 l 1,10,-1
 123 2 l 1,7,-1
EndSplineSet
EndChar

StartChar: lozenge
Encoding: 9674 9674 623
Width: 1077
GlyphClass: 2
Flags: W
LayerCount: 2
Fore
SplineSet
1019 667 m 1,0,-1
 606 -41 l 1,1,-1
 483 -41 l 1,2,-1
 81 666 l 1,3,-1
 490 1377 l 1,4,-1
 615 1377 l 1,5,-1
 1019 667 l 1,0,-1
544 168 m 1,6,7
 594 260 594 260 687.5 428 c 128,-1,8
 781 596 781 596 820 667 c 1,9,10
 781 740 781 740 690.5 907.5 c 128,-1,11
 600 1075 600 1075 553 1165 c 1,12,13
 504 1073 504 1073 410.5 905 c 128,-1,14
 317 737 317 737 279 668 c 1,15,16
 416 409 416 409 544 168 c 1,6,7
EndSplineSet
EndChar

StartChar: uniFB01
Encoding: 64257 64257 624
Width: 1038
GlyphClass: 2
Flags: W
LayerCount: 2
Fore
SplineSet
3 853 m 1,0,-1
 3 1016 l 1,1,-1
 157 1016 l 1,2,-1
 157 1035 l 1,3,4
 158 1102 158 1102 163 1149.5 c 128,-1,5
 168 1197 168 1197 181.5 1242 c 128,-1,6
 195 1287 195 1287 220 1316.5 c 128,-1,7
 245 1346 245 1346 284.5 1368.5 c 128,-1,8
 324 1391 324 1391 380.5 1401.5 c 128,-1,9
 437 1412 437 1412 514 1412 c 2,10,-1
 581 1412 l 1,11,-1
 602 1224 l 1,12,-1
 530 1224 l 2,13,14
 446 1224 446 1224 423.5 1193 c 128,-1,15
 401 1162 401 1162 401 1067 c 2,16,-1
 401 1016 l 1,17,-1
 953 1016 l 1,18,-1
 953 0 l 1,19,-1
 706 0 l 1,20,-1
 706 837 l 1,21,-1
 401 837 l 1,22,-1
 401 0 l 1,23,-1
 157 0 l 1,24,-1
 157 853 l 1,25,-1
 3 853 l 1,0,-1
706 1139 m 1,26,-1
 706 1357 l 1,27,-1
 953 1357 l 1,28,-1
 953 1139 l 1,29,-1
 706 1139 l 1,26,-1
EndSplineSet
EndChar

StartChar: uniFB02
Encoding: 64258 64258 625
Width: 1227
GlyphClass: 2
Flags: W
LayerCount: 2
Fore
SplineSet
579 1222 m 0,0,1
 472 1222 472 1222 437.5 1189 c 128,-1,2
 403 1156 403 1156 402 1067 c 1,3,-1
 402 1016 l 1,4,-1
 611 1016 l 1,5,-1
 611 853 l 1,6,-1
 402 853 l 1,7,-1
 402 0 l 1,8,-1
 157 0 l 1,9,-1
 157 853 l 1,10,-1
 3 853 l 1,11,-1
 3 1016 l 1,12,-1
 157 1016 l 1,13,-1
 157 1047 l 1,14,15
 159 1234 159 1234 250.5 1321 c 128,-1,16
 342 1408 342 1408 543 1408 c 0,17,18
 638 1408 638 1408 822.5 1389 c 128,-1,19
 1007 1370 1007 1370 1008 1370 c 2,20,-1
 1017 1369 l 1,21,-1
 1017 390 l 2,22,23
 1017 334 1017 334 1019 304.5 c 128,-1,24
 1021 275 1021 275 1028 246.5 c 128,-1,25
 1035 218 1035 218 1050.5 206 c 128,-1,26
 1066 194 1066 194 1091 187 c 128,-1,27
 1116 180 1116 180 1156 180 c 0,28,29
 1160 180 1160 180 1212 184 c 1,30,-1
 1222 185 l 1,31,-1
 1235 2 l 1,32,-1
 1226 1 l 1,33,34
 1139 -12 1139 -12 1096 -12 c 0,35,36
 1012 -12 1012 -12 953 9 c 128,-1,37
 894 30 894 30 859 65 c 128,-1,38
 824 100 824 100 804 159 c 128,-1,39
 784 218 784 218 778 279 c 128,-1,40
 772 340 772 340 772 428 c 2,41,-1
 772 1209 l 1,42,43
 635 1222 635 1222 579 1222 c 0,0,1
EndSplineSet
EndChar

StartChar: glyph626
Encoding: 65538 -1 626
Width: 903
GlyphClass: 2
Flags: W
LayerCount: 2
Fore
SplineSet
655 -96 m 2,0,-1
 655 885 l 1,1,-1
 321 885 l 1,2,-1
 321 4 l 1,3,-1
 154 4 l 1,4,-1
 154 885 l 1,5,-1
 12 885 l 1,6,-1
 12 1011 l 1,7,-1
 154 1011 l 1,8,9
 155 1168 155 1168 186.5 1252.5 c 128,-1,10
 218 1337 218 1337 286 1371 c 128,-1,11
 354 1405 354 1405 478 1405 c 2,12,-1
 548 1405 l 1,13,-1
 570 1272 l 1,14,-1
 477 1272 l 2,15,16
 444 1272 444 1272 421.5 1268 c 128,-1,17
 399 1264 399 1264 381.5 1257.5 c 128,-1,18
 364 1251 364 1251 353.5 1235 c 128,-1,19
 343 1219 343 1219 336 1202.5 c 128,-1,20
 329 1186 329 1186 326 1154.5 c 128,-1,21
 323 1123 323 1123 322 1093.5 c 128,-1,22
 321 1064 321 1064 321 1013 c 1,23,-1
 823 1013 l 1,24,-1
 823 -111 l 2,25,26
 823 -207 823 -207 810.5 -267 c 128,-1,27
 798 -327 798 -327 763.5 -369 c 128,-1,28
 729 -411 729 -411 670.5 -428.5 c 128,-1,29
 612 -446 612 -446 519 -446 c 2,30,-1
 466 -446 l 1,31,-1
 444 -293 l 1,32,-1
 500 -293 l 2,33,34
 526 -293 526 -293 546 -290.5 c 128,-1,35
 566 -288 566 -288 581.5 -285.5 c 128,-1,36
 597 -283 597 -283 608.5 -274.5 c 128,-1,37
 620 -266 620 -266 628 -260 c 128,-1,38
 636 -254 636 -254 641 -239 c 128,-1,39
 646 -224 646 -224 649 -213.5 c 128,-1,40
 652 -203 652 -203 653 -180 c 128,-1,41
 654 -157 654 -157 654.5 -142 c 128,-1,42
 655 -127 655 -127 655 -96 c 2,0,-1
823 1175 m 1,43,-1
 655 1175 l 1,44,-1
 655 1370 l 1,45,-1
 823 1370 l 1,46,-1
 823 1175 l 1,43,-1
EndSplineSet
EndChar
